  0
SECTION
  2
HEADER
  9
$ACADVER
  1
AC1014
  9
$HANDSEED
  5
FFFF
  9
$MEASUREMENT
 70
     1
  0
ENDSEC
  0
SECTION
  2
TABLES
  0
TABLE
  2
VPORT
  5
8
330
0
100
AcDbSymbolTable
 70
     4
  0
VPORT
  5
2E
330
8
100
AcDbSymbolTableRecord
100
AcDbViewportTableRecord
  2
*ACTIVE
 70
     0
 10
0.0
 20
0.0
 11
1.0
 21
1.0
 12
210.0
 22
148.5
 13
0.0
 23
0.0
 14
10.0
 24
10.0
 15
10.0
 25
10.0
 16
0.0
 26
0.0
 36
1.0
 17
0.0
 27
0.0
 37
0.0
 40
341.0
 41
1.24
 42
50.0
 43
0.0
 44
0.0
 50
0.0
 51
0.0
 71
     0
 72
   100
 73
     1
 74
     3
 75
     0
 76
     0
 77
     0
 78
     0
  0
ENDTAB
  0
TABLE
  2
LTYPE
  5
5
330
0
100
AcDbSymbolTable
 70
     1
  0
LTYPE
  5
14
330
5
100
AcDbSymbolTableRecord
100
AcDbLinetypeTableRecord
  2
BYBLOCK
 70
     0
  3

 72
    65
 73
     0
 40
0.0
  0
LTYPE
  5
15
330
5
100
AcDbSymbolTableRecord
100
AcDbLinetypeTableRecord
  2
BYLAYER
 70
     0
  3

 72
    65
 73
     0
 40
0.0
  0
LTYPE
  5
16
330
5
100
AcDbSymbolTableRecord
100
AcDbLinetypeTableRecord
  2
CONTINUOUS
 70
     0
  3
Solid line
 72
    65
 73
     0
 40
0.0
  0
ENDTAB
  0
TABLE
  2
LAYER
  5
2
100
AcDbSymbolTable
 70
9
  0
LAYER
  5
50
100
AcDbSymbolTableRecord
100
AcDbLayerTableRecord
  2
0
 70
0
  6
CONTINUOUS
  0
LAYER
  5
51
100
AcDbSymbolTableRecord
100
AcDbLayerTableRecord
  2
Print_tests
 70
0
  6
CONTINUOUS
  0
LAYER
  5
52
100
AcDbSymbolTableRecord
100
AcDbLayerTableRecord
  2
Draft
 70
0
  6
CONTINUOUS
  0
LAYER
  5
53
100
AcDbSymbolTableRecord
100
AcDbLayerTableRecord
  2
Outline
 70
0
  6
CONTINUOUS
  0
LAYER
  5
54
100
AcDbSymbolTableRecord
100
AcDbLayerTableRecord
  2
Tactile
 70
0
  6
CONTINUOUS
  0
LAYER
  5
55
100
AcDbSymbolTableRecord
100
AcDbLayerTableRecord
  2
Art1
 70
0
  6
CONTINUOUS
  0
LAYER
  5
56
100
AcDbSymbolTableRecord
100
AcDbLayerTableRecord
  2
Trous
 70
0
  6
CONTINUOUS
  0
LAYER
  5
57
100
AcDbSymbolTableRecord
100
AcDbLayerTableRecord
  2
Afficheur
 70
0
  6
CONTINUOUS
  0
LAYER
  5
58
100
AcDbSymbolTableRecord
100
AcDbLayerTableRecord
  2
Reperes
 70
0
  6
CONTINUOUS
  0
ENDTAB
  0
TABLE
  2
STYLE
  5
3
330
0
100
AcDbSymbolTable
 70
     1
  0
STYLE
  5
11
330
3
100
AcDbSymbolTableRecord
100
AcDbTextStyleTableRecord
  2
STANDARD
 70
     0
 40
0.0
 41
1.0
 50
0.0
 71
     0
 42
2.5
  3
txt
  4

  0
ENDTAB
  0
TABLE
  2
VIEW
  5
6
330
0
100
AcDbSymbolTable
 70
     0
  0
ENDTAB
  0
TABLE
  2
UCS
  5
7
330
0
100
AcDbSymbolTable
 70
     0
  0
ENDTAB
  0
TABLE
  2
APPID
  5
9
330
0
100
AcDbSymbolTable
 70
     2
  0
APPID
  5
12
330
9
100
AcDbSymbolTableRecord
100
AcDbRegAppTableRecord
  2
ACAD
 70
     0
  0
ENDTAB
  0
TABLE
  2
DIMSTYLE
  5
A
330
0
100
AcDbSymbolTable
 70
     1
  0
DIMSTYLE
105
27
330
A
100
AcDbSymbolTableRecord
100
AcDbDimStyleTableRecord
  2
ISO-25
 70
     0
  3

  4

  5

  6

  7

 40
1.0
 41
2.5
 42
0.625
 43
3.75
 44
1.25
 45
0.0
 46
0.0
 47
0.0
 48
0.0
140
2.5
141
2.5
142
0.0
143
0.03937007874016
144
1.0
145
0.0
146
1.0
147
0.625
 71
     0
 72
     0
 73
     0
 74
     0
 75
     0
 76
     0
 77
     1
 78
     8
170
     0
171
     3
172
     1
173
     0
174
     0
175
     0
176
     0
177
     0
178
     0
270
     2
271
     2
272
     2
273
     2
274
     3
340
11
275
     0
280
     0
281
     0
282
     0
283
     0
284
     8
285
     0
286
     0
287
     3
288
     0
  0
ENDTAB
  0
TABLE
  2
BLOCK_RECORD
  5
1
330
0
100
AcDbSymbolTable
 70
     1
  0
BLOCK_RECORD
  5
1F
330
1
100
AcDbSymbolTableRecord
100
AcDbBlockTableRecord
  2
*MODEL_SPACE
  0
BLOCK_RECORD
  5
1B
330
1
100
AcDbSymbolTableRecord
100
AcDbBlockTableRecord
  2
*PAPER_SPACE
  0
ENDTAB
  0
ENDSEC
  0
SECTION
  2
BLOCKS
  0
BLOCK
  5
20
330
1F
100
AcDbEntity
  8
0
100
AcDbBlockBegin
  2
*MODEL_SPACE
 70
     0
 10
0.0
 20
0.0
 30
0.0
  3
*MODEL_SPACE
  1

  0
ENDBLK
  5
21
330
1F
100
AcDbEntity
  8
0
100
AcDbBlockEnd
  0
BLOCK
  5
1C
330
1B
100
AcDbEntity
 67
     1
  8
0
100
AcDbBlockBegin
  2
*PAPER_SPACE
  1

  0
ENDBLK
  5
1D
330
1B
100
AcDbEntity
 67
     1
  8
0
100
AcDbBlockEnd
  0
ENDSEC
  0
SECTION
  2
ENTITIES
  0
SPLINE
  5
100
100
AcDbEntity
  8
Draft
 62
7
100
AcDbSpline
 70
8
 71
3
 72
8
 73
4
 74
0
 40
0
 40
0
 40
0
 40
0
 40
1
 40
1
 40
1
 40
1
 10
60.000000
 20
210.000001
 30
0.0
 10
60.000000
 20
210.000001
 30
0.0
 10
60.000001
 20
205.000001
 30
0.0
 10
65.000000
 20
205.000001
 30
0.0
  0
SPLINE
  5
101
100
AcDbEntity
  8
Draft
 62
7
100
AcDbSpline
 70
8
 71
3
 72
8
 73
4
 74
0
 40
0
 40
0
 40
0
 40
0
 40
1
 40
1
 40
1
 40
1
 10
65.000000
 20
205.000001
 30
0.0
 10
69.999999
 20
205.000001
 30
0.0
 10
85.000000
 20
210.000001
 30
0.0
 10
95.000000
 20
210.000001
 30
0.0
  0
SPLINE
  5
102
100
AcDbEntity
  8
Draft
 62
7
100
AcDbSpline
 70
8
 71
3
 72
8
 73
4
 74
0
 40
0
 40
0
 40
0
 40
0
 40
1
 40
1
 40
1
 40
1
 10
95.000000
 20
210.000001
 30
0.0
 10
105.000000
 20
210.000001
 30
0.0
 10
130.000000
 20
202.271791
 30
0.0
 10
135.000000
 20
202.271791
 30
0.0
  0
SPLINE
  5
103
100
AcDbEntity
  8
Draft
 62
7
100
AcDbSpline
 70
8
 71
3
 72
8
 73
4
 74
0
 40
0
 40
0
 40
0
 40
0
 40
1
 40
1
 40
1
 40
1
 10
135.000000
 20
202.271791
 30
0.0
 10
140.000000
 20
202.271791
 30
0.0
 10
140.000000
 20
205.000000
 30
0.0
 10
140.000000
 20
205.000000
 30
0.0
  0
SPLINE
  5
104
100
AcDbEntity
  8
Draft
 62
7
100
AcDbSpline
 70
8
 71
3
 72
8
 73
4
 74
0
 40
0
 40
0
 40
0
 40
0
 40
1
 40
1
 40
1
 40
1
 10
471.999766
 20
237.999863
 30
0.0
 10
466.476991
 20
237.999811
 30
0.0
 10
461.999910
 20
233.522729
 30
0.0
 10
461.999860
 20
227.999954
 30
0.0
  0
SPLINE
  5
105
100
AcDbEntity
  8
Draft
 62
7
100
AcDbSpline
 70
8
 71
3
 72
8
 73
4
 74
0
 40
0
 40
0
 40
0
 40
0
 40
1
 40
1
 40
1
 40
1
 10
461.999860
 20
227.999954
 30
0.0
 10
461.999911
 20
222.477180
 30
0.0
 10
466.476992
 20
218.000099
 30
0.0
 10
471.999766
 20
218.000047
 30
0.0
  0
SPLINE
  5
106
100
AcDbEntity
  8
Draft
 62
7
100
AcDbSpline
 70
8
 71
3
 72
8
 73
4
 74
0
 40
0
 40
0
 40
0
 40
0
 40
1
 40
1
 40
1
 40
1
 10
471.999766
 20
218.000047
 30
0.0
 10
474.651988
 20
217.999935
 30
0.0
 10
477.195621
 20
219.053441
 30
0.0
 10
479.071074
 20
220.928797
 30
0.0
  0
SPLINE
  5
107
100
AcDbEntity
  8
Draft
 62
7
100
AcDbSpline
 70
8
 71
3
 72
8
 73
4
 74
0
 40
0
 40
0
 40
0
 40
0
 40
1
 40
1
 40
1
 40
1
 10
479.071074
 20
220.928797
 30
0.0
 10
480.946526
 20
222.804153
 30
0.0
 10
482.000163
 20
225.347732
 30
0.0
 10
482.000188
 20
227.999954
 30
0.0
  0
SPLINE
  5
108
100
AcDbEntity
  8
Draft
 62
7
100
AcDbSpline
 70
8
 71
3
 72
8
 73
4
 74
0
 40
0
 40
0
 40
0
 40
0
 40
1
 40
1
 40
1
 40
1
 10
482.000188
 20
227.999954
 30
0.0
 10
482.000164
 20
230.652176
 30
0.0
 10
480.946527
 20
233.195756
 30
0.0
 10
479.071074
 20
235.071112
 30
0.0
  0
SPLINE
  5
109
100
AcDbEntity
  8
Draft
 62
7
100
AcDbSpline
 70
8
 71
3
 72
8
 73
4
 74
0
 40
0
 40
0
 40
0
 40
0
 40
1
 40
1
 40
1
 40
1
 10
479.071074
 20
235.071112
 30
0.0
 10
477.195622
 20
236.946468
 30
0.0
 10
474.651988
 20
237.999975
 30
0.0
 10
471.999766
 20
237.999863
 30
0.0
  0
LWPOLYLINE
  5
10a
100
AcDbEntity
  8
Draft
 62
7
100
AcDbPolyline
 90
4
 70
0
 10
140.000000
 20
205.000000
 30
0.0
 10
140.000000
 20
215.000000
 30
0.0
 10
60.000000
 20
215.000000
 30
0.0
 10
60.000000
 20
210.000001
 30
0.0
  0
SPLINE
  5
10b
100
AcDbEntity
  8
Draft
 62
7
100
AcDbSpline
 70
8
 71
3
 72
8
 73
4
 74
0
 40
0
 40
0
 40
0
 40
0
 40
1
 40
1
 40
1
 40
1
 10
471.999766
 20
233.000166
 30
0.0
 10
473.325922
 20
233.000222
 30
0.0
 10
474.597778
 20
232.473434
 30
0.0
 10
475.535512
 20
231.535700
 30
0.0
  0
SPLINE
  5
10c
100
AcDbEntity
  8
Draft
 62
7
100
AcDbSpline
 70
8
 71
3
 72
8
 73
4
 74
0
 40
0
 40
0
 40
0
 40
0
 40
1
 40
1
 40
1
 40
1
 10
475.535512
 20
231.535700
 30
0.0
 10
476.473246
 20
230.597966
 30
0.0
 10
477.000034
 20
229.326110
 30
0.0
 10
476.999978
 20
227.999954
 30
0.0
  0
SPLINE
  5
10d
100
AcDbEntity
  8
Draft
 62
7
100
AcDbSpline
 70
8
 71
3
 72
8
 73
4
 74
0
 40
0
 40
0
 40
0
 40
0
 40
1
 40
1
 40
1
 40
1
 10
476.999978
 20
227.999954
 30
0.0
 10
477.000034
 20
226.673798
 30
0.0
 10
476.473245
 20
225.401943
 30
0.0
 10
475.535511
 20
224.464209
 30
0.0
  0
SPLINE
  5
10e
100
AcDbEntity
  8
Draft
 62
7
100
AcDbSpline
 70
8
 71
3
 72
8
 73
4
 74
0
 40
0
 40
0
 40
0
 40
0
 40
1
 40
1
 40
1
 40
1
 10
475.535511
 20
224.464209
 30
0.0
 10
474.597777
 20
223.526476
 30
0.0
 10
473.325922
 20
222.999688
 30
0.0
 10
471.999766
 20
222.999744
 30
0.0
  0
SPLINE
  5
10f
100
AcDbEntity
  8
Draft
 62
7
100
AcDbSpline
 70
8
 71
3
 72
8
 73
4
 74
0
 40
0
 40
0
 40
0
 40
0
 40
1
 40
1
 40
1
 40
1
 10
471.999766
 20
222.999744
 30
0.0
 10
469.238379
 20
222.999912
 30
0.0
 10
466.999954
 20
225.238567
 30
0.0
 10
467.000070
 20
227.999954
 30
0.0
  0
SPLINE
  5
110
100
AcDbEntity
  8
Draft
 62
7
100
AcDbSpline
 70
8
 71
3
 72
8
 73
4
 74
0
 40
0
 40
0
 40
0
 40
0
 40
1
 40
1
 40
1
 40
1
 10
467.000070
 20
227.999954
 30
0.0
 10
466.999953
 20
230.761342
 30
0.0
 10
469.238378
 20
232.999998
 30
0.0
 10
471.999766
 20
233.000166
 30
0.0
  0
LWPOLYLINE
  5
111
100
AcDbEntity
  8
Draft
 62
7
100
AcDbPolyline
 90
1
 70
1
 10
471.999766
 20
237.999863
 30
0.0
  0
SPLINE
  5
112
100
AcDbEntity
  8
Draft
 62
7
100
AcDbSpline
 70
8
 71
3
 72
8
 73
4
 74
0
 40
0
 40
0
 40
0
 40
0
 40
1
 40
1
 40
1
 40
1
 10
511.999910
 20
243.000072
 30
0.0
 10
508.021621
 20
243.000104
 30
0.0
 10
504.206264
 20
241.419749
 30
0.0
 10
501.393189
 20
238.606674
 30
0.0
  0
SPLINE
  5
113
100
AcDbEntity
  8
Draft
 62
7
100
AcDbSpline
 70
8
 71
3
 72
8
 73
4
 74
0
 40
0
 40
0
 40
0
 40
0
 40
1
 40
1
 40
1
 40
1
 10
501.393189
 20
238.606674
 30
0.0
 10
498.580114
 20
235.793600
 30
0.0
 10
496.999759
 20
231.978243
 30
0.0
 10
496.999790
 20
227.999954
 30
0.0
  0
SPLINE
  5
114
100
AcDbEntity
  8
Draft
 62
7
100
AcDbSpline
 70
8
 71
3
 72
8
 73
4
 74
0
 40
0
 40
0
 40
0
 40
0
 40
1
 40
1
 40
1
 40
1
 10
496.999790
 20
227.999954
 30
0.0
 10
496.999758
 20
224.021665
 30
0.0
 10
498.580114
 20
220.206308
 30
0.0
 10
501.393189
 20
217.393233
 30
0.0
  0
SPLINE
  5
115
100
AcDbEntity
  8
Draft
 62
7
100
AcDbSpline
 70
8
 71
3
 72
8
 73
4
 74
0
 40
0
 40
0
 40
0
 40
0
 40
1
 40
1
 40
1
 40
1
 10
501.393189
 20
217.393233
 30
0.0
 10
504.206264
 20
214.580158
 30
0.0
 10
508.021621
 20
212.999803
 30
0.0
 10
511.999910
 20
212.999835
 30
0.0
  0
SPLINE
  5
116
100
AcDbEntity
  8
Draft
 62
7
100
AcDbSpline
 70
8
 71
3
 72
8
 73
4
 74
0
 40
0
 40
0
 40
0
 40
0
 40
1
 40
1
 40
1
 40
1
 10
511.999910
 20
212.999835
 30
0.0
 10
515.978199
 20
212.999803
 30
0.0
 10
519.793556
 20
214.580158
 30
0.0
 10
522.606631
 20
217.393233
 30
0.0
  0
SPLINE
  5
117
100
AcDbEntity
  8
Draft
 62
7
100
AcDbSpline
 70
8
 71
3
 72
8
 73
4
 74
0
 40
0
 40
0
 40
0
 40
0
 40
1
 40
1
 40
1
 40
1
 10
522.606631
 20
217.393233
 30
0.0
 10
525.419706
 20
220.206308
 30
0.0
 10
527.000062
 20
224.021665
 30
0.0
 10
527.000030
 20
227.999954
 30
0.0
  0
SPLINE
  5
118
100
AcDbEntity
  8
Draft
 62
7
100
AcDbSpline
 70
8
 71
3
 72
8
 73
4
 74
0
 40
0
 40
0
 40
0
 40
0
 40
1
 40
1
 40
1
 40
1
 10
527.000030
 20
227.999954
 30
0.0
 10
527.000061
 20
231.978243
 30
0.0
 10
525.419706
 20
235.793600
 30
0.0
 10
522.606631
 20
238.606674
 30
0.0
  0
SPLINE
  5
119
100
AcDbEntity
  8
Draft
 62
7
100
AcDbSpline
 70
8
 71
3
 72
8
 73
4
 74
0
 40
0
 40
0
 40
0
 40
0
 40
1
 40
1
 40
1
 40
1
 10
522.606631
 20
238.606674
 30
0.0
 10
519.793556
 20
241.419749
 30
0.0
 10
515.978199
 20
243.000104
 30
0.0
 10
511.999910
 20
243.000072
 30
0.0
  0
LWPOLYLINE
  5
11a
100
AcDbEntity
  8
Draft
 62
7
100
AcDbPolyline
 90
1
 70
1
 10
471.999766
 20
233.000166
 30
0.0
  0
SPLINE
  5
11b
100
AcDbEntity
  8
Draft
 62
7
100
AcDbSpline
 70
8
 71
3
 72
8
 73
4
 74
0
 40
0
 40
0
 40
0
 40
0
 40
1
 40
1
 40
1
 40
1
 10
511.999910
 20
233.000166
 30
0.0
 10
513.326066
 20
233.000222
 30
0.0
 10
514.597921
 20
232.473433
 30
0.0
 10
515.535655
 20
231.535699
 30
0.0
  0
SPLINE
  5
11c
100
AcDbEntity
  8
Draft
 62
7
100
AcDbSpline
 70
8
 71
3
 72
8
 73
4
 74
0
 40
0
 40
0
 40
0
 40
0
 40
1
 40
1
 40
1
 40
1
 10
515.535655
 20
231.535699
 30
0.0
 10
516.473388
 20
230.597965
 30
0.0
 10
517.000176
 20
229.326110
 30
0.0
 10
517.000120
 20
227.999954
 30
0.0
  0
SPLINE
  5
11d
100
AcDbEntity
  8
Draft
 62
7
100
AcDbSpline
 70
8
 71
3
 72
8
 73
4
 74
0
 40
0
 40
0
 40
0
 40
0
 40
1
 40
1
 40
1
 40
1
 10
517.000120
 20
227.999954
 30
0.0
 10
517.000176
 20
226.673799
 30
0.0
 10
516.473387
 20
225.401943
 30
0.0
 10
515.535654
 20
224.464210
 30
0.0
  0
SPLINE
  5
11e
100
AcDbEntity
  8
Draft
 62
7
100
AcDbSpline
 70
8
 71
3
 72
8
 73
4
 74
0
 40
0
 40
0
 40
0
 40
0
 40
1
 40
1
 40
1
 40
1
 10
515.535654
 20
224.464210
 30
0.0
 10
514.597921
 20
223.526477
 30
0.0
 10
513.326065
 20
222.999688
 30
0.0
 10
511.999910
 20
222.999744
 30
0.0
  0
SPLINE
  5
11f
100
AcDbEntity
  8
Draft
 62
7
100
AcDbSpline
 70
8
 71
3
 72
8
 73
4
 74
0
 40
0
 40
0
 40
0
 40
0
 40
1
 40
1
 40
1
 40
1
 10
511.999910
 20
222.999744
 30
0.0
 10
509.238521
 20
222.999910
 30
0.0
 10
507.000094
 20
225.238565
 30
0.0
 10
507.000210
 20
227.999954
 30
0.0
  0
SPLINE
  5
120
100
AcDbEntity
  8
Draft
 62
7
100
AcDbSpline
 70
8
 71
3
 72
8
 73
4
 74
0
 40
0
 40
0
 40
0
 40
0
 40
1
 40
1
 40
1
 40
1
 10
507.000210
 20
227.999954
 30
0.0
 10
507.000093
 20
230.761343
 30
0.0
 10
509.238521
 20
233.000000
 30
0.0
 10
511.999910
 20
233.000166
 30
0.0
  0
LWPOLYLINE
  5
121
100
AcDbEntity
  8
Draft
 62
7
100
AcDbPolyline
 90
1
 70
1
 10
511.999910
 20
243.000072
 30
0.0
  0
LWPOLYLINE
  5
122
100
AcDbEntity
  8
Draft
 62
7
100
AcDbPolyline
 90
1
 70
1
 10
511.999910
 20
233.000166
 30
0.0
  0
LWPOLYLINE
  5
123
100
AcDbEntity
  8
Draft
 62
7
100
AcDbPolyline
 90
4
 70
1
 10
456.999998
 20
247.999625
 30
0.0
 10
456.999998
 20
207.999999
 30
0.0
 10
531.999560
 20
207.999999
 30
0.0
 10
531.999560
 20
247.999625
 30
0.0
  0
SPLINE
  5
124
100
AcDbEntity
  8
Draft
 62
7
100
AcDbSpline
 70
8
 71
3
 72
8
 73
4
 74
0
 40
0
 40
0
 40
0
 40
0
 40
1
 40
1
 40
1
 40
1
 10
511.999740
 20
237.999719
 30
0.0
 10
517.999740
 20
237.999719
 30
0.0
 10
521.999650
 20
232.999811
 30
0.0
 10
521.999650
 20
227.999811
 30
0.0
  0
SPLINE
  5
125
100
AcDbEntity
  8
Draft
 62
7
100
AcDbSpline
 70
8
 71
3
 72
8
 73
4
 74
0
 40
0
 40
0
 40
0
 40
0
 40
1
 40
1
 40
1
 40
1
 10
521.999650
 20
227.999811
 30
0.0
 10
521.999650
 20
222.999813
 30
0.0
 10
517.999740
 20
217.999905
 30
0.0
 10
511.999740
 20
217.999905
 30
0.0
  0
SPLINE
  5
126
100
AcDbEntity
  8
Draft
 62
7
100
AcDbSpline
 70
8
 71
3
 72
8
 73
4
 74
0
 40
0
 40
0
 40
0
 40
0
 40
1
 40
1
 40
1
 40
1
 10
511.999740
 20
217.999905
 30
0.0
 10
505.999740
 20
217.999905
 30
0.0
 10
477.999598
 20
217.999907
 30
0.0
 10
471.999598
 20
217.999905
 30
0.0
  0
SPLINE
  5
127
100
AcDbEntity
  8
Draft
 62
7
100
AcDbSpline
 70
8
 71
3
 72
8
 73
4
 74
0
 40
0
 40
0
 40
0
 40
0
 40
1
 40
1
 40
1
 40
1
 10
471.999598
 20
217.999905
 30
0.0
 10
465.999598
 20
217.999902
 30
0.0
 10
461.999698
 20
222.999813
 30
0.0
 10
461.999698
 20
227.999811
 30
0.0
  0
SPLINE
  5
128
100
AcDbEntity
  8
Draft
 62
7
100
AcDbSpline
 70
8
 71
3
 72
8
 73
4
 74
0
 40
0
 40
0
 40
0
 40
0
 40
1
 40
1
 40
1
 40
1
 10
461.999698
 20
227.999811
 30
0.0
 10
461.999698
 20
232.999811
 30
0.0
 10
465.999598
 20
237.999716
 30
0.0
 10
471.999598
 20
237.999719
 30
0.0
  0
LWPOLYLINE
  5
129
100
AcDbEntity
  8
Draft
 62
7
100
AcDbPolyline
 90
2
 70
0
 10
471.999598
 20
237.999719
 30
0.0
 10
511.999740
 20
237.999719
 30
0.0
  0
LWPOLYLINE
  5
12a
100
AcDbEntity
  8
Draft
 62
7
100
AcDbPolyline
 90
1
 70
1
 10
471.999598
 20
237.999719
 30
0.0
  0
SPLINE
  5
12b
100
AcDbEntity
  8
Draft
 62
7
100
AcDbSpline
 70
8
 71
3
 72
8
 73
4
 74
0
 40
0
 40
0
 40
0
 40
0
 40
1
 40
1
 40
1
 40
1
 10
512.000000
 20
237.999998
 30
0.0
 10
518.000000
 20
237.999999
 30
0.0
 10
522.000000
 20
232.999997
 30
0.0
 10
522.000000
 20
227.999997
 30
0.0
  0
SPLINE
  5
12c
100
AcDbEntity
  8
Draft
 62
7
100
AcDbSpline
 70
8
 71
3
 72
8
 73
4
 74
0
 40
0
 40
0
 40
0
 40
0
 40
1
 40
1
 40
1
 40
1
 10
522.000000
 20
227.999997
 30
0.0
 10
522.000000
 20
222.999997
 30
0.0
 10
518.000000
 20
218.000000
 30
0.0
 10
512.000000
 20
218.000000
 30
0.0
  0
SPLINE
  5
12d
100
AcDbEntity
  8
Draft
 62
7
100
AcDbSpline
 70
8
 71
3
 72
8
 73
4
 74
0
 40
0
 40
0
 40
0
 40
0
 40
1
 40
1
 40
1
 40
1
 10
512.000000
 20
218.000000
 30
0.0
 10
506.000000
 20
218.000000
 30
0.0
 10
477.999997
 20
218.000000
 30
0.0
 10
471.999998
 20
218.000000
 30
0.0
  0
SPLINE
  5
12e
100
AcDbEntity
  8
Draft
 62
7
100
AcDbSpline
 70
8
 71
3
 72
8
 73
4
 74
0
 40
0
 40
0
 40
0
 40
0
 40
1
 40
1
 40
1
 40
1
 10
471.999998
 20
218.000000
 30
0.0
 10
465.999999
 20
217.999997
 30
0.0
 10
461.999999
 20
222.999997
 30
0.0
 10
461.999999
 20
227.999997
 30
0.0
  0
SPLINE
  5
12f
100
AcDbEntity
  8
Draft
 62
7
100
AcDbSpline
 70
8
 71
3
 72
8
 73
4
 74
0
 40
0
 40
0
 40
0
 40
0
 40
1
 40
1
 40
1
 40
1
 10
461.999999
 20
227.999997
 30
0.0
 10
461.999999
 20
232.999997
 30
0.0
 10
465.999999
 20
237.999997
 30
0.0
 10
471.999998
 20
237.999998
 30
0.0
  0
LWPOLYLINE
  5
130
100
AcDbEntity
  8
Draft
 62
7
100
AcDbPolyline
 90
2
 70
0
 10
471.999998
 20
237.999998
 30
0.0
 10
512.000000
 20
237.999998
 30
0.0
  0
LWPOLYLINE
  5
131
100
AcDbEntity
  8
Draft
 62
7
100
AcDbPolyline
 90
1
 70
1
 10
471.999998
 20
237.999998
 30
0.0
  0
LWPOLYLINE
  5
132
100
AcDbEntity
  8
Draft
 62
7
100
AcDbPolyline
 90
2
 70
0
 10
471.999998
 20
224.000000
 30
0.0
 10
471.999996
 20
223.000002
 30
0.0
  0
LWPOLYLINE
  5
133
100
AcDbEntity
  8
Draft
 62
7
100
AcDbPolyline
 90
2
 70
0
 10
471.999998
 20
233.000001
 30
0.0
 10
471.999996
 20
232.000003
 30
0.0
  0
LWPOLYLINE
  5
134
100
AcDbEntity
  8
Draft
 62
7
100
AcDbPolyline
 90
2
 70
0
 10
466.999998
 20
228.000002
 30
0.0
 10
467.999996
 20
228.000000
 30
0.0
  0
LWPOLYLINE
  5
135
100
AcDbEntity
  8
Draft
 62
7
100
AcDbPolyline
 90
2
 70
0
 10
475.999999
 20
228.000002
 30
0.0
 10
476.999997
 20
228.000000
 30
0.0
  0
LWPOLYLINE
  5
136
100
AcDbEntity
  8
Draft
 62
7
100
AcDbPolyline
 90
2
 70
0
 10
470.000000
 20
224.535900
 30
0.0
 10
469.500000
 20
223.669877
 30
0.0
  0
LWPOLYLINE
  5
137
100
AcDbEntity
  8
Draft
 62
7
100
AcDbPolyline
 90
2
 70
0
 10
474.500001
 20
232.330130
 30
0.0
 10
474.000000
 20
231.464107
 30
0.0
  0
LWPOLYLINE
  5
138
100
AcDbEntity
  8
Draft
 62
7
100
AcDbPolyline
 90
2
 70
0
 10
467.669874
 20
230.500003
 30
0.0
 10
468.535897
 20
230.000003
 30
0.0
  0
LWPOLYLINE
  5
139
100
AcDbEntity
  8
Draft
 62
7
100
AcDbPolyline
 90
2
 70
0
 10
475.464104
 20
226.000003
 30
0.0
 10
476.330126
 20
225.500002
 30
0.0
  0
LWPOLYLINE
  5
13a
100
AcDbEntity
  8
Draft
 62
7
100
AcDbPolyline
 90
2
 70
0
 10
468.535892
 20
225.999996
 30
0.0
 10
467.669867
 20
225.499999
 30
0.0
  0
LWPOLYLINE
  5
13b
100
AcDbEntity
  8
Draft
 62
7
100
AcDbPolyline
 90
2
 70
0
 10
476.330122
 20
230.499997
 30
0.0
 10
475.464097
 20
229.999999
 30
0.0
  0
LWPOLYLINE
  5
13c
100
AcDbEntity
  8
Draft
 62
7
100
AcDbPolyline
 90
2
 70
0
 10
469.499995
 20
232.330124
 30
0.0
 10
469.999993
 20
231.464099
 30
0.0
  0
LWPOLYLINE
  5
13d
100
AcDbEntity
  8
Draft
 62
7
100
AcDbPolyline
 90
2
 70
0
 10
473.999996
 20
224.535895
 30
0.0
 10
474.499993
 20
223.669870
 30
0.0
  0
LWPOLYLINE
  5
13e
100
AcDbEntity
  8
Draft
 62
7
100
AcDbPolyline
 90
2
 70
0
 10
511.999999
 20
224.000000
 30
0.0
 10
511.999997
 20
223.000002
 30
0.0
  0
LWPOLYLINE
  5
13f
100
AcDbEntity
  8
Draft
 62
7
100
AcDbPolyline
 90
2
 70
0
 10
511.999999
 20
233.000001
 30
0.0
 10
511.999997
 20
232.000003
 30
0.0
  0
LWPOLYLINE
  5
140
100
AcDbEntity
  8
Draft
 62
7
100
AcDbPolyline
 90
2
 70
0
 10
506.999999
 20
228.000002
 30
0.0
 10
507.999997
 20
228.000000
 30
0.0
  0
LWPOLYLINE
  5
141
100
AcDbEntity
  8
Draft
 62
7
100
AcDbPolyline
 90
2
 70
0
 10
516.000000
 20
228.000002
 30
0.0
 10
516.999998
 20
228.000000
 30
0.0
  0
LWPOLYLINE
  5
142
100
AcDbEntity
  8
Draft
 62
7
100
AcDbPolyline
 90
2
 70
0
 10
510.000002
 20
224.535900
 30
0.0
 10
509.500001
 20
223.669877
 30
0.0
  0
LWPOLYLINE
  5
143
100
AcDbEntity
  8
Draft
 62
7
100
AcDbPolyline
 90
2
 70
0
 10
514.500002
 20
232.330129
 30
0.0
 10
514.000001
 20
231.464107
 30
0.0
  0
LWPOLYLINE
  5
144
100
AcDbEntity
  8
Draft
 62
7
100
AcDbPolyline
 90
2
 70
0
 10
507.669876
 20
230.500003
 30
0.0
 10
508.535898
 20
230.000002
 30
0.0
  0
LWPOLYLINE
  5
145
100
AcDbEntity
  8
Draft
 62
7
100
AcDbPolyline
 90
2
 70
0
 10
515.464105
 20
226.000003
 30
0.0
 10
516.330128
 20
225.500002
 30
0.0
  0
LWPOLYLINE
  5
146
100
AcDbEntity
  8
Draft
 62
7
100
AcDbPolyline
 90
2
 70
0
 10
508.535892
 20
225.999984
 30
0.0
 10
507.669868
 20
225.499987
 30
0.0
  0
LWPOLYLINE
  5
147
100
AcDbEntity
  8
Draft
 62
7
100
AcDbPolyline
 90
2
 70
0
 10
516.330122
 20
230.499985
 30
0.0
 10
515.464097
 20
229.999988
 30
0.0
  0
LWPOLYLINE
  5
148
100
AcDbEntity
  8
Draft
 62
7
100
AcDbPolyline
 90
2
 70
0
 10
509.499996
 20
232.330112
 30
0.0
 10
509.999993
 20
231.464088
 30
0.0
  0
LWPOLYLINE
  5
149
100
AcDbEntity
  8
Draft
 62
7
100
AcDbPolyline
 90
2
 70
0
 10
513.999996
 20
224.535883
 30
0.0
 10
514.499993
 20
223.669858
 30
0.0
  0
LWPOLYLINE
  5
14a
100
AcDbEntity
  8
Draft
 62
7
100
AcDbPolyline
 90
2
 70
0
 10
486.999996
 20
230.000000
 30
0.0
 10
486.999996
 20
226.000000
 30
0.0
  0
LWPOLYLINE
  5
14b
100
AcDbEntity
  8
Draft
 62
7
100
AcDbPolyline
 90
2
 70
0
 10
488.999997
 20
230.000000
 30
0.0
 10
488.999997
 20
226.000000
 30
0.0
  0
LWPOLYLINE
  5
14c
100
AcDbEntity
  8
Draft
 62
7
100
AcDbPolyline
 90
2
 70
0
 10
491.000000
 20
230.000000
 30
0.0
 10
491.000000
 20
226.000000
 30
0.0
  0
LWPOLYLINE
  5
14d
100
AcDbEntity
  8
Draft
 62
7
100
AcDbPolyline
 90
2
 70
0
 10
493.000000
 20
230.000000
 30
0.0
 10
493.000000
 20
226.000000
 30
0.0
  0
LWPOLYLINE
  5
14e
100
AcDbEntity
  8
Draft
 62
7
100
AcDbPolyline
 90
2
 70
0
 10
495.000000
 20
230.000000
 30
0.0
 10
495.000000
 20
226.000000
 30
0.0
  0
SPLINE
  5
14f
100
AcDbEntity
  8
Draft
 62
7
100
AcDbSpline
 70
8
 71
3
 72
8
 73
4
 74
0
 40
0
 40
0
 40
0
 40
0
 40
1
 40
1
 40
1
 40
1
 10
246.038110
 20
150.187000
 30
0.0
 10
242.932920
 20
151.245780
 30
0.0
 10
240.618590
 20
153.987590
 30
0.0
 10
240.176400
 20
157.131430
 30
0.0
  0
SPLINE
  5
150
100
AcDbEntity
  8
Draft
 62
7
100
AcDbSpline
 70
8
 71
3
 72
8
 73
4
 74
0
 40
0
 40
0
 40
0
 40
0
 40
1
 40
1
 40
1
 40
1
 10
240.176400
 20
157.131430
 30
0.0
 10
240.082900
 20
157.796110
 30
0.0
 10
240.004890
 20
162.088450
 30
0.0
 10
240.003000
 20
166.669970
 30
0.0
  0
LWPOLYLINE
  5
151
100
AcDbEntity
  8
Draft
 62
7
100
AcDbPolyline
 90
2
 70
0
 10
497.000000
 20
230.000000
 30
0.0
 10
497.000000
 20
226.000000
 30
0.0
  0
SPLINE
  5
152
100
AcDbEntity
  8
Draft
 62
7
100
AcDbSpline
 70
8
 71
3
 72
8
 73
4
 74
0
 40
0
 40
0
 40
0
 40
0
 40
1
 40
1
 40
1
 40
1
 10
245.524590
 20
166.272950
 30
0.0
 10
245.524590
 20
156.964360
 30
0.0
 10
245.514190
 20
157.090260
 30
0.0
 10
246.365460
 20
156.120360
 30
0.0
  0
SPLINE
  5
153
100
AcDbEntity
  8
Draft
 62
7
100
AcDbSpline
 70
8
 71
3
 72
8
 73
4
 74
0
 40
0
 40
0
 40
0
 40
0
 40
1
 40
1
 40
1
 40
1
 10
246.365460
 20
156.120360
 30
0.0
 10
247.240290
 20
155.123650
 30
0.0
 10
249.310690
 20
154.820000
 30
0.0
 10
250.360200
 20
155.534480
 30
0.0
  0
SPLINE
  5
154
100
AcDbEntity
  8
Draft
 62
7
100
AcDbSpline
 70
8
 71
3
 72
8
 73
4
 74
0
 40
0
 40
0
 40
0
 40
0
 40
1
 40
1
 40
1
 40
1
 10
250.360200
 20
155.534480
 30
0.0
 10
250.674030
 20
155.748130
 30
0.0
 10
251.171070
 20
156.221400
 30
0.0
 10
251.464750
 20
156.586200
 30
0.0
  0
LWPOLYLINE
  5
155
100
AcDbEntity
  8
Draft
 62
7
100
AcDbPolyline
 90
5
 70
0
 10
240.003000
 20
166.669970
 30
0.0
 10
240.000000
 20
175.000000
 30
0.0
 10
242.762300
 20
175.000000
 30
0.0
 10
245.524590
 20
175.000000
 30
0.0
 10
245.524590
 20
166.272950
 30
0.0
  0
SPLINE
  5
156
100
AcDbEntity
  8
Draft
 62
7
100
AcDbSpline
 70
8
 71
3
 72
8
 73
4
 74
0
 40
0
 40
0
 40
0
 40
0
 40
1
 40
1
 40
1
 40
1
 10
257.300050
 20
166.238360
 30
0.0
 10
257.357350
 20
156.318350
 30
0.0
 10
257.279350
 20
156.866860
 30
0.0
 10
258.796550
 20
155.709650
 30
0.0
  0
SPLINE
  5
157
100
AcDbEntity
  8
Draft
 62
7
100
AcDbSpline
 70
8
 71
3
 72
8
 73
4
 74
0
 40
0
 40
0
 40
0
 40
0
 40
1
 40
1
 40
1
 40
1
 10
258.796550
 20
155.709650
 30
0.0
 10
259.440280
 20
155.218670
 30
0.0
 10
259.668370
 20
155.146030
 30
0.0
 10
260.566520
 20
155.146030
 30
0.0
  0
SPLINE
  5
158
100
AcDbEntity
  8
Draft
 62
7
100
AcDbSpline
 70
8
 71
3
 72
8
 73
4
 74
0
 40
0
 40
0
 40
0
 40
0
 40
1
 40
1
 40
1
 40
1
 10
260.566520
 20
155.146030
 30
0.0
 10
261.133570
 20
155.146030
 30
0.0
 10
261.815210
 20
155.258600
 30
0.0
 10
262.081260
 20
155.396180
 30
0.0
  0
SPLINE
  5
159
100
AcDbEntity
  8
Draft
 62
7
100
AcDbSpline
 70
8
 71
3
 72
8
 73
4
 74
0
 40
0
 40
0
 40
0
 40
0
 40
1
 40
1
 40
1
 40
1
 10
262.081260
 20
155.396180
 30
0.0
 10
262.784370
 20
155.759770
 30
0.0
 10
263.605780
 20
156.764070
 30
0.0
 10
263.814360
 20
157.515160
 30
0.0
  0
SPLINE
  5
15a
100
AcDbEntity
  8
Draft
 62
7
100
AcDbSpline
 70
8
 71
3
 72
8
 73
4
 74
0
 40
0
 40
0
 40
0
 40
0
 40
1
 40
1
 40
1
 40
1
 10
263.814360
 20
157.515160
 30
0.0
 10
263.929270
 20
157.928940
 30
0.0
 10
263.995810
 20
161.243370
 30
0.0
 10
263.996420
 20
166.583640
 30
0.0
  0
LWPOLYLINE
  5
15b
100
AcDbEntity
  8
Draft
 62
7
100
AcDbPolyline
 90
7
 70
0
 10
251.464750
 20
156.586200
 30
0.0
 10
251.998710
 20
157.249480
 30
0.0
 10
252.047810
 20
166.124740
 30
0.0
 10
252.096910
 20
175.000000
 30
0.0
 10
254.673180
 20
175.000000
 30
0.0
 10
257.249450
 20
175.000000
 30
0.0
 10
257.300050
 20
166.238360
 30
0.0
  0
SPLINE
  5
15c
100
AcDbEntity
  8
Draft
 62
7
100
AcDbSpline
 70
8
 71
3
 72
8
 73
4
 74
0
 40
0
 40
0
 40
0
 40
0
 40
1
 40
1
 40
1
 40
1
 10
269.176680
 20
166.058830
 30
0.0
 10
269.176680
 20
158.582780
 30
0.0
 10
269.133280
 20
156.951160
 30
0.0
 10
268.912040
 20
156.101610
 30
0.0
  0
SPLINE
  5
15d
100
AcDbEntity
  8
Draft
 62
7
100
AcDbSpline
 70
8
 71
3
 72
8
 73
4
 74
0
 40
0
 40
0
 40
0
 40
0
 40
1
 40
1
 40
1
 40
1
 10
268.912040
 20
156.101610
 30
0.0
 10
267.947350
 20
152.397920
 30
0.0
 10
264.569830
 20
149.794090
 30
0.0
 10
260.730320
 20
149.794090
 30
0.0
  0
SPLINE
  5
15e
100
AcDbEntity
  8
Draft
 62
7
100
AcDbSpline
 70
8
 71
3
 72
8
 73
4
 74
0
 40
0
 40
0
 40
0
 40
0
 40
1
 40
1
 40
1
 40
1
 10
260.730320
 20
149.794090
 30
0.0
 10
258.696290
 20
149.794090
 30
0.0
 10
257.178150
 20
150.336260
 30
0.0
 10
255.589050
 20
151.630160
 30
0.0
  0
LWPOLYLINE
  5
15f
100
AcDbEntity
  8
Draft
 62
7
100
AcDbPolyline
 90
5
 70
0
 10
263.996420
 20
166.583640
 30
0.0
 10
263.997390
 20
175.000000
 30
0.0
 10
266.587030
 20
175.000000
 30
0.0
 10
269.176680
 20
175.000000
 30
0.0
 10
269.176680
 20
166.058830
 30
0.0
  0
SPLINE
  5
160
100
AcDbEntity
  8
Draft
 62
7
100
AcDbSpline
 70
8
 71
3
 72
8
 73
4
 74
0
 40
0
 40
0
 40
0
 40
0
 40
1
 40
1
 40
1
 40
1
 10
254.052410
 20
151.602070
 30
0.0
 10
252.360100
 20
150.310300
 30
0.0
 10
250.805930
 20
149.792040
 30
0.0
 10
248.643970
 20
149.798550
 30
0.0
  0
SPLINE
  5
161
100
AcDbEntity
  8
Draft
 62
7
100
AcDbSpline
 70
8
 71
3
 72
8
 73
4
 74
0
 40
0
 40
0
 40
0
 40
0
 40
1
 40
1
 40
1
 40
1
 10
248.643970
 20
149.798550
 30
0.0
 10
247.576960
 20
149.801550
 30
0.0
 10
246.850810
 20
149.910030
 30
0.0
 10
246.038510
 20
150.187000
 30
0.0
  0
LWPOLYLINE
  5
162
100
AcDbEntity
  8
Draft
 62
7
100
AcDbPolyline
 90
3
 70
0
 10
255.589050
 20
151.630160
 30
0.0
 10
254.863350
 20
152.221070
 30
0.0
 10
254.052410
 20
151.602070
 30
0.0
  0
SPLINE
  5
163
100
AcDbEntity
  8
Draft
 62
7
100
AcDbSpline
 70
8
 71
3
 72
8
 73
4
 74
0
 40
0
 40
0
 40
0
 40
0
 40
1
 40
1
 40
1
 40
1
 10
271.423640
 20
158.210450
 30
0.0
 10
271.426640
 20
167.335350
 30
0.0
 10
271.473340
 20
167.791710
 30
0.0
 10
272.629480
 20
170.089420
 30
0.0
  0
SPLINE
  5
164
100
AcDbEntity
  8
Draft
 62
7
100
AcDbSpline
 70
8
 71
3
 72
8
 73
4
 74
0
 40
0
 40
0
 40
0
 40
0
 40
1
 40
1
 40
1
 40
1
 10
272.629480
 20
170.089420
 30
0.0
 10
274.230670
 20
173.271650
 30
0.0
 10
277.878970
 20
175.527990
 30
0.0
 10
281.402070
 20
175.514930
 30
0.0
  0
SPLINE
  5
165
100
AcDbEntity
  8
Draft
 62
7
100
AcDbSpline
 70
8
 71
3
 72
8
 73
4
 74
0
 40
0
 40
0
 40
0
 40
0
 40
1
 40
1
 40
1
 40
1
 10
281.402070
 20
175.514930
 30
0.0
 10
285.041700
 20
175.501430
 30
0.0
 10
288.640420
 20
173.229520
 30
0.0
 10
290.232590
 20
169.940100
 30
0.0
  0
SPLINE
  5
166
100
AcDbEntity
  8
Draft
 62
7
100
AcDbSpline
 70
8
 71
3
 72
8
 73
4
 74
0
 40
0
 40
0
 40
0
 40
0
 40
1
 40
1
 40
1
 40
1
 10
290.232590
 20
169.940100
 30
0.0
 10
290.613400
 20
169.153360
 30
0.0
 10
291.003630
 20
168.094840
 30
0.0
 10
291.099790
 20
167.587830
 30
0.0
  0
SPLINE
  5
167
100
AcDbEntity
  8
Draft
 62
7
100
AcDbSpline
 70
8
 71
3
 72
8
 73
4
 74
0
 40
0
 40
0
 40
0
 40
0
 40
1
 40
1
 40
1
 40
1
 10
291.099790
 20
167.587830
 30
0.0
 10
291.202510
 20
167.046160
 30
0.0
 10
291.274610
 20
163.258240
 30
0.0
 10
291.274610
 20
158.402690
 30
0.0
  0
LWPOLYLINE
  5
168
100
AcDbEntity
  8
Draft
 62
7
100
AcDbPolyline
 90
2
 70
0
 10
246.038510
 20
150.187000
 30
0.0
 10
246.038110
 20
150.187000
 30
0.0
  0
SPLINE
  5
169
100
AcDbEntity
  8
Draft
 62
7
100
AcDbSpline
 70
8
 71
3
 72
8
 73
4
 74
0
 40
0
 40
0
 40
0
 40
0
 40
1
 40
1
 40
1
 40
1
 10
285.885730
 20
158.555740
 30
0.0
 10
285.831130
 20
167.858020
 30
0.0
 10
285.893730
 20
167.328590
 30
0.0
 10
284.684110
 20
168.706360
 30
0.0
  0
SPLINE
  5
16a
100
AcDbEntity
  8
Draft
 62
7
100
AcDbSpline
 70
8
 71
3
 72
8
 73
4
 74
0
 40
0
 40
0
 40
0
 40
0
 40
1
 40
1
 40
1
 40
1
 10
284.684110
 20
168.706360
 30
0.0
 10
282.642090
 20
171.032100
 30
0.0
 10
278.741140
 20
170.460060
 30
0.0
 10
277.352080
 20
167.631190
 30
0.0
  0
LWPOLYLINE
  5
16b
100
AcDbEntity
  8
Draft
 62
7
100
AcDbPolyline
 90
5
 70
0
 10
291.274610
 20
158.402690
 30
0.0
 10
291.274610
 20
150.139380
 30
0.0
 10
288.604870
 20
150.139380
 30
0.0
 10
285.935130
 20
150.139380
 30
0.0
 10
285.885730
 20
158.555740
 30
0.0
  0
SPLINE
  5
16c
100
AcDbEntity
  8
Draft
 62
7
100
AcDbSpline
 70
8
 71
3
 72
8
 73
4
 74
0
 40
0
 40
0
 40
0
 40
0
 40
1
 40
1
 40
1
 40
1
 10
298.423260
 20
150.317310
 30
0.0
 10
296.553310
 20
150.688050
 30
0.0
 10
294.876980
 20
152.001440
 30
0.0
 10
294.066280
 20
153.730960
 30
0.0
  0
LWPOLYLINE
  5
16d
100
AcDbEntity
  8
Draft
 62
7
100
AcDbPolyline
 90
8
 70
0
 10
277.352080
 20
167.631190
 30
0.0
 10
276.858890
 20
166.626810
 30
0.0
 10
276.807890
 20
158.383090
 30
0.0
 10
276.756890
 20
150.139380
 30
0.0
 10
274.088740
 20
150.139380
 30
0.0
 10
271.420580
 20
150.139380
 30
0.0
 10
271.423580
 20
158.210450
 30
0.0
 10
271.423640
 20
158.210450
 30
0.0
  0
SPLINE
  5
16e
100
AcDbEntity
  8
Draft
 62
7
100
AcDbSpline
 70
8
 71
3
 72
8
 73
4
 74
0
 40
0
 40
0
 40
0
 40
0
 40
1
 40
1
 40
1
 40
1
 10
298.870910
 20
165.607850
 30
0.0
 10
298.870910
 20
157.134530
 30
0.0
 10
298.902110
 20
156.002810
 30
0.0
 10
299.142210
 20
155.762700
 30
0.0
  0
SPLINE
  5
16f
100
AcDbEntity
  8
Draft
 62
7
100
AcDbSpline
 70
8
 71
3
 72
8
 73
4
 74
0
 40
0
 40
0
 40
0
 40
0
 40
1
 40
1
 40
1
 40
1
 10
299.142210
 20
155.762700
 30
0.0
 10
299.374030
 20
155.530870
 30
0.0
 10
300.027090
 20
155.491400
 30
0.0
 10
303.630930
 20
155.491400
 30
0.0
  0
LWPOLYLINE
  5
170
100
AcDbEntity
  8
Draft
 62
7
100
AcDbPolyline
 90
7
 70
0
 10
294.066280
 20
153.730960
 30
0.0
 10
293.605290
 20
154.714430
 30
0.0
 10
293.605290
 20
164.900370
 30
0.0
 10
293.605290
 20
175.086320
 30
0.0
 10
296.238100
 20
175.134020
 30
0.0
 10
298.870910
 20
175.181720
 30
0.0
 10
298.870910
 20
165.607850
 30
0.0
  0
SPLINE
  5
171
100
AcDbEntity
  8
Draft
 62
7
100
AcDbSpline
 70
8
 71
3
 72
8
 73
4
 74
0
 40
0
 40
0
 40
0
 40
0
 40
1
 40
1
 40
1
 40
1
 10
303.489110
 20
150.158360
 30
0.0
 10
301.091530
 20
150.168760
 30
0.0
 10
298.811900
 20
150.240360
 30
0.0
 10
298.423260
 20
150.317370
 30
0.0
  0
LWPOLYLINE
  5
172
100
AcDbEntity
  8
Draft
 62
7
100
AcDbPolyline
 90
5
 70
0
 10
303.630930
 20
155.491400
 30
0.0
 10
307.848350
 20
155.491400
 30
0.0
 10
307.848350
 20
152.815430
 30
0.0
 10
307.848350
 20
150.139460
 30
0.0
 10
303.489110
 20
150.158360
 30
0.0
  0
SPLINE
  5
173
100
AcDbEntity
  8
Draft
 62
7
100
AcDbSpline
 70
8
 71
3
 72
8
 73
4
 74
0
 40
0
 40
0
 40
0
 40
0
 40
1
 40
1
 40
1
 40
1
 10
309.348910
 20
150.250210
 30
0.0
 10
309.283210
 20
150.315910
 30
0.0
 10
309.229500
 20
155.950310
 30
0.0
 10
309.229500
 20
162.771160
 30
0.0
  0
LWPOLYLINE
  5
174
100
AcDbEntity
  8
Draft
 62
7
100
AcDbPolyline
 90
1
 70
1
 10
298.423260
 20
150.317370
 30
0.0
  0
SPLINE
  5
175
100
AcDbEntity
  8
Draft
 62
7
100
AcDbSpline
 70
8
 71
3
 72
8
 73
4
 74
0
 40
0
 40
0
 40
0
 40
0
 40
1
 40
1
 40
1
 40
1
 10
315.962600
 20
165.534800
 30
0.0
 10
318.029400
 20
165.445100
 30
0.0
 10
318.950730
 20
165.726080
 30
0.0
 10
320.024850
 20
166.773490
 30
0.0
  0
SPLINE
  5
176
100
AcDbEntity
  8
Draft
 62
7
100
AcDbSpline
 70
8
 71
3
 72
8
 73
4
 74
0
 40
0
 40
0
 40
0
 40
0
 40
1
 40
1
 40
1
 40
1
 10
320.024850
 20
166.773490
 30
0.0
 10
321.297960
 20
168.014930
 30
0.0
 10
321.487180
 20
168.737830
 30
0.0
 10
321.487180
 20
172.360140
 30
0.0
  0
LWPOLYLINE
  5
177
100
AcDbEntity
  8
Draft
 62
7
100
AcDbPolyline
 90
7
 70
0
 10
309.229500
 20
162.771160
 30
0.0
 10
309.229500
 20
175.172690
 30
0.0
 10
311.902740
 20
175.172690
 30
0.0
 10
314.575980
 20
175.172690
 30
0.0
 10
314.621880
 20
170.381840
 30
0.0
 10
314.667780
 20
165.591000
 30
0.0
 10
315.962600
 20
165.534800
 30
0.0
  0
SPLINE
  5
178
100
AcDbEntity
  8
Draft
 62
7
100
AcDbSpline
 70
8
 71
3
 72
8
 73
4
 74
0
 40
0
 40
0
 40
0
 40
0
 40
1
 40
1
 40
1
 40
1
 10
326.407520
 20
172.065100
 30
0.0
 10
326.407520
 20
169.426810
 30
0.0
 10
326.359020
 20
168.889740
 30
0.0
 10
326.025030
 20
167.828170
 30
0.0
  0
SPLINE
  5
179
100
AcDbEntity
  8
Draft
 62
7
100
AcDbSpline
 70
8
 71
3
 72
8
 73
4
 74
0
 40
0
 40
0
 40
0
 40
0
 40
1
 40
1
 40
1
 40
1
 10
326.025030
 20
167.828170
 30
0.0
 10
325.569390
 20
166.379980
 30
0.0
 10
324.609480
 20
164.839370
 30
0.0
 10
323.512970
 20
163.796440
 30
0.0
  0
LWPOLYLINE
  5
17a
100
AcDbEntity
  8
Draft
 62
7
100
AcDbPolyline
 90
5
 70
0
 10
321.487180
 20
172.360140
 30
0.0
 10
321.487180
 20
175.182150
 30
0.0
 10
323.947350
 20
175.134250
 30
0.0
 10
326.407520
 20
175.086350
 30
0.0
 10
326.407520
 20
172.065100
 30
0.0
  0
SPLINE
  5
17b
100
AcDbEntity
  8
Draft
 62
7
100
AcDbSpline
 70
8
 71
3
 72
8
 73
4
 74
0
 40
0
 40
0
 40
0
 40
0
 40
1
 40
1
 40
1
 40
1
 10
323.481330
 20
162.293300
 30
0.0
 10
324.561130
 20
161.243840
 30
0.0
 10
325.574230
 20
159.602400
 30
0.0
 10
325.977130
 20
158.249530
 30
0.0
  0
SPLINE
  5
17c
100
AcDbEntity
  8
Draft
 62
7
100
AcDbSpline
 70
8
 71
3
 72
8
 73
4
 74
0
 40
0
 40
0
 40
0
 40
0
 40
1
 40
1
 40
1
 40
1
 10
325.977130
 20
158.249530
 30
0.0
 10
326.269970
 20
157.266240
 30
0.0
 10
326.321190
 20
156.588640
 30
0.0
 10
326.321190
 20
153.698400
 30
0.0
  0
LWPOLYLINE
  5
17d
100
AcDbEntity
  8
Draft
 62
7
100
AcDbPolyline
 90
3
 70
0
 10
323.512970
 20
163.796440
 30
0.0
 10
322.715320
 20
163.037770
 30
0.0
 10
323.481330
 20
162.293300
 30
0.0
  0
SPLINE
  5
17e
100
AcDbEntity
  8
Draft
 62
7
100
AcDbSpline
 70
8
 71
3
 72
8
 73
4
 74
0
 40
0
 40
0
 40
0
 40
0
 40
1
 40
1
 40
1
 40
1
 10
321.434950
 20
153.764910
 30
0.0
 10
321.396750
 20
155.898060
 30
0.0
 10
321.296890
 20
157.321200
 30
0.0
 10
321.162310
 20
157.649380
 30
0.0
  0
SPLINE
  5
17f
100
AcDbEntity
  8
Draft
 62
7
100
AcDbSpline
 70
8
 71
3
 72
8
 73
4
 74
0
 40
0
 40
0
 40
0
 40
0
 40
1
 40
1
 40
1
 40
1
 10
321.162310
 20
157.649380
 30
0.0
 10
320.793970
 20
158.547590
 30
0.0
 10
320.103110
 20
159.417790
 30
0.0
 10
319.358260
 20
159.921720
 30
0.0
  0
SPLINE
  5
180
100
AcDbEntity
  8
Draft
 62
7
100
AcDbSpline
 70
8
 71
3
 72
8
 73
4
 74
0
 40
0
 40
0
 40
0
 40
0
 40
1
 40
1
 40
1
 40
1
 10
319.358260
 20
159.921720
 30
0.0
 10
318.674520
 20
160.384320
 30
0.0
 10
318.541090
 20
160.408740
 30
0.0
 10
316.689730
 20
160.410170
 30
0.0
  0
LWPOLYLINE
  5
181
100
AcDbEntity
  8
Draft
 62
7
100
AcDbPolyline
 90
5
 70
0
 10
326.321190
 20
153.698400
 30
0.0
 10
326.321190
 20
150.302570
 30
0.0
 10
323.908220
 20
150.350470
 30
0.0
 10
321.495250
 20
150.398370
 30
0.0
 10
321.434950
 20
153.764910
 30
0.0
  0
SPLINE
  5
182
100
AcDbEntity
  8
Draft
 62
7
100
AcDbSpline
 70
8
 71
3
 72
8
 73
4
 74
0
 40
0
 40
0
 40
0
 40
0
 40
1
 40
1
 40
1
 40
1
 10
312.068010
 20
150.177720
 30
0.0
 10
310.638170
 20
150.151620
 30
0.0
 10
309.414560
 20
150.183720
 30
0.0
 10
309.348880
 20
150.249620
 30
0.0
  0
LWPOLYLINE
  5
183
100
AcDbEntity
  8
Draft
 62
7
100
AcDbPolyline
 90
5
 70
0
 10
316.689730
 20
160.410170
 30
0.0
 10
314.740930
 20
160.411170
 30
0.0
 10
314.704330
 20
155.318200
 30
0.0
 10
314.667730
 20
150.225220
 30
0.0
 10
312.068010
 20
150.177720
 30
0.0
  0
SPLINE
  5
184
100
AcDbEntity
  8
Draft
 62
7
100
AcDbSpline
 70
8
 71
3
 72
8
 73
4
 74
0
 40
0
 40
0
 40
0
 40
0
 40
1
 40
1
 40
1
 40
1
 10
328.565540
 20
158.994280
 30
0.0
 10
328.565540
 20
168.604020
 30
0.0
 10
328.585740
 20
168.847120
 30
0.0
 10
329.549310
 20
170.856610
 30
0.0
  0
SPLINE
  5
185
100
AcDbEntity
  8
Draft
 62
7
100
AcDbSpline
 70
8
 71
3
 72
8
 73
4
 74
0
 40
0
 40
0
 40
0
 40
0
 40
1
 40
1
 40
1
 40
1
 10
329.549310
 20
170.856610
 30
0.0
 10
330.507050
 20
172.853850
 30
0.0
 10
333.134270
 20
174.849120
 30
0.0
 10
335.436600
 20
175.327780
 30
0.0
  0
SPLINE
  5
186
100
AcDbEntity
  8
Draft
 62
7
100
AcDbSpline
 70
8
 71
3
 72
8
 73
4
 74
0
 40
0
 40
0
 40
0
 40
0
 40
1
 40
1
 40
1
 40
1
 10
335.436600
 20
175.327780
 30
0.0
 10
337.969470
 20
175.854360
 30
0.0
 10
340.750090
 20
175.205510
 30
0.0
 10
342.545140
 20
173.669020
 30
0.0
  0
SPLINE
  5
187
100
AcDbEntity
  8
Draft
 62
7
100
AcDbSpline
 70
8
 71
3
 72
8
 73
4
 74
0
 40
0
 40
0
 40
0
 40
0
 40
1
 40
1
 40
1
 40
1
 10
342.545140
 20
173.669020
 30
0.0
 10
342.910140
 20
173.356590
 30
0.0
 10
343.242800
 20
173.100970
 30
0.0
 10
343.284390
 20
173.100970
 30
0.0
  0
SPLINE
  5
188
100
AcDbEntity
  8
Draft
 62
7
100
AcDbSpline
 70
8
 71
3
 72
8
 73
4
 74
0
 40
0
 40
0
 40
0
 40
0
 40
1
 40
1
 40
1
 40
1
 10
343.284390
 20
173.100970
 30
0.0
 10
343.325990
 20
173.100970
 30
0.0
 10
343.546700
 20
173.263530
 30
0.0
 10
343.774880
 20
173.462200
 30
0.0
  0
SPLINE
  5
189
100
AcDbEntity
  8
Draft
 62
7
100
AcDbSpline
 70
8
 71
3
 72
8
 73
4
 74
0
 40
0
 40
0
 40
0
 40
0
 40
1
 40
1
 40
1
 40
1
 10
343.774880
 20
173.462200
 30
0.0
 10
344.540220
 20
174.128590
 30
0.0
 10
346.213280
 20
175.014370
 30
0.0
 10
347.184340
 20
175.267300
 30
0.0
  0
SPLINE
  5
18a
100
AcDbEntity
  8
Draft
 62
7
100
AcDbSpline
 70
8
 71
3
 72
8
 73
4
 74
0
 40
0
 40
0
 40
0
 40
0
 40
1
 40
1
 40
1
 40
1
 10
347.184340
 20
175.267300
 30
0.0
 10
348.383020
 20
175.579520
 30
0.0
 10
350.134460
 20
175.586230
 30
0.0
 10
351.268110
 20
175.283000
 30
0.0
  0
SPLINE
  5
18b
100
AcDbEntity
  8
Draft
 62
7
100
AcDbSpline
 70
8
 71
3
 72
8
 73
4
 74
0
 40
0
 40
0
 40
0
 40
0
 40
1
 40
1
 40
1
 40
1
 10
351.268110
 20
175.283000
 30
0.0
 10
354.338280
 20
174.461660
 30
0.0
 10
356.917330
 20
171.738890
 30
0.0
 10
357.553880
 20
168.646970
 30
0.0
  0
SPLINE
  5
18c
100
AcDbEntity
  8
Draft
 62
7
100
AcDbSpline
 70
8
 71
3
 72
8
 73
4
 74
0
 40
0
 40
0
 40
0
 40
0
 40
1
 40
1
 40
1
 40
1
 10
357.553880
 20
168.646970
 30
0.0
 10
357.675480
 20
168.056300
 30
0.0
 10
357.742230
 20
164.614860
 30
0.0
 10
357.742230
 20
158.935790
 30
0.0
  0
LWPOLYLINE
  5
18d
100
AcDbEntity
  8
Draft
 62
7
100
AcDbPolyline
 90
2
 70
0
 10
309.348880
 20
150.249620
 30
0.0
 10
309.348910
 20
150.250210
 30
0.0
  0
SPLINE
  5
18e
100
AcDbEntity
  8
Draft
 62
7
100
AcDbSpline
 70
8
 71
3
 72
8
 73
4
 74
0
 40
0
 40
0
 40
0
 40
0
 40
1
 40
1
 40
1
 40
1
 10
352.390290
 20
158.889780
 30
0.0
 10
352.390290
 20
167.358830
 30
0.0
 10
352.378890
 20
167.663570
 30
0.0
 10
352.036320
 20
168.371290
 30
0.0
  0
SPLINE
  5
18f
100
AcDbEntity
  8
Draft
 62
7
100
AcDbSpline
 70
8
 71
3
 72
8
 73
4
 74
0
 40
0
 40
0
 40
0
 40
0
 40
1
 40
1
 40
1
 40
1
 10
352.036320
 20
168.371290
 30
0.0
 10
351.537940
 20
169.400790
 30
0.0
 10
350.690030
 20
169.997880
 30
0.0
 10
349.560940
 20
170.114410
 30
0.0
  0
SPLINE
  5
190
100
AcDbEntity
  8
Draft
 62
7
100
AcDbSpline
 70
8
 71
3
 72
8
 73
4
 74
0
 40
0
 40
0
 40
0
 40
0
 40
1
 40
1
 40
1
 40
1
 10
349.560940
 20
170.114410
 30
0.0
 10
349.055430
 20
170.166610
 30
0.0
 10
348.373330
 20
170.120410
 30
0.0
 10
348.045150
 20
170.012340
 30
0.0
  0
SPLINE
  5
191
100
AcDbEntity
  8
Draft
 62
7
100
AcDbSpline
 70
8
 71
3
 72
8
 73
4
 74
0
 40
0
 40
0
 40
0
 40
0
 40
1
 40
1
 40
1
 40
1
 10
348.045150
 20
170.012340
 30
0.0
 10
347.306120
 20
169.768440
 30
0.0
 10
346.285980
 20
168.721310
 30
0.0
 10
346.025380
 20
167.939130
 30
0.0
  0
SPLINE
  5
192
100
AcDbEntity
  8
Draft
 62
7
100
AcDbSpline
 70
8
 71
3
 72
8
 73
4
 74
0
 40
0
 40
0
 40
0
 40
0
 40
1
 40
1
 40
1
 40
1
 10
346.025380
 20
167.939130
 30
0.0
 10
345.890240
 20
167.533510
 30
0.0
 10
345.829850
 20
164.694330
 30
0.0
 10
345.829850
 20
158.745880
 30
0.0
  0
LWPOLYLINE
  5
193
100
AcDbEntity
  8
Draft
 62
7
100
AcDbPolyline
 90
5
 70
0
 10
357.742230
 20
158.935790
 30
0.0
 10
357.742230
 20
150.139480
 30
0.0
 10
355.066260
 20
150.139480
 30
0.0
 10
352.390290
 20
150.139480
 30
0.0
 10
352.390290
 20
158.889780
 30
0.0
  0
SPLINE
  5
194
100
AcDbEntity
  8
Draft
 62
7
100
AcDbSpline
 70
8
 71
3
 72
8
 73
4
 74
0
 40
0
 40
0
 40
0
 40
0
 40
1
 40
1
 40
1
 40
1
 10
343.258680
 20
150.139480
 30
0.0
 10
341.073360
 20
150.139480
 30
0.0
 10
340.671770
 20
150.180480
 30
0.0
 10
340.582710
 20
150.412570
 30
0.0
  0
SPLINE
  5
195
100
AcDbEntity
  8
Draft
 62
7
100
AcDbSpline
 70
8
 71
3
 72
8
 73
4
 74
0
 40
0
 40
0
 40
0
 40
0
 40
1
 40
1
 40
1
 40
1
 10
340.582710
 20
150.412570
 30
0.0
 10
340.525110
 20
150.562760
 30
0.0
 10
340.477910
 20
154.574020
 30
0.0
 10
340.477910
 20
159.326470
 30
0.0
  0
SPLINE
  5
196
100
AcDbEntity
  8
Draft
 62
7
100
AcDbSpline
 70
8
 71
3
 72
8
 73
4
 74
0
 40
0
 40
0
 40
0
 40
0
 40
1
 40
1
 40
1
 40
1
 10
340.477910
 20
159.326470
 30
0.0
 10
340.477910
 20
167.875020
 30
0.0
 10
340.473910
 20
167.973730
 30
0.0
 10
340.105610
 20
168.569700
 30
0.0
  0
SPLINE
  5
197
100
AcDbEntity
  8
Draft
 62
7
100
AcDbSpline
 70
8
 71
3
 72
8
 73
4
 74
0
 40
0
 40
0
 40
0
 40
0
 40
1
 40
1
 40
1
 40
1
 10
340.105610
 20
168.569700
 30
0.0
 10
338.707970
 20
170.831130
 30
0.0
 10
335.364630
 20
170.609250
 30
0.0
 10
334.243780
 20
168.180690
 30
0.0
  0
SPLINE
  5
198
100
AcDbEntity
  8
Draft
 62
7
100
AcDbSpline
 70
8
 71
3
 72
8
 73
4
 74
0
 40
0
 40
0
 40
0
 40
0
 40
1
 40
1
 40
1
 40
1
 10
334.243780
 20
168.180690
 30
0.0
 10
333.947480
 20
167.538690
 30
0.0
 10
333.924790
 20
166.879920
 30
0.0
 10
333.921260
 20
158.814800
 30
0.0
  0
LWPOLYLINE
  5
199
100
AcDbEntity
  8
Draft
 62
7
100
AcDbPolyline
 90
3
 70
0
 10
345.829850
 20
158.745880
 30
0.0
 10
345.829850
 20
150.139480
 30
0.0
 10
343.258680
 20
150.139480
 30
0.0
  0
SPLINE
  5
19a
100
AcDbEntity
  8
Draft
 62
7
100
AcDbSpline
 70
8
 71
3
 72
8
 73
4
 74
0
 40
0
 40
0
 40
0
 40
0
 40
1
 40
1
 40
1
 40
1
 10
359.986590
 20
158.402740
 30
0.0
 10
359.986590
 20
163.138150
 30
0.0
 10
360.059790
 20
167.063070
 30
0.0
 10
360.158160
 20
167.595990
 30
0.0
  0
SPLINE
  5
19b
100
AcDbEntity
  8
Draft
 62
7
100
AcDbSpline
 70
8
 71
3
 72
8
 73
4
 74
0
 40
0
 40
0
 40
0
 40
0
 40
1
 40
1
 40
1
 40
1
 10
360.158160
 20
167.595990
 30
0.0
 10
360.616320
 20
170.079310
 30
0.0
 10
362.696490
 20
172.908040
 30
0.0
 10
365.010720
 20
174.194750
 30
0.0
  0
SPLINE
  5
19c
100
AcDbEntity
  8
Draft
 62
7
100
AcDbSpline
 70
8
 71
3
 72
8
 73
4
 74
0
 40
0
 40
0
 40
0
 40
0
 40
1
 40
1
 40
1
 40
1
 10
365.010720
 20
174.194750
 30
0.0
 10
366.295180
 20
174.908900
 30
0.0
 10
368.438450
 20
175.517980
 30
0.0
 10
369.667040
 20
175.517980
 30
0.0
  0
SPLINE
  5
19d
100
AcDbEntity
  8
Draft
 62
7
100
AcDbSpline
 70
8
 71
3
 72
8
 73
4
 74
0
 40
0
 40
0
 40
0
 40
0
 40
1
 40
1
 40
1
 40
1
 10
369.667040
 20
175.517980
 30
0.0
 10
370.699750
 20
175.517980
 30
0.0
 10
372.818270
 20
175.112300
 30
0.0
 10
373.669340
 20
174.751570
 30
0.0
  0
SPLINE
  5
19e
100
AcDbEntity
  8
Draft
 62
7
100
AcDbSpline
 70
8
 71
3
 72
8
 73
4
 74
0
 40
0
 40
0
 40
0
 40
0
 40
1
 40
1
 40
1
 40
1
 10
373.669340
 20
174.751570
 30
0.0
 10
376.253760
 20
173.656160
 30
0.0
 10
378.418910
 20
171.258680
 30
0.0
 10
379.367250
 20
168.442250
 30
0.0
  0
SPLINE
  5
19f
100
AcDbEntity
  8
Draft
 62
7
100
AcDbSpline
 70
8
 71
3
 72
8
 73
4
 74
0
 40
0
 40
0
 40
0
 40
0
 40
1
 40
1
 40
1
 40
1
 10
379.367250
 20
168.442250
 30
0.0
 10
379.733560
 20
167.354340
 30
0.0
 10
379.747840
 20
167.035400
 30
0.0
 10
379.802210
 20
158.722150
 30
0.0
  0
LWPOLYLINE
  5
1a0
100
AcDbEntity
  8
Draft
 62
7
100
AcDbPolyline
 90
5
 70
0
 10
333.921260
 20
158.814800
 30
0.0
 10
333.917260
 20
150.139480
 30
0.0
 10
331.241290
 20
150.139480
 30
0.0
 10
328.565330
 20
150.139480
 30
0.0
 10
328.565540
 20
158.994280
 30
0.0
  0
SPLINE
  5
1a1
100
AcDbEntity
  8
Draft
 62
7
100
AcDbSpline
 70
8
 71
3
 72
8
 73
4
 74
0
 40
0
 40
0
 40
0
 40
0
 40
1
 40
1
 40
1
 40
1
 10
374.454660
 20
158.398370
 30
0.0
 10
374.403960
 20
166.372440
 30
0.0
 10
374.390960
 20
166.650880
 30
0.0
 10
374.035470
 20
167.403750
 30
0.0
  0
SPLINE
  5
1a2
100
AcDbEntity
  8
Draft
 62
7
100
AcDbSpline
 70
8
 71
3
 72
8
 73
4
 74
0
 40
0
 40
0
 40
0
 40
0
 40
1
 40
1
 40
1
 40
1
 10
374.035470
 20
167.403750
 30
0.0
 10
373.553520
 20
168.424390
 30
0.0
 10
372.854520
 20
169.164120
 30
0.0
 10
371.898990
 20
169.664710
 30
0.0
  0
SPLINE
  5
1a3
100
AcDbEntity
  8
Draft
 62
7
100
AcDbSpline
 70
8
 71
3
 72
8
 73
4
 74
0
 40
0
 40
0
 40
0
 40
0
 40
1
 40
1
 40
1
 40
1
 10
371.898990
 20
169.664710
 30
0.0
 10
370.832390
 20
170.223490
 30
0.0
 10
368.850670
 20
170.241900
 30
0.0
 10
367.841880
 20
169.702410
 30
0.0
  0
SPLINE
  5
1a4
100
AcDbEntity
  8
Draft
 62
7
100
AcDbSpline
 70
8
 71
3
 72
8
 73
4
 74
0
 40
0
 40
0
 40
0
 40
0
 40
1
 40
1
 40
1
 40
1
 10
367.841880
 20
169.702410
 30
0.0
 10
366.926860
 20
169.213060
 30
0.0
 10
366.128560
 20
168.357370
 30
0.0
 10
365.697400
 20
167.403760
 30
0.0
  0
SPLINE
  5
1a5
100
AcDbEntity
  8
Draft
 62
7
100
AcDbSpline
 70
8
 71
3
 72
8
 73
4
 74
0
 40
0
 40
0
 40
0
 40
0
 40
1
 40
1
 40
1
 40
1
 10
365.697400
 20
167.403760
 30
0.0
 10
365.360080
 20
166.657710
 30
0.0
 10
365.345980
 20
166.299590
 30
0.0
 10
365.342340
 20
158.383150
 30
0.0
  0
LWPOLYLINE
  5
1a6
100
AcDbEntity
  8
Draft
 62
7
100
AcDbPolyline
 90
5
 70
0
 10
379.802210
 20
158.722150
 30
0.0
 10
379.858410
 20
150.126880
 30
0.0
 10
377.182690
 20
150.148380
 30
0.0
 10
374.506960
 20
150.169880
 30
0.0
 10
374.454660
 20
158.398370
 30
0.0
  0
SPLINE
  5
1a7
100
AcDbEntity
  8
Draft
 62
7
100
AcDbSpline
 70
8
 71
3
 72
8
 73
4
 74
0
 40
0
 40
0
 40
0
 40
0
 40
1
 40
1
 40
1
 40
1
 10
381.739630
 20
158.562670
 30
0.0
 10
381.739630
 20
167.587680
 30
0.0
 10
381.755830
 20
167.764730
 30
0.0
 10
382.783510
 20
169.972520
 30
0.0
  0
SPLINE
  5
1a8
100
AcDbEntity
  8
Draft
 62
7
100
AcDbSpline
 70
8
 71
3
 72
8
 73
4
 74
0
 40
0
 40
0
 40
0
 40
0
 40
1
 40
1
 40
1
 40
1
 10
382.783510
 20
169.972520
 30
0.0
 10
383.820730
 20
172.200830
 30
0.0
 10
386.575310
 20
174.427520
 30
0.0
 10
389.112050
 20
175.088250
 30
0.0
  0
SPLINE
  5
1a9
100
AcDbEntity
  8
Draft
 62
7
100
AcDbSpline
 70
8
 71
3
 72
8
 73
4
 74
0
 40
0
 40
0
 40
0
 40
0
 40
1
 40
1
 40
1
 40
1
 10
389.112050
 20
175.088250
 30
0.0
 10
390.420800
 20
175.429140
 30
0.0
 10
392.990860
 20
175.419750
 30
0.0
 10
394.181770
 20
175.069750
 30
0.0
  0
SPLINE
  5
1aa
100
AcDbEntity
  8
Draft
 62
7
100
AcDbSpline
 70
8
 71
3
 72
8
 73
4
 74
0
 40
0
 40
0
 40
0
 40
0
 40
1
 40
1
 40
1
 40
1
 10
394.181770
 20
175.069750
 30
0.0
 10
396.879270
 20
174.276940
 30
0.0
 10
399.285710
 20
172.317060
 30
0.0
 10
400.414760
 20
169.993410
 30
0.0
  0
SPLINE
  5
1ab
100
AcDbEntity
  8
Draft
 62
7
100
AcDbSpline
 70
8
 71
3
 72
8
 73
4
 74
0
 40
0
 40
0
 40
0
 40
0
 40
1
 40
1
 40
1
 40
1
 10
400.414760
 20
169.993410
 30
0.0
 10
401.525000
 20
167.708490
 30
0.0
 10
401.593600
 20
167.020680
 30
0.0
 10
401.593600
 20
158.174630
 30
0.0
  0
LWPOLYLINE
  5
1ac
100
AcDbEntity
  8
Draft
 62
7
100
AcDbPolyline
 90
5
 70
0
 10
365.342340
 20
158.383150
 30
0.0
 10
365.338340
 20
150.139440
 30
0.0
 10
362.662370
 20
150.139440
 30
0.0
 10
359.986400
 20
150.139440
 30
0.0
 10
359.986590
 20
158.402740
 30
0.0
  0
SPLINE
  5
1ad
100
AcDbEntity
  8
Draft
 62
7
100
AcDbSpline
 70
8
 71
3
 72
8
 73
4
 74
0
 40
0
 40
0
 40
0
 40
0
 40
1
 40
1
 40
1
 40
1
 10
396.206480
 20
158.383150
 30
0.0
 10
396.155380
 20
166.452000
 30
0.0
 10
396.155280
 20
166.454470
 30
0.0
 10
395.746270
 20
167.359160
 30
0.0
  0
SPLINE
  5
1ae
100
AcDbEntity
  8
Draft
 62
7
100
AcDbSpline
 70
8
 71
3
 72
8
 73
4
 74
0
 40
0
 40
0
 40
0
 40
0
 40
1
 40
1
 40
1
 40
1
 10
395.746270
 20
167.359160
 30
0.0
 10
395.292030
 20
168.363980
 30
0.0
 10
394.289020
 20
169.368160
 30
0.0
 10
393.330840
 20
169.777400
 30
0.0
  0
SPLINE
  5
1af
100
AcDbEntity
  8
Draft
 62
7
100
AcDbSpline
 70
8
 71
3
 72
8
 73
4
 74
0
 40
0
 40
0
 40
0
 40
0
 40
1
 40
1
 40
1
 40
1
 10
393.330840
 20
169.777400
 30
0.0
 10
392.530120
 20
170.119390
 30
0.0
 10
390.809150
 20
170.148710
 30
0.0
 10
390.026530
 20
169.833700
 30
0.0
  0
SPLINE
  5
1b0
100
AcDbEntity
  8
Draft
 62
7
100
AcDbSpline
 70
8
 71
3
 72
8
 73
4
 74
0
 40
0
 40
0
 40
0
 40
0
 40
1
 40
1
 40
1
 40
1
 10
390.026530
 20
169.833700
 30
0.0
 10
388.988240
 20
169.415760
 30
0.0
 10
388.006420
 20
168.495710
 30
0.0
 10
387.534750
 20
167.498680
 30
0.0
  0
LWPOLYLINE
  5
1b1
100
AcDbEntity
  8
Draft
 62
7
100
AcDbPolyline
 90
5
 70
0
 10
401.593600
 20
158.174630
 30
0.0
 10
401.593600
 20
150.312080
 30
0.0
 10
398.925590
 20
150.312080
 30
0.0
 10
396.257580
 20
150.312080
 30
0.0
 10
396.206480
 20
158.383150
 30
0.0
  0
SPLINE
  5
1b2
100
AcDbEntity
  8
Draft
 62
7
100
AcDbSpline
 70
8
 71
3
 72
8
 73
4
 74
0
 40
0
 40
0
 40
0
 40
0
 40
1
 40
1
 40
1
 40
1
 10
280.612090
 20
158.270700
 30
0.0
 10
279.604860
 20
158.459970
 30
0.0
 10
278.947150
 20
158.882520
 30
0.0
 10
278.336700
 20
159.732560
 30
0.0
  0
SPLINE
  5
1b3
100
AcDbEntity
  8
Draft
 62
7
100
AcDbSpline
 70
8
 71
3
 72
8
 73
4
 74
0
 40
0
 40
0
 40
0
 40
0
 40
1
 40
1
 40
1
 40
1
 10
278.336700
 20
159.732560
 30
0.0
 10
277.072920
 20
161.492340
 30
0.0
 10
277.442840
 20
163.911320
 30
0.0
 10
279.153500
 20
165.073740
 30
0.0
  0
SPLINE
  5
1b4
100
AcDbEntity
  8
Draft
 62
7
100
AcDbSpline
 70
8
 71
3
 72
8
 73
4
 74
0
 40
0
 40
0
 40
0
 40
0
 40
1
 40
1
 40
1
 40
1
 10
279.153500
 20
165.073740
 30
0.0
 10
281.595800
 20
166.733330
 30
0.0
 10
284.764220
 20
165.289830
 30
0.0
 10
285.169510
 20
162.332900
 30
0.0
  0
SPLINE
  5
1b5
100
AcDbEntity
  8
Draft
 62
7
100
AcDbSpline
 70
8
 71
3
 72
8
 73
4
 74
0
 40
0
 40
0
 40
0
 40
0
 40
1
 40
1
 40
1
 40
1
 10
285.169510
 20
162.332900
 30
0.0
 10
285.500090
 20
159.921070
 30
0.0
 10
283.119840
 20
157.799460
 30
0.0
 10
280.612090
 20
158.270700
 30
0.0
  0
LWPOLYLINE
  5
1b6
100
AcDbEntity
  8
Draft
 62
7
100
AcDbPolyline
 90
7
 70
0
 10
387.534750
 20
167.498680
 30
0.0
 10
387.091590
 20
166.561940
 30
0.0
 10
387.091590
 20
158.437020
 30
0.0
 10
387.091590
 20
150.312090
 30
0.0
 10
384.415620
 20
150.312090
 30
0.0
 10
381.739650
 20
150.312090
 30
0.0
 10
381.739630
 20
158.562670
 30
0.0
  0
SPLINE
  5
1b7
100
AcDbEntity
  8
Draft
 62
7
100
AcDbSpline
 70
8
 71
3
 72
8
 73
4
 74
0
 40
0
 40
0
 40
0
 40
0
 40
1
 40
1
 40
1
 40
1
 10
369.215860
 20
158.254700
 30
0.0
 10
367.910140
 20
158.439820
 30
0.0
 10
366.734560
 20
159.405170
 30
0.0
 10
366.293900
 20
160.654120
 30
0.0
  0
SPLINE
  5
1b8
100
AcDbEntity
  8
Draft
 62
7
100
AcDbSpline
 70
8
 71
3
 72
8
 73
4
 74
0
 40
0
 40
0
 40
0
 40
0
 40
1
 40
1
 40
1
 40
1
 10
366.293900
 20
160.654120
 30
0.0
 10
365.735060
 20
162.238070
 30
0.0
 10
366.112040
 20
163.710670
 30
0.0
 10
367.365710
 20
164.840950
 30
0.0
  0
SPLINE
  5
1b9
100
AcDbEntity
  8
Draft
 62
7
100
AcDbSpline
 70
8
 71
3
 72
8
 73
4
 74
0
 40
0
 40
0
 40
0
 40
0
 40
1
 40
1
 40
1
 40
1
 10
367.365710
 20
164.840950
 30
0.0
 10
368.833550
 20
166.164310
 30
0.0
 10
371.089200
 20
166.085600
 30
0.0
 10
372.504680
 20
164.661630
 30
0.0
  0
SPLINE
  5
1ba
100
AcDbEntity
  8
Draft
 62
7
100
AcDbSpline
 70
8
 71
3
 72
8
 73
4
 74
0
 40
0
 40
0
 40
0
 40
0
 40
1
 40
1
 40
1
 40
1
 10
372.504680
 20
164.661630
 30
0.0
 10
375.115430
 20
162.035210
 30
0.0
 10
372.906240
 20
157.731500
 30
0.0
 10
369.215860
 20
158.254700
 30
0.0
  0
LWPOLYLINE
  5
1bb
100
AcDbEntity
  8
Draft
 62
7
100
AcDbPolyline
 90
1
 70
1
 10
280.612090
 20
158.270700
 30
0.0
  0
SPLINE
  5
1bc
100
AcDbEntity
  8
Draft
 62
7
100
AcDbSpline
 70
8
 71
3
 72
8
 73
4
 74
0
 40
0
 40
0
 40
0
 40
0
 40
1
 40
1
 40
1
 40
1
 10
328.565540
 20
123.994280
 30
0.0
 10
328.565540
 20
133.604020
 30
0.0
 10
328.585740
 20
133.847120
 30
0.0
 10
329.549310
 20
135.856610
 30
0.0
  0
SPLINE
  5
1bd
100
AcDbEntity
  8
Draft
 62
7
100
AcDbSpline
 70
8
 71
3
 72
8
 73
4
 74
0
 40
0
 40
0
 40
0
 40
0
 40
1
 40
1
 40
1
 40
1
 10
329.549310
 20
135.856610
 30
0.0
 10
330.507050
 20
137.853850
 30
0.0
 10
333.134270
 20
139.849120
 30
0.0
 10
335.436600
 20
140.327780
 30
0.0
  0
SPLINE
  5
1be
100
AcDbEntity
  8
Draft
 62
7
100
AcDbSpline
 70
8
 71
3
 72
8
 73
4
 74
0
 40
0
 40
0
 40
0
 40
0
 40
1
 40
1
 40
1
 40
1
 10
335.436600
 20
140.327780
 30
0.0
 10
337.969470
 20
140.854360
 30
0.0
 10
340.750090
 20
140.205510
 30
0.0
 10
342.545140
 20
138.669020
 30
0.0
  0
SPLINE
  5
1bf
100
AcDbEntity
  8
Draft
 62
7
100
AcDbSpline
 70
8
 71
3
 72
8
 73
4
 74
0
 40
0
 40
0
 40
0
 40
0
 40
1
 40
1
 40
1
 40
1
 10
342.545140
 20
138.669020
 30
0.0
 10
342.910140
 20
138.356590
 30
0.0
 10
343.242800
 20
138.100970
 30
0.0
 10
343.284390
 20
138.100970
 30
0.0
  0
SPLINE
  5
1c0
100
AcDbEntity
  8
Draft
 62
7
100
AcDbSpline
 70
8
 71
3
 72
8
 73
4
 74
0
 40
0
 40
0
 40
0
 40
0
 40
1
 40
1
 40
1
 40
1
 10
343.284390
 20
138.100970
 30
0.0
 10
343.325990
 20
138.100970
 30
0.0
 10
343.546700
 20
138.263530
 30
0.0
 10
343.774880
 20
138.462200
 30
0.0
  0
SPLINE
  5
1c1
100
AcDbEntity
  8
Draft
 62
7
100
AcDbSpline
 70
8
 71
3
 72
8
 73
4
 74
0
 40
0
 40
0
 40
0
 40
0
 40
1
 40
1
 40
1
 40
1
 10
343.774880
 20
138.462200
 30
0.0
 10
344.540220
 20
139.128590
 30
0.0
 10
346.213280
 20
140.014370
 30
0.0
 10
347.184340
 20
140.267300
 30
0.0
  0
SPLINE
  5
1c2
100
AcDbEntity
  8
Draft
 62
7
100
AcDbSpline
 70
8
 71
3
 72
8
 73
4
 74
0
 40
0
 40
0
 40
0
 40
0
 40
1
 40
1
 40
1
 40
1
 10
347.184340
 20
140.267300
 30
0.0
 10
348.383020
 20
140.579520
 30
0.0
 10
350.134460
 20
140.586230
 30
0.0
 10
351.268110
 20
140.283000
 30
0.0
  0
SPLINE
  5
1c3
100
AcDbEntity
  8
Draft
 62
7
100
AcDbSpline
 70
8
 71
3
 72
8
 73
4
 74
0
 40
0
 40
0
 40
0
 40
0
 40
1
 40
1
 40
1
 40
1
 10
351.268110
 20
140.283000
 30
0.0
 10
354.338280
 20
139.461660
 30
0.0
 10
356.917330
 20
136.738890
 30
0.0
 10
357.553880
 20
133.646970
 30
0.0
  0
SPLINE
  5
1c4
100
AcDbEntity
  8
Draft
 62
7
100
AcDbSpline
 70
8
 71
3
 72
8
 73
4
 74
0
 40
0
 40
0
 40
0
 40
0
 40
1
 40
1
 40
1
 40
1
 10
357.553880
 20
133.646970
 30
0.0
 10
357.675480
 20
133.056300
 30
0.0
 10
357.742230
 20
129.614860
 30
0.0
 10
357.742230
 20
123.935790
 30
0.0
  0
LWPOLYLINE
  5
1c5
100
AcDbEntity
  8
Draft
 62
7
100
AcDbPolyline
 90
1
 70
1
 10
369.215860
 20
158.254700
 30
0.0
  0
SPLINE
  5
1c6
100
AcDbEntity
  8
Draft
 62
7
100
AcDbSpline
 70
8
 71
3
 72
8
 73
4
 74
0
 40
0
 40
0
 40
0
 40
0
 40
1
 40
1
 40
1
 40
1
 10
352.390290
 20
123.889780
 30
0.0
 10
352.390290
 20
132.358830
 30
0.0
 10
352.378890
 20
132.663570
 30
0.0
 10
352.036320
 20
133.371290
 30
0.0
  0
SPLINE
  5
1c7
100
AcDbEntity
  8
Draft
 62
7
100
AcDbSpline
 70
8
 71
3
 72
8
 73
4
 74
0
 40
0
 40
0
 40
0
 40
0
 40
1
 40
1
 40
1
 40
1
 10
352.036320
 20
133.371290
 30
0.0
 10
351.537940
 20
134.400790
 30
0.0
 10
350.690030
 20
134.997880
 30
0.0
 10
349.560940
 20
135.114410
 30
0.0
  0
SPLINE
  5
1c8
100
AcDbEntity
  8
Draft
 62
7
100
AcDbSpline
 70
8
 71
3
 72
8
 73
4
 74
0
 40
0
 40
0
 40
0
 40
0
 40
1
 40
1
 40
1
 40
1
 10
349.560940
 20
135.114410
 30
0.0
 10
349.055430
 20
135.166610
 30
0.0
 10
348.373330
 20
135.120410
 30
0.0
 10
348.045150
 20
135.012340
 30
0.0
  0
SPLINE
  5
1c9
100
AcDbEntity
  8
Draft
 62
7
100
AcDbSpline
 70
8
 71
3
 72
8
 73
4
 74
0
 40
0
 40
0
 40
0
 40
0
 40
1
 40
1
 40
1
 40
1
 10
348.045150
 20
135.012340
 30
0.0
 10
347.306120
 20
134.768440
 30
0.0
 10
346.285980
 20
133.721310
 30
0.0
 10
346.025380
 20
132.939130
 30
0.0
  0
SPLINE
  5
1ca
100
AcDbEntity
  8
Draft
 62
7
100
AcDbSpline
 70
8
 71
3
 72
8
 73
4
 74
0
 40
0
 40
0
 40
0
 40
0
 40
1
 40
1
 40
1
 40
1
 10
346.025380
 20
132.939130
 30
0.0
 10
345.890240
 20
132.533510
 30
0.0
 10
345.829850
 20
129.694330
 30
0.0
 10
345.829850
 20
123.745880
 30
0.0
  0
LWPOLYLINE
  5
1cb
100
AcDbEntity
  8
Draft
 62
7
100
AcDbPolyline
 90
5
 70
0
 10
357.742230
 20
123.935790
 30
0.0
 10
357.742230
 20
115.139480
 30
0.0
 10
355.066260
 20
115.139480
 30
0.0
 10
352.390290
 20
115.139480
 30
0.0
 10
352.390290
 20
123.889780
 30
0.0
  0
SPLINE
  5
1cc
100
AcDbEntity
  8
Draft
 62
7
100
AcDbSpline
 70
8
 71
3
 72
8
 73
4
 74
0
 40
0
 40
0
 40
0
 40
0
 40
1
 40
1
 40
1
 40
1
 10
343.258680
 20
115.139480
 30
0.0
 10
341.073360
 20
115.139480
 30
0.0
 10
340.671770
 20
115.180480
 30
0.0
 10
340.582710
 20
115.412570
 30
0.0
  0
SPLINE
  5
1cd
100
AcDbEntity
  8
Draft
 62
7
100
AcDbSpline
 70
8
 71
3
 72
8
 73
4
 74
0
 40
0
 40
0
 40
0
 40
0
 40
1
 40
1
 40
1
 40
1
 10
340.582710
 20
115.412570
 30
0.0
 10
340.525110
 20
115.562760
 30
0.0
 10
340.477910
 20
119.574020
 30
0.0
 10
340.477910
 20
124.326470
 30
0.0
  0
SPLINE
  5
1ce
100
AcDbEntity
  8
Draft
 62
7
100
AcDbSpline
 70
8
 71
3
 72
8
 73
4
 74
0
 40
0
 40
0
 40
0
 40
0
 40
1
 40
1
 40
1
 40
1
 10
340.477910
 20
124.326470
 30
0.0
 10
340.477910
 20
132.875020
 30
0.0
 10
340.473910
 20
132.973730
 30
0.0
 10
340.105610
 20
133.569700
 30
0.0
  0
SPLINE
  5
1cf
100
AcDbEntity
  8
Draft
 62
7
100
AcDbSpline
 70
8
 71
3
 72
8
 73
4
 74
0
 40
0
 40
0
 40
0
 40
0
 40
1
 40
1
 40
1
 40
1
 10
340.105610
 20
133.569700
 30
0.0
 10
338.707970
 20
135.831130
 30
0.0
 10
335.364630
 20
135.609250
 30
0.0
 10
334.243780
 20
133.180690
 30
0.0
  0
SPLINE
  5
1d0
100
AcDbEntity
  8
Draft
 62
7
100
AcDbSpline
 70
8
 71
3
 72
8
 73
4
 74
0
 40
0
 40
0
 40
0
 40
0
 40
1
 40
1
 40
1
 40
1
 10
334.243780
 20
133.180690
 30
0.0
 10
333.947480
 20
132.538690
 30
0.0
 10
333.924790
 20
131.879920
 30
0.0
 10
333.921260
 20
123.814800
 30
0.0
  0
LWPOLYLINE
  5
1d1
100
AcDbEntity
  8
Draft
 62
7
100
AcDbPolyline
 90
3
 70
0
 10
345.829850
 20
123.745880
 30
0.0
 10
345.829850
 20
115.139480
 30
0.0
 10
343.258680
 20
115.139480
 30
0.0
  0
SPLINE
  5
1d2
100
AcDbEntity
  8
Draft
 62
7
100
AcDbSpline
 70
8
 71
3
 72
8
 73
4
 74
0
 40
0
 40
0
 40
0
 40
0
 40
1
 40
1
 40
1
 40
1
 10
359.986590
 20
123.402740
 30
0.0
 10
359.986590
 20
128.138150
 30
0.0
 10
360.059790
 20
132.063070
 30
0.0
 10
360.158160
 20
132.595990
 30
0.0
  0
SPLINE
  5
1d3
100
AcDbEntity
  8
Draft
 62
7
100
AcDbSpline
 70
8
 71
3
 72
8
 73
4
 74
0
 40
0
 40
0
 40
0
 40
0
 40
1
 40
1
 40
1
 40
1
 10
360.158160
 20
132.595990
 30
0.0
 10
360.616320
 20
135.079310
 30
0.0
 10
362.696490
 20
137.908040
 30
0.0
 10
365.010720
 20
139.194750
 30
0.0
  0
SPLINE
  5
1d4
100
AcDbEntity
  8
Draft
 62
7
100
AcDbSpline
 70
8
 71
3
 72
8
 73
4
 74
0
 40
0
 40
0
 40
0
 40
0
 40
1
 40
1
 40
1
 40
1
 10
365.010720
 20
139.194750
 30
0.0
 10
366.295180
 20
139.908900
 30
0.0
 10
368.438450
 20
140.517980
 30
0.0
 10
369.667040
 20
140.517980
 30
0.0
  0
SPLINE
  5
1d5
100
AcDbEntity
  8
Draft
 62
7
100
AcDbSpline
 70
8
 71
3
 72
8
 73
4
 74
0
 40
0
 40
0
 40
0
 40
0
 40
1
 40
1
 40
1
 40
1
 10
369.667040
 20
140.517980
 30
0.0
 10
370.699750
 20
140.517980
 30
0.0
 10
372.818270
 20
140.112300
 30
0.0
 10
373.669340
 20
139.751570
 30
0.0
  0
SPLINE
  5
1d6
100
AcDbEntity
  8
Draft
 62
7
100
AcDbSpline
 70
8
 71
3
 72
8
 73
4
 74
0
 40
0
 40
0
 40
0
 40
0
 40
1
 40
1
 40
1
 40
1
 10
373.669340
 20
139.751570
 30
0.0
 10
376.253760
 20
138.656160
 30
0.0
 10
378.418910
 20
136.258680
 30
0.0
 10
379.367250
 20
133.442250
 30
0.0
  0
SPLINE
  5
1d7
100
AcDbEntity
  8
Draft
 62
7
100
AcDbSpline
 70
8
 71
3
 72
8
 73
4
 74
0
 40
0
 40
0
 40
0
 40
0
 40
1
 40
1
 40
1
 40
1
 10
379.367250
 20
133.442250
 30
0.0
 10
379.733560
 20
132.354340
 30
0.0
 10
379.747840
 20
132.035400
 30
0.0
 10
379.802210
 20
123.722150
 30
0.0
  0
LWPOLYLINE
  5
1d8
100
AcDbEntity
  8
Draft
 62
7
100
AcDbPolyline
 90
5
 70
0
 10
333.921260
 20
123.814800
 30
0.0
 10
333.917260
 20
115.139480
 30
0.0
 10
331.241290
 20
115.139480
 30
0.0
 10
328.565330
 20
115.139480
 30
0.0
 10
328.565540
 20
123.994280
 30
0.0
  0
SPLINE
  5
1d9
100
AcDbEntity
  8
Draft
 62
7
100
AcDbSpline
 70
8
 71
3
 72
8
 73
4
 74
0
 40
0
 40
0
 40
0
 40
0
 40
1
 40
1
 40
1
 40
1
 10
374.454660
 20
123.398370
 30
0.0
 10
374.403960
 20
131.372440
 30
0.0
 10
374.390960
 20
131.650880
 30
0.0
 10
374.035470
 20
132.403750
 30
0.0
  0
SPLINE
  5
1da
100
AcDbEntity
  8
Draft
 62
7
100
AcDbSpline
 70
8
 71
3
 72
8
 73
4
 74
0
 40
0
 40
0
 40
0
 40
0
 40
1
 40
1
 40
1
 40
1
 10
374.035470
 20
132.403750
 30
0.0
 10
373.553520
 20
133.424390
 30
0.0
 10
372.854520
 20
134.164120
 30
0.0
 10
371.898990
 20
134.664710
 30
0.0
  0
SPLINE
  5
1db
100
AcDbEntity
  8
Draft
 62
7
100
AcDbSpline
 70
8
 71
3
 72
8
 73
4
 74
0
 40
0
 40
0
 40
0
 40
0
 40
1
 40
1
 40
1
 40
1
 10
371.898990
 20
134.664710
 30
0.0
 10
370.832390
 20
135.223490
 30
0.0
 10
368.850670
 20
135.241900
 30
0.0
 10
367.841880
 20
134.702410
 30
0.0
  0
SPLINE
  5
1dc
100
AcDbEntity
  8
Draft
 62
7
100
AcDbSpline
 70
8
 71
3
 72
8
 73
4
 74
0
 40
0
 40
0
 40
0
 40
0
 40
1
 40
1
 40
1
 40
1
 10
367.841880
 20
134.702410
 30
0.0
 10
366.926860
 20
134.213060
 30
0.0
 10
366.128560
 20
133.357370
 30
0.0
 10
365.697400
 20
132.403760
 30
0.0
  0
SPLINE
  5
1dd
100
AcDbEntity
  8
Draft
 62
7
100
AcDbSpline
 70
8
 71
3
 72
8
 73
4
 74
0
 40
0
 40
0
 40
0
 40
0
 40
1
 40
1
 40
1
 40
1
 10
365.697400
 20
132.403760
 30
0.0
 10
365.360080
 20
131.657710
 30
0.0
 10
365.345980
 20
131.299590
 30
0.0
 10
365.342340
 20
123.383150
 30
0.0
  0
LWPOLYLINE
  5
1de
100
AcDbEntity
  8
Draft
 62
7
100
AcDbPolyline
 90
5
 70
0
 10
379.802210
 20
123.722150
 30
0.0
 10
379.858410
 20
115.126880
 30
0.0
 10
377.182690
 20
115.148380
 30
0.0
 10
374.506960
 20
115.169880
 30
0.0
 10
374.454660
 20
123.398370
 30
0.0
  0
SPLINE
  5
1df
100
AcDbEntity
  8
Draft
 62
7
100
AcDbSpline
 70
8
 71
3
 72
8
 73
4
 74
0
 40
0
 40
0
 40
0
 40
0
 40
1
 40
1
 40
1
 40
1
 10
369.215860
 20
123.254700
 30
0.0
 10
367.910140
 20
123.439820
 30
0.0
 10
366.734560
 20
124.405170
 30
0.0
 10
366.293900
 20
125.654120
 30
0.0
  0
SPLINE
  5
1e0
100
AcDbEntity
  8
Draft
 62
7
100
AcDbSpline
 70
8
 71
3
 72
8
 73
4
 74
0
 40
0
 40
0
 40
0
 40
0
 40
1
 40
1
 40
1
 40
1
 10
366.293900
 20
125.654120
 30
0.0
 10
365.735060
 20
127.238070
 30
0.0
 10
366.112040
 20
128.710670
 30
0.0
 10
367.365710
 20
129.840950
 30
0.0
  0
SPLINE
  5
1e1
100
AcDbEntity
  8
Draft
 62
7
100
AcDbSpline
 70
8
 71
3
 72
8
 73
4
 74
0
 40
0
 40
0
 40
0
 40
0
 40
1
 40
1
 40
1
 40
1
 10
367.365710
 20
129.840950
 30
0.0
 10
368.833550
 20
131.164310
 30
0.0
 10
371.089200
 20
131.085600
 30
0.0
 10
372.504680
 20
129.661630
 30
0.0
  0
SPLINE
  5
1e2
100
AcDbEntity
  8
Draft
 62
7
100
AcDbSpline
 70
8
 71
3
 72
8
 73
4
 74
0
 40
0
 40
0
 40
0
 40
0
 40
1
 40
1
 40
1
 40
1
 10
372.504680
 20
129.661630
 30
0.0
 10
375.115430
 20
127.035210
 30
0.0
 10
372.906240
 20
122.731500
 30
0.0
 10
369.215860
 20
123.254700
 30
0.0
  0
LWPOLYLINE
  5
1e3
100
AcDbEntity
  8
Draft
 62
7
100
AcDbPolyline
 90
5
 70
0
 10
365.342340
 20
123.383150
 30
0.0
 10
365.338340
 20
115.139440
 30
0.0
 10
362.662360
 20
115.139440
 30
0.0
 10
359.986390
 20
115.139440
 30
0.0
 10
359.986590
 20
123.402740
 30
0.0
  0
SPLINE
  5
1e4
100
AcDbEntity
  8
Draft
 62
7
100
AcDbSpline
 70
8
 71
3
 72
8
 73
4
 74
0
 40
0
 40
0
 40
0
 40
0
 40
1
 40
1
 40
1
 40
1
 10
387.852990
 20
115.187000
 30
0.0
 10
384.747800
 20
116.245780
 30
0.0
 10
382.433470
 20
118.987590
 30
0.0
 10
381.991280
 20
122.131430
 30
0.0
  0
SPLINE
  5
1e5
100
AcDbEntity
  8
Draft
 62
7
100
AcDbSpline
 70
8
 71
3
 72
8
 73
4
 74
0
 40
0
 40
0
 40
0
 40
0
 40
1
 40
1
 40
1
 40
1
 10
381.991280
 20
122.131430
 30
0.0
 10
381.897780
 20
122.796110
 30
0.0
 10
381.819770
 20
127.088450
 30
0.0
 10
381.817880
 20
131.669970
 30
0.0
  0
LWPOLYLINE
  5
1e6
100
AcDbEntity
  8
Draft
 62
7
100
AcDbPolyline
 90
1
 70
1
 10
369.215860
 20
123.254700
 30
0.0
  0
SPLINE
  5
1e7
100
AcDbEntity
  8
Draft
 62
7
100
AcDbSpline
 70
8
 71
3
 72
8
 73
4
 74
0
 40
0
 40
0
 40
0
 40
0
 40
1
 40
1
 40
1
 40
1
 10
387.339470
 20
131.272950
 30
0.0
 10
387.339470
 20
121.964360
 30
0.0
 10
387.329070
 20
122.090260
 30
0.0
 10
388.180340
 20
121.120360
 30
0.0
  0
SPLINE
  5
1e8
100
AcDbEntity
  8
Draft
 62
7
100
AcDbSpline
 70
8
 71
3
 72
8
 73
4
 74
0
 40
0
 40
0
 40
0
 40
0
 40
1
 40
1
 40
1
 40
1
 10
388.180340
 20
121.120360
 30
0.0
 10
389.055170
 20
120.123650
 30
0.0
 10
391.125570
 20
119.820000
 30
0.0
 10
392.175080
 20
120.534480
 30
0.0
  0
SPLINE
  5
1e9
100
AcDbEntity
  8
Draft
 62
7
100
AcDbSpline
 70
8
 71
3
 72
8
 73
4
 74
0
 40
0
 40
0
 40
0
 40
0
 40
1
 40
1
 40
1
 40
1
 10
392.175080
 20
120.534480
 30
0.0
 10
392.488910
 20
120.748130
 30
0.0
 10
392.985950
 20
121.221400
 30
0.0
 10
393.279630
 20
121.586200
 30
0.0
  0
LWPOLYLINE
  5
1ea
100
AcDbEntity
  8
Draft
 62
7
100
AcDbPolyline
 90
5
 70
0
 10
381.817880
 20
131.669970
 30
0.0
 10
381.814880
 20
140.000000
 30
0.0
 10
384.577180
 20
140.000000
 30
0.0
 10
387.339470
 20
140.000000
 30
0.0
 10
387.339470
 20
131.272950
 30
0.0
  0
SPLINE
  5
1eb
100
AcDbEntity
  8
Draft
 62
7
100
AcDbSpline
 70
8
 71
3
 72
8
 73
4
 74
0
 40
0
 40
0
 40
0
 40
0
 40
1
 40
1
 40
1
 40
1
 10
399.114930
 20
131.238360
 30
0.0
 10
399.172230
 20
121.318350
 30
0.0
 10
399.094230
 20
121.866860
 30
0.0
 10
400.611430
 20
120.709650
 30
0.0
  0
SPLINE
  5
1ec
100
AcDbEntity
  8
Draft
 62
7
100
AcDbSpline
 70
8
 71
3
 72
8
 73
4
 74
0
 40
0
 40
0
 40
0
 40
0
 40
1
 40
1
 40
1
 40
1
 10
400.611430
 20
120.709650
 30
0.0
 10
401.255160
 20
120.218670
 30
0.0
 10
401.483250
 20
120.146030
 30
0.0
 10
402.381400
 20
120.146030
 30
0.0
  0
SPLINE
  5
1ed
100
AcDbEntity
  8
Draft
 62
7
100
AcDbSpline
 70
8
 71
3
 72
8
 73
4
 74
0
 40
0
 40
0
 40
0
 40
0
 40
1
 40
1
 40
1
 40
1
 10
402.381400
 20
120.146030
 30
0.0
 10
402.948450
 20
120.146030
 30
0.0
 10
403.630090
 20
120.258600
 30
0.0
 10
403.896140
 20
120.396180
 30
0.0
  0
SPLINE
  5
1ee
100
AcDbEntity
  8
Draft
 62
7
100
AcDbSpline
 70
8
 71
3
 72
8
 73
4
 74
0
 40
0
 40
0
 40
0
 40
0
 40
1
 40
1
 40
1
 40
1
 10
403.896140
 20
120.396180
 30
0.0
 10
404.599250
 20
120.759770
 30
0.0
 10
405.420660
 20
121.764070
 30
0.0
 10
405.629240
 20
122.515160
 30
0.0
  0
SPLINE
  5
1ef
100
AcDbEntity
  8
Draft
 62
7
100
AcDbSpline
 70
8
 71
3
 72
8
 73
4
 74
0
 40
0
 40
0
 40
0
 40
0
 40
1
 40
1
 40
1
 40
1
 10
405.629240
 20
122.515160
 30
0.0
 10
405.744150
 20
122.928940
 30
0.0
 10
405.810690
 20
126.243370
 30
0.0
 10
405.811300
 20
131.583640
 30
0.0
  0
LWPOLYLINE
  5
1f0
100
AcDbEntity
  8
Draft
 62
7
100
AcDbPolyline
 90
7
 70
0
 10
393.279630
 20
121.586200
 30
0.0
 10
393.813590
 20
122.249480
 30
0.0
 10
393.862690
 20
131.124740
 30
0.0
 10
393.911790
 20
140.000000
 30
0.0
 10
396.488060
 20
140.000000
 30
0.0
 10
399.064330
 20
140.000000
 30
0.0
 10
399.114930
 20
131.238360
 30
0.0
  0
SPLINE
  5
1f1
100
AcDbEntity
  8
Draft
 62
7
100
AcDbSpline
 70
8
 71
3
 72
8
 73
4
 74
0
 40
0
 40
0
 40
0
 40
0
 40
1
 40
1
 40
1
 40
1
 10
410.991570
 20
131.058830
 30
0.0
 10
410.991570
 20
123.582780
 30
0.0
 10
410.948170
 20
121.951160
 30
0.0
 10
410.726930
 20
121.101610
 30
0.0
  0
SPLINE
  5
1f2
100
AcDbEntity
  8
Draft
 62
7
100
AcDbSpline
 70
8
 71
3
 72
8
 73
4
 74
0
 40
0
 40
0
 40
0
 40
0
 40
1
 40
1
 40
1
 40
1
 10
410.726930
 20
121.101610
 30
0.0
 10
409.762240
 20
117.397920
 30
0.0
 10
406.384720
 20
114.794090
 30
0.0
 10
402.545210
 20
114.794090
 30
0.0
  0
SPLINE
  5
1f3
100
AcDbEntity
  8
Draft
 62
7
100
AcDbSpline
 70
8
 71
3
 72
8
 73
4
 74
0
 40
0
 40
0
 40
0
 40
0
 40
1
 40
1
 40
1
 40
1
 10
402.545210
 20
114.794090
 30
0.0
 10
400.511180
 20
114.794090
 30
0.0
 10
398.993040
 20
115.336260
 30
0.0
 10
397.403940
 20
116.630160
 30
0.0
  0
LWPOLYLINE
  5
1f4
100
AcDbEntity
  8
Draft
 62
7
100
AcDbPolyline
 90
5
 70
0
 10
405.811300
 20
131.583640
 30
0.0
 10
405.812280
 20
140.000000
 30
0.0
 10
408.401920
 20
140.000000
 30
0.0
 10
410.991570
 20
140.000000
 30
0.0
 10
410.991570
 20
131.058830
 30
0.0
  0
SPLINE
  5
1f5
100
AcDbEntity
  8
Draft
 62
7
100
AcDbSpline
 70
8
 71
3
 72
8
 73
4
 74
0
 40
0
 40
0
 40
0
 40
0
 40
1
 40
1
 40
1
 40
1
 10
395.867300
 20
116.602070
 30
0.0
 10
394.174990
 20
115.310300
 30
0.0
 10
392.620820
 20
114.792040
 30
0.0
 10
390.458860
 20
114.798550
 30
0.0
  0
SPLINE
  5
1f6
100
AcDbEntity
  8
Draft
 62
7
100
AcDbSpline
 70
8
 71
3
 72
8
 73
4
 74
0
 40
0
 40
0
 40
0
 40
0
 40
1
 40
1
 40
1
 40
1
 10
390.458860
 20
114.798550
 30
0.0
 10
389.391850
 20
114.801550
 30
0.0
 10
388.665700
 20
114.910030
 30
0.0
 10
387.853400
 20
115.187000
 30
0.0
  0
LWPOLYLINE
  5
1f7
100
AcDbEntity
  8
Draft
 62
7
100
AcDbPolyline
 90
3
 70
0
 10
397.403940
 20
116.630160
 30
0.0
 10
396.678240
 20
117.221070
 30
0.0
 10
395.867300
 20
116.602070
 30
0.0
  0
SPLINE
  5
1f8
100
AcDbEntity
  8
Draft
 62
7
100
AcDbSpline
 70
8
 71
3
 72
8
 73
4
 74
0
 40
0
 40
0
 40
0
 40
0
 40
1
 40
1
 40
1
 40
1
 10
246.038110
 20
80.187000
 30
0.0
 10
242.932920
 20
81.245780
 30
0.0
 10
240.618590
 20
83.987590
 30
0.0
 10
240.176400
 20
87.131430
 30
0.0
  0
SPLINE
  5
1f9
100
AcDbEntity
  8
Draft
 62
7
100
AcDbSpline
 70
8
 71
3
 72
8
 73
4
 74
0
 40
0
 40
0
 40
0
 40
0
 40
1
 40
1
 40
1
 40
1
 10
240.176400
 20
87.131430
 30
0.0
 10
240.082900
 20
87.796110
 30
0.0
 10
240.004890
 20
92.088450
 30
0.0
 10
240.003000
 20
96.669970
 30
0.0
  0
LWPOLYLINE
  5
1fa
100
AcDbEntity
  8
Draft
 62
7
100
AcDbPolyline
 90
2
 70
0
 10
387.853400
 20
115.187000
 30
0.0
 10
387.852990
 20
115.187000
 30
0.0
  0
SPLINE
  5
1fb
100
AcDbEntity
  8
Draft
 62
7
100
AcDbSpline
 70
8
 71
3
 72
8
 73
4
 74
0
 40
0
 40
0
 40
0
 40
0
 40
1
 40
1
 40
1
 40
1
 10
245.524590
 20
96.272950
 30
0.0
 10
245.524590
 20
86.964360
 30
0.0
 10
245.514190
 20
87.090260
 30
0.0
 10
246.365460
 20
86.120360
 30
0.0
  0
SPLINE
  5
1fc
100
AcDbEntity
  8
Draft
 62
7
100
AcDbSpline
 70
8
 71
3
 72
8
 73
4
 74
0
 40
0
 40
0
 40
0
 40
0
 40
1
 40
1
 40
1
 40
1
 10
246.365460
 20
86.120360
 30
0.0
 10
247.240290
 20
85.123650
 30
0.0
 10
249.310690
 20
84.820000
 30
0.0
 10
250.360200
 20
85.534480
 30
0.0
  0
SPLINE
  5
1fd
100
AcDbEntity
  8
Draft
 62
7
100
AcDbSpline
 70
8
 71
3
 72
8
 73
4
 74
0
 40
0
 40
0
 40
0
 40
0
 40
1
 40
1
 40
1
 40
1
 10
250.360200
 20
85.534480
 30
0.0
 10
250.674030
 20
85.748130
 30
0.0
 10
251.171070
 20
86.221400
 30
0.0
 10
251.464750
 20
86.586200
 30
0.0
  0
LWPOLYLINE
  5
1fe
100
AcDbEntity
  8
Draft
 62
7
100
AcDbPolyline
 90
5
 70
0
 10
240.003000
 20
96.669970
 30
0.0
 10
240.000000
 20
105.000000
 30
0.0
 10
242.762300
 20
105.000000
 30
0.0
 10
245.524590
 20
105.000000
 30
0.0
 10
245.524590
 20
96.272950
 30
0.0
  0
SPLINE
  5
1ff
100
AcDbEntity
  8
Draft
 62
7
100
AcDbSpline
 70
8
 71
3
 72
8
 73
4
 74
0
 40
0
 40
0
 40
0
 40
0
 40
1
 40
1
 40
1
 40
1
 10
257.300050
 20
96.238360
 30
0.0
 10
257.357350
 20
86.318350
 30
0.0
 10
257.279350
 20
86.866860
 30
0.0
 10
258.796550
 20
85.709650
 30
0.0
  0
SPLINE
  5
200
100
AcDbEntity
  8
Draft
 62
7
100
AcDbSpline
 70
8
 71
3
 72
8
 73
4
 74
0
 40
0
 40
0
 40
0
 40
0
 40
1
 40
1
 40
1
 40
1
 10
258.796550
 20
85.709650
 30
0.0
 10
259.440280
 20
85.218670
 30
0.0
 10
259.668370
 20
85.146030
 30
0.0
 10
260.566520
 20
85.146030
 30
0.0
  0
SPLINE
  5
201
100
AcDbEntity
  8
Draft
 62
7
100
AcDbSpline
 70
8
 71
3
 72
8
 73
4
 74
0
 40
0
 40
0
 40
0
 40
0
 40
1
 40
1
 40
1
 40
1
 10
260.566520
 20
85.146030
 30
0.0
 10
261.133570
 20
85.146030
 30
0.0
 10
261.815210
 20
85.258600
 30
0.0
 10
262.081260
 20
85.396180
 30
0.0
  0
SPLINE
  5
202
100
AcDbEntity
  8
Draft
 62
7
100
AcDbSpline
 70
8
 71
3
 72
8
 73
4
 74
0
 40
0
 40
0
 40
0
 40
0
 40
1
 40
1
 40
1
 40
1
 10
262.081260
 20
85.396180
 30
0.0
 10
262.784370
 20
85.759770
 30
0.0
 10
263.605780
 20
86.764070
 30
0.0
 10
263.814360
 20
87.515160
 30
0.0
  0
SPLINE
  5
203
100
AcDbEntity
  8
Draft
 62
7
100
AcDbSpline
 70
8
 71
3
 72
8
 73
4
 74
0
 40
0
 40
0
 40
0
 40
0
 40
1
 40
1
 40
1
 40
1
 10
263.814360
 20
87.515160
 30
0.0
 10
263.929270
 20
87.928940
 30
0.0
 10
263.995810
 20
91.243370
 30
0.0
 10
263.996420
 20
96.583640
 30
0.0
  0
LWPOLYLINE
  5
204
100
AcDbEntity
  8
Draft
 62
7
100
AcDbPolyline
 90
7
 70
0
 10
251.464750
 20
86.586200
 30
0.0
 10
251.998710
 20
87.249480
 30
0.0
 10
252.047810
 20
96.124740
 30
0.0
 10
252.096910
 20
105.000000
 30
0.0
 10
254.673180
 20
105.000000
 30
0.0
 10
257.249450
 20
105.000000
 30
0.0
 10
257.300050
 20
96.238360
 30
0.0
  0
SPLINE
  5
205
100
AcDbEntity
  8
Draft
 62
7
100
AcDbSpline
 70
8
 71
3
 72
8
 73
4
 74
0
 40
0
 40
0
 40
0
 40
0
 40
1
 40
1
 40
1
 40
1
 10
269.176690
 20
96.058830
 30
0.0
 10
269.176690
 20
88.582780
 30
0.0
 10
269.133290
 20
86.951160
 30
0.0
 10
268.912050
 20
86.101610
 30
0.0
  0
SPLINE
  5
206
100
AcDbEntity
  8
Draft
 62
7
100
AcDbSpline
 70
8
 71
3
 72
8
 73
4
 74
0
 40
0
 40
0
 40
0
 40
0
 40
1
 40
1
 40
1
 40
1
 10
268.912050
 20
86.101610
 30
0.0
 10
267.947360
 20
82.397920
 30
0.0
 10
264.569840
 20
79.794090
 30
0.0
 10
260.730330
 20
79.794090
 30
0.0
  0
SPLINE
  5
207
100
AcDbEntity
  8
Draft
 62
7
100
AcDbSpline
 70
8
 71
3
 72
8
 73
4
 74
0
 40
0
 40
0
 40
0
 40
0
 40
1
 40
1
 40
1
 40
1
 10
260.730330
 20
79.794090
 30
0.0
 10
258.696300
 20
79.794090
 30
0.0
 10
257.178160
 20
80.336260
 30
0.0
 10
255.589060
 20
81.630160
 30
0.0
  0
LWPOLYLINE
  5
208
100
AcDbEntity
  8
Draft
 62
7
100
AcDbPolyline
 90
5
 70
0
 10
263.996420
 20
96.583640
 30
0.0
 10
263.997400
 20
105.000000
 30
0.0
 10
266.587040
 20
105.000000
 30
0.0
 10
269.176690
 20
105.000000
 30
0.0
 10
269.176690
 20
96.058830
 30
0.0
  0
SPLINE
  5
209
100
AcDbEntity
  8
Draft
 62
7
100
AcDbSpline
 70
8
 71
3
 72
8
 73
4
 74
0
 40
0
 40
0
 40
0
 40
0
 40
1
 40
1
 40
1
 40
1
 10
254.052420
 20
81.602070
 30
0.0
 10
252.360110
 20
80.310300
 30
0.0
 10
250.805940
 20
79.792040
 30
0.0
 10
248.643980
 20
79.798550
 30
0.0
  0
SPLINE
  5
20a
100
AcDbEntity
  8
Draft
 62
7
100
AcDbSpline
 70
8
 71
3
 72
8
 73
4
 74
0
 40
0
 40
0
 40
0
 40
0
 40
1
 40
1
 40
1
 40
1
 10
248.643980
 20
79.798550
 30
0.0
 10
247.576970
 20
79.801550
 30
0.0
 10
246.850820
 20
79.910030
 30
0.0
 10
246.038520
 20
80.187000
 30
0.0
  0
LWPOLYLINE
  5
20b
100
AcDbEntity
  8
Draft
 62
7
100
AcDbPolyline
 90
3
 70
0
 10
255.589060
 20
81.630160
 30
0.0
 10
254.863360
 20
82.221070
 30
0.0
 10
254.052420
 20
81.602070
 30
0.0
  0
SPLINE
  5
20c
100
AcDbEntity
  8
Draft
 62
7
100
AcDbSpline
 70
8
 71
3
 72
8
 73
4
 74
0
 40
0
 40
0
 40
0
 40
0
 40
1
 40
1
 40
1
 40
1
 10
271.423640
 20
88.210450
 30
0.0
 10
271.426640
 20
97.335350
 30
0.0
 10
271.473340
 20
97.791710
 30
0.0
 10
272.629480
 20
100.089420
 30
0.0
  0
SPLINE
  5
20d
100
AcDbEntity
  8
Draft
 62
7
100
AcDbSpline
 70
8
 71
3
 72
8
 73
4
 74
0
 40
0
 40
0
 40
0
 40
0
 40
1
 40
1
 40
1
 40
1
 10
272.629480
 20
100.089420
 30
0.0
 10
274.230670
 20
103.271650
 30
0.0
 10
277.878970
 20
105.527990
 30
0.0
 10
281.402070
 20
105.514930
 30
0.0
  0
SPLINE
  5
20e
100
AcDbEntity
  8
Draft
 62
7
100
AcDbSpline
 70
8
 71
3
 72
8
 73
4
 74
0
 40
0
 40
0
 40
0
 40
0
 40
1
 40
1
 40
1
 40
1
 10
281.402070
 20
105.514930
 30
0.0
 10
285.041700
 20
105.501430
 30
0.0
 10
288.640420
 20
103.229520
 30
0.0
 10
290.232590
 20
99.940100
 30
0.0
  0
SPLINE
  5
20f
100
AcDbEntity
  8
Draft
 62
7
100
AcDbSpline
 70
8
 71
3
 72
8
 73
4
 74
0
 40
0
 40
0
 40
0
 40
0
 40
1
 40
1
 40
1
 40
1
 10
290.232590
 20
99.940100
 30
0.0
 10
290.613400
 20
99.153360
 30
0.0
 10
291.003630
 20
98.094840
 30
0.0
 10
291.099790
 20
97.587830
 30
0.0
  0
SPLINE
  5
210
100
AcDbEntity
  8
Draft
 62
7
100
AcDbSpline
 70
8
 71
3
 72
8
 73
4
 74
0
 40
0
 40
0
 40
0
 40
0
 40
1
 40
1
 40
1
 40
1
 10
291.099790
 20
97.587830
 30
0.0
 10
291.202510
 20
97.046160
 30
0.0
 10
291.274610
 20
93.258240
 30
0.0
 10
291.274610
 20
88.402690
 30
0.0
  0
LWPOLYLINE
  5
211
100
AcDbEntity
  8
Draft
 62
7
100
AcDbPolyline
 90
2
 70
0
 10
246.038520
 20
80.187000
 30
0.0
 10
246.038110
 20
80.187000
 30
0.0
  0
SPLINE
  5
212
100
AcDbEntity
  8
Draft
 62
7
100
AcDbSpline
 70
8
 71
3
 72
8
 73
4
 74
0
 40
0
 40
0
 40
0
 40
0
 40
1
 40
1
 40
1
 40
1
 10
285.885730
 20
88.555740
 30
0.0
 10
285.831130
 20
97.858020
 30
0.0
 10
285.893730
 20
97.328590
 30
0.0
 10
284.684110
 20
98.706360
 30
0.0
  0
SPLINE
  5
213
100
AcDbEntity
  8
Draft
 62
7
100
AcDbSpline
 70
8
 71
3
 72
8
 73
4
 74
0
 40
0
 40
0
 40
0
 40
0
 40
1
 40
1
 40
1
 40
1
 10
284.684110
 20
98.706360
 30
0.0
 10
282.642090
 20
101.032100
 30
0.0
 10
278.741140
 20
100.460060
 30
0.0
 10
277.352080
 20
97.631190
 30
0.0
  0
LWPOLYLINE
  5
214
100
AcDbEntity
  8
Draft
 62
7
100
AcDbPolyline
 90
5
 70
0
 10
291.274610
 20
88.402690
 30
0.0
 10
291.274610
 20
80.139380
 30
0.0
 10
288.604870
 20
80.139380
 30
0.0
 10
285.935130
 20
80.139380
 30
0.0
 10
285.885730
 20
88.555740
 30
0.0
  0
SPLINE
  5
215
100
AcDbEntity
  8
Draft
 62
7
100
AcDbSpline
 70
8
 71
3
 72
8
 73
4
 74
0
 40
0
 40
0
 40
0
 40
0
 40
1
 40
1
 40
1
 40
1
 10
298.423260
 20
80.317310
 30
0.0
 10
296.553310
 20
80.688050
 30
0.0
 10
294.876980
 20
82.001440
 30
0.0
 10
294.066280
 20
83.730960
 30
0.0
  0
LWPOLYLINE
  5
216
100
AcDbEntity
  8
Draft
 62
7
100
AcDbPolyline
 90
8
 70
0
 10
277.352080
 20
97.631190
 30
0.0
 10
276.858890
 20
96.626810
 30
0.0
 10
276.807890
 20
88.383090
 30
0.0
 10
276.756890
 20
80.139380
 30
0.0
 10
274.088740
 20
80.139380
 30
0.0
 10
271.420580
 20
80.139380
 30
0.0
 10
271.423580
 20
88.210450
 30
0.0
 10
271.423640
 20
88.210450
 30
0.0
  0
SPLINE
  5
217
100
AcDbEntity
  8
Draft
 62
7
100
AcDbSpline
 70
8
 71
3
 72
8
 73
4
 74
0
 40
0
 40
0
 40
0
 40
0
 40
1
 40
1
 40
1
 40
1
 10
298.870910
 20
95.607850
 30
0.0
 10
298.870910
 20
87.134530
 30
0.0
 10
298.902110
 20
86.002810
 30
0.0
 10
299.142210
 20
85.762700
 30
0.0
  0
SPLINE
  5
218
100
AcDbEntity
  8
Draft
 62
7
100
AcDbSpline
 70
8
 71
3
 72
8
 73
4
 74
0
 40
0
 40
0
 40
0
 40
0
 40
1
 40
1
 40
1
 40
1
 10
299.142210
 20
85.762700
 30
0.0
 10
299.374030
 20
85.530870
 30
0.0
 10
300.027090
 20
85.491400
 30
0.0
 10
303.630930
 20
85.491400
 30
0.0
  0
LWPOLYLINE
  5
219
100
AcDbEntity
  8
Draft
 62
7
100
AcDbPolyline
 90
7
 70
0
 10
294.066280
 20
83.730960
 30
0.0
 10
293.605290
 20
84.714430
 30
0.0
 10
293.605290
 20
94.900370
 30
0.0
 10
293.605290
 20
105.086320
 30
0.0
 10
296.238100
 20
105.134020
 30
0.0
 10
298.870910
 20
105.181720
 30
0.0
 10
298.870910
 20
95.607850
 30
0.0
  0
SPLINE
  5
21a
100
AcDbEntity
  8
Draft
 62
7
100
AcDbSpline
 70
8
 71
3
 72
8
 73
4
 74
0
 40
0
 40
0
 40
0
 40
0
 40
1
 40
1
 40
1
 40
1
 10
303.489110
 20
80.158360
 30
0.0
 10
301.091530
 20
80.168760
 30
0.0
 10
298.811900
 20
80.240360
 30
0.0
 10
298.423260
 20
80.317370
 30
0.0
  0
LWPOLYLINE
  5
21b
100
AcDbEntity
  8
Draft
 62
7
100
AcDbPolyline
 90
5
 70
0
 10
303.630930
 20
85.491400
 30
0.0
 10
307.848350
 20
85.491400
 30
0.0
 10
307.848350
 20
82.815430
 30
0.0
 10
307.848350
 20
80.139460
 30
0.0
 10
303.489110
 20
80.158360
 30
0.0
  0
SPLINE
  5
21c
100
AcDbEntity
  8
Draft
 62
7
100
AcDbSpline
 70
8
 71
3
 72
8
 73
4
 74
0
 40
0
 40
0
 40
0
 40
0
 40
1
 40
1
 40
1
 40
1
 10
328.565540
 20
88.994280
 30
0.0
 10
328.565540
 20
98.604020
 30
0.0
 10
328.585740
 20
98.847120
 30
0.0
 10
329.549310
 20
100.856610
 30
0.0
  0
SPLINE
  5
21d
100
AcDbEntity
  8
Draft
 62
7
100
AcDbSpline
 70
8
 71
3
 72
8
 73
4
 74
0
 40
0
 40
0
 40
0
 40
0
 40
1
 40
1
 40
1
 40
1
 10
329.549310
 20
100.856610
 30
0.0
 10
330.507050
 20
102.853850
 30
0.0
 10
333.134270
 20
104.849120
 30
0.0
 10
335.436600
 20
105.327780
 30
0.0
  0
SPLINE
  5
21e
100
AcDbEntity
  8
Draft
 62
7
100
AcDbSpline
 70
8
 71
3
 72
8
 73
4
 74
0
 40
0
 40
0
 40
0
 40
0
 40
1
 40
1
 40
1
 40
1
 10
335.436600
 20
105.327780
 30
0.0
 10
337.969470
 20
105.854360
 30
0.0
 10
340.750090
 20
105.205510
 30
0.0
 10
342.545140
 20
103.669020
 30
0.0
  0
SPLINE
  5
21f
100
AcDbEntity
  8
Draft
 62
7
100
AcDbSpline
 70
8
 71
3
 72
8
 73
4
 74
0
 40
0
 40
0
 40
0
 40
0
 40
1
 40
1
 40
1
 40
1
 10
342.545140
 20
103.669020
 30
0.0
 10
342.910140
 20
103.356590
 30
0.0
 10
343.242800
 20
103.100970
 30
0.0
 10
343.284390
 20
103.100970
 30
0.0
  0
SPLINE
  5
220
100
AcDbEntity
  8
Draft
 62
7
100
AcDbSpline
 70
8
 71
3
 72
8
 73
4
 74
0
 40
0
 40
0
 40
0
 40
0
 40
1
 40
1
 40
1
 40
1
 10
343.284390
 20
103.100970
 30
0.0
 10
343.325990
 20
103.100970
 30
0.0
 10
343.546700
 20
103.263530
 30
0.0
 10
343.774880
 20
103.462200
 30
0.0
  0
SPLINE
  5
221
100
AcDbEntity
  8
Draft
 62
7
100
AcDbSpline
 70
8
 71
3
 72
8
 73
4
 74
0
 40
0
 40
0
 40
0
 40
0
 40
1
 40
1
 40
1
 40
1
 10
343.774880
 20
103.462200
 30
0.0
 10
344.540220
 20
104.128590
 30
0.0
 10
346.213280
 20
105.014370
 30
0.0
 10
347.184340
 20
105.267300
 30
0.0
  0
SPLINE
  5
222
100
AcDbEntity
  8
Draft
 62
7
100
AcDbSpline
 70
8
 71
3
 72
8
 73
4
 74
0
 40
0
 40
0
 40
0
 40
0
 40
1
 40
1
 40
1
 40
1
 10
347.184340
 20
105.267300
 30
0.0
 10
348.383020
 20
105.579520
 30
0.0
 10
350.134460
 20
105.586230
 30
0.0
 10
351.268110
 20
105.283000
 30
0.0
  0
SPLINE
  5
223
100
AcDbEntity
  8
Draft
 62
7
100
AcDbSpline
 70
8
 71
3
 72
8
 73
4
 74
0
 40
0
 40
0
 40
0
 40
0
 40
1
 40
1
 40
1
 40
1
 10
351.268110
 20
105.283000
 30
0.0
 10
354.338280
 20
104.461660
 30
0.0
 10
356.917330
 20
101.738890
 30
0.0
 10
357.553880
 20
98.646970
 30
0.0
  0
SPLINE
  5
224
100
AcDbEntity
  8
Draft
 62
7
100
AcDbSpline
 70
8
 71
3
 72
8
 73
4
 74
0
 40
0
 40
0
 40
0
 40
0
 40
1
 40
1
 40
1
 40
1
 10
357.553880
 20
98.646970
 30
0.0
 10
357.675480
 20
98.056300
 30
0.0
 10
357.742230
 20
94.614860
 30
0.0
 10
357.742230
 20
88.935790
 30
0.0
  0
LWPOLYLINE
  5
225
100
AcDbEntity
  8
Draft
 62
7
100
AcDbPolyline
 90
1
 70
1
 10
298.423260
 20
80.317370
 30
0.0
  0
SPLINE
  5
226
100
AcDbEntity
  8
Draft
 62
7
100
AcDbSpline
 70
8
 71
3
 72
8
 73
4
 74
0
 40
0
 40
0
 40
0
 40
0
 40
1
 40
1
 40
1
 40
1
 10
352.390290
 20
88.889780
 30
0.0
 10
352.390290
 20
97.358830
 30
0.0
 10
352.378890
 20
97.663570
 30
0.0
 10
352.036320
 20
98.371290
 30
0.0
  0
SPLINE
  5
227
100
AcDbEntity
  8
Draft
 62
7
100
AcDbSpline
 70
8
 71
3
 72
8
 73
4
 74
0
 40
0
 40
0
 40
0
 40
0
 40
1
 40
1
 40
1
 40
1
 10
352.036320
 20
98.371290
 30
0.0
 10
351.537940
 20
99.400790
 30
0.0
 10
350.690030
 20
99.997880
 30
0.0
 10
349.560940
 20
100.114410
 30
0.0
  0
SPLINE
  5
228
100
AcDbEntity
  8
Draft
 62
7
100
AcDbSpline
 70
8
 71
3
 72
8
 73
4
 74
0
 40
0
 40
0
 40
0
 40
0
 40
1
 40
1
 40
1
 40
1
 10
349.560940
 20
100.114410
 30
0.0
 10
349.055430
 20
100.166610
 30
0.0
 10
348.373330
 20
100.120410
 30
0.0
 10
348.045150
 20
100.012340
 30
0.0
  0
SPLINE
  5
229
100
AcDbEntity
  8
Draft
 62
7
100
AcDbSpline
 70
8
 71
3
 72
8
 73
4
 74
0
 40
0
 40
0
 40
0
 40
0
 40
1
 40
1
 40
1
 40
1
 10
348.045150
 20
100.012340
 30
0.0
 10
347.306120
 20
99.768440
 30
0.0
 10
346.285980
 20
98.721310
 30
0.0
 10
346.025380
 20
97.939130
 30
0.0
  0
SPLINE
  5
22a
100
AcDbEntity
  8
Draft
 62
7
100
AcDbSpline
 70
8
 71
3
 72
8
 73
4
 74
0
 40
0
 40
0
 40
0
 40
0
 40
1
 40
1
 40
1
 40
1
 10
346.025380
 20
97.939130
 30
0.0
 10
345.890240
 20
97.533510
 30
0.0
 10
345.829850
 20
94.694330
 30
0.0
 10
345.829850
 20
88.745880
 30
0.0
  0
LWPOLYLINE
  5
22b
100
AcDbEntity
  8
Draft
 62
7
100
AcDbPolyline
 90
5
 70
0
 10
357.742230
 20
88.935790
 30
0.0
 10
357.742230
 20
80.139480
 30
0.0
 10
355.066260
 20
80.139480
 30
0.0
 10
352.390290
 20
80.139480
 30
0.0
 10
352.390290
 20
88.889780
 30
0.0
  0
SPLINE
  5
22c
100
AcDbEntity
  8
Draft
 62
7
100
AcDbSpline
 70
8
 71
3
 72
8
 73
4
 74
0
 40
0
 40
0
 40
0
 40
0
 40
1
 40
1
 40
1
 40
1
 10
343.258680
 20
80.139480
 30
0.0
 10
341.073360
 20
80.139480
 30
0.0
 10
340.671770
 20
80.180480
 30
0.0
 10
340.582710
 20
80.412570
 30
0.0
  0
SPLINE
  5
22d
100
AcDbEntity
  8
Draft
 62
7
100
AcDbSpline
 70
8
 71
3
 72
8
 73
4
 74
0
 40
0
 40
0
 40
0
 40
0
 40
1
 40
1
 40
1
 40
1
 10
340.582710
 20
80.412570
 30
0.0
 10
340.525110
 20
80.562760
 30
0.0
 10
340.477910
 20
84.574020
 30
0.0
 10
340.477910
 20
89.326470
 30
0.0
  0
SPLINE
  5
22e
100
AcDbEntity
  8
Draft
 62
7
100
AcDbSpline
 70
8
 71
3
 72
8
 73
4
 74
0
 40
0
 40
0
 40
0
 40
0
 40
1
 40
1
 40
1
 40
1
 10
340.477910
 20
89.326470
 30
0.0
 10
340.477910
 20
97.875020
 30
0.0
 10
340.473910
 20
97.973730
 30
0.0
 10
340.105610
 20
98.569700
 30
0.0
  0
SPLINE
  5
22f
100
AcDbEntity
  8
Draft
 62
7
100
AcDbSpline
 70
8
 71
3
 72
8
 73
4
 74
0
 40
0
 40
0
 40
0
 40
0
 40
1
 40
1
 40
1
 40
1
 10
340.105610
 20
98.569700
 30
0.0
 10
338.707970
 20
100.831130
 30
0.0
 10
335.364630
 20
100.609250
 30
0.0
 10
334.243780
 20
98.180690
 30
0.0
  0
SPLINE
  5
230
100
AcDbEntity
  8
Draft
 62
7
100
AcDbSpline
 70
8
 71
3
 72
8
 73
4
 74
0
 40
0
 40
0
 40
0
 40
0
 40
1
 40
1
 40
1
 40
1
 10
334.243780
 20
98.180690
 30
0.0
 10
333.947480
 20
97.538690
 30
0.0
 10
333.924790
 20
96.879920
 30
0.0
 10
333.921260
 20
88.814800
 30
0.0
  0
LWPOLYLINE
  5
231
100
AcDbEntity
  8
Draft
 62
7
100
AcDbPolyline
 90
3
 70
0
 10
345.829850
 20
88.745880
 30
0.0
 10
345.829850
 20
80.139480
 30
0.0
 10
343.258680
 20
80.139480
 30
0.0
  0
SPLINE
  5
232
100
AcDbEntity
  8
Draft
 62
7
100
AcDbSpline
 70
8
 71
3
 72
8
 73
4
 74
0
 40
0
 40
0
 40
0
 40
0
 40
1
 40
1
 40
1
 40
1
 10
359.986590
 20
88.402740
 30
0.0
 10
359.986590
 20
93.138150
 30
0.0
 10
360.059790
 20
97.063070
 30
0.0
 10
360.158160
 20
97.595990
 30
0.0
  0
SPLINE
  5
233
100
AcDbEntity
  8
Draft
 62
7
100
AcDbSpline
 70
8
 71
3
 72
8
 73
4
 74
0
 40
0
 40
0
 40
0
 40
0
 40
1
 40
1
 40
1
 40
1
 10
360.158160
 20
97.595990
 30
0.0
 10
360.616320
 20
100.079310
 30
0.0
 10
362.696490
 20
102.908040
 30
0.0
 10
365.010720
 20
104.194750
 30
0.0
  0
SPLINE
  5
234
100
AcDbEntity
  8
Draft
 62
7
100
AcDbSpline
 70
8
 71
3
 72
8
 73
4
 74
0
 40
0
 40
0
 40
0
 40
0
 40
1
 40
1
 40
1
 40
1
 10
365.010720
 20
104.194750
 30
0.0
 10
366.295180
 20
104.908900
 30
0.0
 10
368.438450
 20
105.517980
 30
0.0
 10
369.667040
 20
105.517980
 30
0.0
  0
SPLINE
  5
235
100
AcDbEntity
  8
Draft
 62
7
100
AcDbSpline
 70
8
 71
3
 72
8
 73
4
 74
0
 40
0
 40
0
 40
0
 40
0
 40
1
 40
1
 40
1
 40
1
 10
369.667040
 20
105.517980
 30
0.0
 10
370.699750
 20
105.517980
 30
0.0
 10
372.818270
 20
105.112300
 30
0.0
 10
373.669340
 20
104.751570
 30
0.0
  0
SPLINE
  5
236
100
AcDbEntity
  8
Draft
 62
7
100
AcDbSpline
 70
8
 71
3
 72
8
 73
4
 74
0
 40
0
 40
0
 40
0
 40
0
 40
1
 40
1
 40
1
 40
1
 10
373.669340
 20
104.751570
 30
0.0
 10
376.253760
 20
103.656160
 30
0.0
 10
378.418910
 20
101.258680
 30
0.0
 10
379.367250
 20
98.442250
 30
0.0
  0
SPLINE
  5
237
100
AcDbEntity
  8
Draft
 62
7
100
AcDbSpline
 70
8
 71
3
 72
8
 73
4
 74
0
 40
0
 40
0
 40
0
 40
0
 40
1
 40
1
 40
1
 40
1
 10
379.367250
 20
98.442250
 30
0.0
 10
379.733560
 20
97.354340
 30
0.0
 10
379.747840
 20
97.035400
 30
0.0
 10
379.802210
 20
88.722150
 30
0.0
  0
LWPOLYLINE
  5
238
100
AcDbEntity
  8
Draft
 62
7
100
AcDbPolyline
 90
5
 70
0
 10
333.921260
 20
88.814800
 30
0.0
 10
333.917260
 20
80.139480
 30
0.0
 10
331.241290
 20
80.139480
 30
0.0
 10
328.565330
 20
80.139480
 30
0.0
 10
328.565540
 20
88.994280
 30
0.0
  0
SPLINE
  5
239
100
AcDbEntity
  8
Draft
 62
7
100
AcDbSpline
 70
8
 71
3
 72
8
 73
4
 74
0
 40
0
 40
0
 40
0
 40
0
 40
1
 40
1
 40
1
 40
1
 10
374.454660
 20
88.398370
 30
0.0
 10
374.403960
 20
96.372440
 30
0.0
 10
374.390960
 20
96.650880
 30
0.0
 10
374.035470
 20
97.403750
 30
0.0
  0
SPLINE
  5
23a
100
AcDbEntity
  8
Draft
 62
7
100
AcDbSpline
 70
8
 71
3
 72
8
 73
4
 74
0
 40
0
 40
0
 40
0
 40
0
 40
1
 40
1
 40
1
 40
1
 10
374.035470
 20
97.403750
 30
0.0
 10
373.553520
 20
98.424390
 30
0.0
 10
372.854520
 20
99.164120
 30
0.0
 10
371.898990
 20
99.664710
 30
0.0
  0
SPLINE
  5
23b
100
AcDbEntity
  8
Draft
 62
7
100
AcDbSpline
 70
8
 71
3
 72
8
 73
4
 74
0
 40
0
 40
0
 40
0
 40
0
 40
1
 40
1
 40
1
 40
1
 10
371.898990
 20
99.664710
 30
0.0
 10
370.832390
 20
100.223490
 30
0.0
 10
368.850670
 20
100.241900
 30
0.0
 10
367.841880
 20
99.702410
 30
0.0
  0
SPLINE
  5
23c
100
AcDbEntity
  8
Draft
 62
7
100
AcDbSpline
 70
8
 71
3
 72
8
 73
4
 74
0
 40
0
 40
0
 40
0
 40
0
 40
1
 40
1
 40
1
 40
1
 10
367.841880
 20
99.702410
 30
0.0
 10
366.926860
 20
99.213060
 30
0.0
 10
366.128560
 20
98.357370
 30
0.0
 10
365.697400
 20
97.403760
 30
0.0
  0
SPLINE
  5
23d
100
AcDbEntity
  8
Draft
 62
7
100
AcDbSpline
 70
8
 71
3
 72
8
 73
4
 74
0
 40
0
 40
0
 40
0
 40
0
 40
1
 40
1
 40
1
 40
1
 10
365.697400
 20
97.403760
 30
0.0
 10
365.360080
 20
96.657710
 30
0.0
 10
365.345980
 20
96.299590
 30
0.0
 10
365.342340
 20
88.383150
 30
0.0
  0
LWPOLYLINE
  5
23e
100
AcDbEntity
  8
Draft
 62
7
100
AcDbPolyline
 90
5
 70
0
 10
379.802210
 20
88.722150
 30
0.0
 10
379.858410
 20
80.126880
 30
0.0
 10
377.182690
 20
80.148380
 30
0.0
 10
374.506960
 20
80.169880
 30
0.0
 10
374.454660
 20
88.398370
 30
0.0
  0
SPLINE
  5
23f
100
AcDbEntity
  8
Draft
 62
7
100
AcDbSpline
 70
8
 71
3
 72
8
 73
4
 74
0
 40
0
 40
0
 40
0
 40
0
 40
1
 40
1
 40
1
 40
1
 10
280.612090
 20
88.270700
 30
0.0
 10
279.604860
 20
88.459970
 30
0.0
 10
278.947150
 20
88.882520
 30
0.0
 10
278.336700
 20
89.732560
 30
0.0
  0
SPLINE
  5
240
100
AcDbEntity
  8
Draft
 62
7
100
AcDbSpline
 70
8
 71
3
 72
8
 73
4
 74
0
 40
0
 40
0
 40
0
 40
0
 40
1
 40
1
 40
1
 40
1
 10
278.336700
 20
89.732560
 30
0.0
 10
277.072920
 20
91.492340
 30
0.0
 10
277.442840
 20
93.911320
 30
0.0
 10
279.153500
 20
95.073740
 30
0.0
  0
SPLINE
  5
241
100
AcDbEntity
  8
Draft
 62
7
100
AcDbSpline
 70
8
 71
3
 72
8
 73
4
 74
0
 40
0
 40
0
 40
0
 40
0
 40
1
 40
1
 40
1
 40
1
 10
279.153500
 20
95.073740
 30
0.0
 10
281.595800
 20
96.733330
 30
0.0
 10
284.764220
 20
95.289830
 30
0.0
 10
285.169510
 20
92.332900
 30
0.0
  0
SPLINE
  5
242
100
AcDbEntity
  8
Draft
 62
7
100
AcDbSpline
 70
8
 71
3
 72
8
 73
4
 74
0
 40
0
 40
0
 40
0
 40
0
 40
1
 40
1
 40
1
 40
1
 10
285.169510
 20
92.332900
 30
0.0
 10
285.500090
 20
89.921070
 30
0.0
 10
283.119840
 20
87.799460
 30
0.0
 10
280.612090
 20
88.270700
 30
0.0
  0
LWPOLYLINE
  5
243
100
AcDbEntity
  8
Draft
 62
7
100
AcDbPolyline
 90
5
 70
0
 10
365.342340
 20
88.383150
 30
0.0
 10
365.338340
 20
80.139440
 30
0.0
 10
362.662360
 20
80.139440
 30
0.0
 10
359.986380
 20
80.139440
 30
0.0
 10
359.986590
 20
88.402740
 30
0.0
  0
SPLINE
  5
244
100
AcDbEntity
  8
Draft
 62
7
100
AcDbSpline
 70
8
 71
3
 72
8
 73
4
 74
0
 40
0
 40
0
 40
0
 40
0
 40
1
 40
1
 40
1
 40
1
 10
369.215860
 20
88.254700
 30
0.0
 10
367.910140
 20
88.439820
 30
0.0
 10
366.734560
 20
89.405170
 30
0.0
 10
366.293900
 20
90.654120
 30
0.0
  0
SPLINE
  5
245
100
AcDbEntity
  8
Draft
 62
7
100
AcDbSpline
 70
8
 71
3
 72
8
 73
4
 74
0
 40
0
 40
0
 40
0
 40
0
 40
1
 40
1
 40
1
 40
1
 10
366.293900
 20
90.654120
 30
0.0
 10
365.735060
 20
92.238070
 30
0.0
 10
366.112040
 20
93.710670
 30
0.0
 10
367.365710
 20
94.840950
 30
0.0
  0
SPLINE
  5
246
100
AcDbEntity
  8
Draft
 62
7
100
AcDbSpline
 70
8
 71
3
 72
8
 73
4
 74
0
 40
0
 40
0
 40
0
 40
0
 40
1
 40
1
 40
1
 40
1
 10
367.365710
 20
94.840950
 30
0.0
 10
368.833550
 20
96.164310
 30
0.0
 10
371.089200
 20
96.085600
 30
0.0
 10
372.504680
 20
94.661630
 30
0.0
  0
SPLINE
  5
247
100
AcDbEntity
  8
Draft
 62
7
100
AcDbSpline
 70
8
 71
3
 72
8
 73
4
 74
0
 40
0
 40
0
 40
0
 40
0
 40
1
 40
1
 40
1
 40
1
 10
372.504680
 20
94.661630
 30
0.0
 10
375.115430
 20
92.035210
 30
0.0
 10
372.906240
 20
87.731500
 30
0.0
 10
369.215860
 20
88.254700
 30
0.0
  0
LWPOLYLINE
  5
248
100
AcDbEntity
  8
Draft
 62
7
100
AcDbPolyline
 90
1
 70
1
 10
280.612090
 20
88.270700
 30
0.0
  0
SPLINE
  5
249
100
AcDbEntity
  8
Draft
 62
7
100
AcDbSpline
 70
8
 71
3
 72
8
 73
4
 74
0
 40
0
 40
0
 40
0
 40
0
 40
1
 40
1
 40
1
 40
1
 10
315.885540
 20
105.003870
 30
0.0
 10
314.015590
 20
104.633130
 30
0.0
 10
312.339260
 20
103.319740
 30
0.0
 10
311.528560
 20
101.590220
 30
0.0
  0
LWPOLYLINE
  5
24a
100
AcDbEntity
  8
Draft
 62
7
100
AcDbPolyline
 90
1
 70
1
 10
369.215860
 20
88.254700
 30
0.0
  0
SPLINE
  5
24b
100
AcDbEntity
  8
Draft
 62
7
100
AcDbSpline
 70
8
 71
3
 72
8
 73
4
 74
0
 40
0
 40
0
 40
0
 40
0
 40
1
 40
1
 40
1
 40
1
 10
316.333190
 20
89.713330
 30
0.0
 10
316.333190
 20
98.186650
 30
0.0
 10
316.364390
 20
99.318370
 30
0.0
 10
316.604490
 20
99.558480
 30
0.0
  0
SPLINE
  5
24c
100
AcDbEntity
  8
Draft
 62
7
100
AcDbSpline
 70
8
 71
3
 72
8
 73
4
 74
0
 40
0
 40
0
 40
0
 40
0
 40
1
 40
1
 40
1
 40
1
 10
316.604490
 20
99.558480
 30
0.0
 10
316.836310
 20
99.790310
 30
0.0
 10
317.489370
 20
99.829780
 30
0.0
 10
321.093210
 20
99.829780
 30
0.0
  0
LWPOLYLINE
  5
24d
100
AcDbEntity
  8
Draft
 62
7
100
AcDbPolyline
 90
7
 70
0
 10
311.528560
 20
101.590220
 30
0.0
 10
311.067570
 20
100.606750
 30
0.0
 10
311.067570
 20
90.420810
 30
0.0
 10
311.067570
 20
80.234860
 30
0.0
 10
313.700380
 20
80.187160
 30
0.0
 10
316.333190
 20
80.139460
 30
0.0
 10
316.333190
 20
89.713330
 30
0.0
  0
SPLINE
  5
24e
100
AcDbEntity
  8
Draft
 62
7
100
AcDbSpline
 70
8
 71
3
 72
8
 73
4
 74
0
 40
0
 40
0
 40
0
 40
0
 40
1
 40
1
 40
1
 40
1
 10
320.951390
 20
105.162820
 30
0.0
 10
318.553810
 20
105.152420
 30
0.0
 10
316.274180
 20
105.080820
 30
0.0
 10
315.885540
 20
105.003810
 30
0.0
  0
LWPOLYLINE
  5
24f
100
AcDbEntity
  8
Draft
 62
7
100
AcDbPolyline
 90
5
 70
0
 10
321.093210
 20
99.829780
 30
0.0
 10
325.310630
 20
99.829780
 30
0.0
 10
325.310630
 20
102.505750
 30
0.0
 10
325.310630
 20
105.181720
 30
0.0
 10
320.951390
 20
105.162820
 30
0.0
  0
SPLINE
  5
250
100
AcDbEntity
  8
Draft
 62
7
100
AcDbSpline
 70
8
 71
3
 72
8
 73
4
 74
0
 40
0
 40
0
 40
0
 40
0
 40
1
 40
1
 40
1
 40
1
 10
320.612090
 20
87.609250
 30
0.0
 10
319.604860
 20
87.798520
 30
0.0
 10
318.947150
 20
88.221070
 30
0.0
 10
318.336700
 20
89.071110
 30
0.0
  0
SPLINE
  5
251
100
AcDbEntity
  8
Draft
 62
7
100
AcDbSpline
 70
8
 71
3
 72
8
 73
4
 74
0
 40
0
 40
0
 40
0
 40
0
 40
1
 40
1
 40
1
 40
1
 10
318.336700
 20
89.071110
 30
0.0
 10
317.072920
 20
90.830890
 30
0.0
 10
317.442840
 20
93.249870
 30
0.0
 10
319.153500
 20
94.412290
 30
0.0
  0
SPLINE
  5
252
100
AcDbEntity
  8
Draft
 62
7
100
AcDbSpline
 70
8
 71
3
 72
8
 73
4
 74
0
 40
0
 40
0
 40
0
 40
0
 40
1
 40
1
 40
1
 40
1
 10
319.153500
 20
94.412290
 30
0.0
 10
321.595800
 20
96.071880
 30
0.0
 10
324.764220
 20
94.628380
 30
0.0
 10
325.169510
 20
91.671450
 30
0.0
  0
SPLINE
  5
253
100
AcDbEntity
  8
Draft
 62
7
100
AcDbSpline
 70
8
 71
3
 72
8
 73
4
 74
0
 40
0
 40
0
 40
0
 40
0
 40
1
 40
1
 40
1
 40
1
 10
325.169510
 20
91.671450
 30
0.0
 10
325.500090
 20
89.259620
 30
0.0
 10
323.119840
 20
87.138010
 30
0.0
 10
320.612090
 20
87.609250
 30
0.0
  0
LWPOLYLINE
  5
254
100
AcDbEntity
  8
Draft
 62
7
100
AcDbPolyline
 90
1
 70
1
 10
315.885540
 20
105.003810
 30
0.0
  0
SPLINE
  5
255
100
AcDbEntity
  8
Draft
 62
7
100
AcDbSpline
 70
8
 71
3
 72
8
 73
4
 74
0
 40
0
 40
0
 40
0
 40
0
 40
1
 40
1
 40
1
 40
1
 10
381.739630
 20
88.592500
 30
0.0
 10
381.739630
 20
97.617510
 30
0.0
 10
381.755830
 20
97.794560
 30
0.0
 10
382.783510
 20
100.002350
 30
0.0
  0
SPLINE
  5
256
100
AcDbEntity
  8
Draft
 62
7
100
AcDbSpline
 70
8
 71
3
 72
8
 73
4
 74
0
 40
0
 40
0
 40
0
 40
0
 40
1
 40
1
 40
1
 40
1
 10
382.783510
 20
100.002350
 30
0.0
 10
383.820730
 20
102.230660
 30
0.0
 10
386.575310
 20
104.457350
 30
0.0
 10
389.112050
 20
105.118080
 30
0.0
  0
SPLINE
  5
257
100
AcDbEntity
  8
Draft
 62
7
100
AcDbSpline
 70
8
 71
3
 72
8
 73
4
 74
0
 40
0
 40
0
 40
0
 40
0
 40
1
 40
1
 40
1
 40
1
 10
389.112050
 20
105.118080
 30
0.0
 10
390.420800
 20
105.458970
 30
0.0
 10
392.990860
 20
105.449580
 30
0.0
 10
394.181770
 20
105.099580
 30
0.0
  0
SPLINE
  5
258
100
AcDbEntity
  8
Draft
 62
7
100
AcDbSpline
 70
8
 71
3
 72
8
 73
4
 74
0
 40
0
 40
0
 40
0
 40
0
 40
1
 40
1
 40
1
 40
1
 10
394.181770
 20
105.099580
 30
0.0
 10
396.879270
 20
104.306770
 30
0.0
 10
399.285710
 20
102.346890
 30
0.0
 10
400.414760
 20
100.023240
 30
0.0
  0
SPLINE
  5
259
100
AcDbEntity
  8
Draft
 62
7
100
AcDbSpline
 70
8
 71
3
 72
8
 73
4
 74
0
 40
0
 40
0
 40
0
 40
0
 40
1
 40
1
 40
1
 40
1
 10
400.414760
 20
100.023240
 30
0.0
 10
401.525000
 20
97.738320
 30
0.0
 10
401.593600
 20
97.050510
 30
0.0
 10
401.593600
 20
88.204460
 30
0.0
  0
LWPOLYLINE
  5
25a
100
AcDbEntity
  8
Draft
 62
7
100
AcDbPolyline
 90
1
 70
1
 10
320.612090
 20
87.609250
 30
0.0
  0
SPLINE
  5
25b
100
AcDbEntity
  8
Draft
 62
7
100
AcDbSpline
 70
8
 71
3
 72
8
 73
4
 74
0
 40
0
 40
0
 40
0
 40
0
 40
1
 40
1
 40
1
 40
1
 10
396.206480
 20
88.412980
 30
0.0
 10
396.155380
 20
96.481830
 30
0.0
 10
396.155280
 20
96.484300
 30
0.0
 10
395.746270
 20
97.388990
 30
0.0
  0
SPLINE
  5
25c
100
AcDbEntity
  8
Draft
 62
7
100
AcDbSpline
 70
8
 71
3
 72
8
 73
4
 74
0
 40
0
 40
0
 40
0
 40
0
 40
1
 40
1
 40
1
 40
1
 10
395.746270
 20
97.388990
 30
0.0
 10
395.292030
 20
98.393810
 30
0.0
 10
394.289020
 20
99.397990
 30
0.0
 10
393.330840
 20
99.807230
 30
0.0
  0
SPLINE
  5
25d
100
AcDbEntity
  8
Draft
 62
7
100
AcDbSpline
 70
8
 71
3
 72
8
 73
4
 74
0
 40
0
 40
0
 40
0
 40
0
 40
1
 40
1
 40
1
 40
1
 10
393.330840
 20
99.807230
 30
0.0
 10
392.530120
 20
100.149220
 30
0.0
 10
390.809150
 20
100.178540
 30
0.0
 10
390.026530
 20
99.863530
 30
0.0
  0
SPLINE
  5
25e
100
AcDbEntity
  8
Draft
 62
7
100
AcDbSpline
 70
8
 71
3
 72
8
 73
4
 74
0
 40
0
 40
0
 40
0
 40
0
 40
1
 40
1
 40
1
 40
1
 10
390.026530
 20
99.863530
 30
0.0
 10
388.988240
 20
99.445590
 30
0.0
 10
388.006420
 20
98.525540
 30
0.0
 10
387.534750
 20
97.528510
 30
0.0
  0
LWPOLYLINE
  5
25f
100
AcDbEntity
  8
Draft
 62
7
100
AcDbPolyline
 90
5
 70
0
 10
401.593600
 20
88.204460
 30
0.0
 10
401.593600
 20
80.341910
 30
0.0
 10
398.925590
 20
80.341910
 30
0.0
 10
396.257580
 20
80.341910
 30
0.0
 10
396.206480
 20
88.412980
 30
0.0
  0
SPLINE
  5
260
100
AcDbEntity
  8
Draft
 62
7
100
AcDbSpline
 70
8
 71
3
 72
8
 73
4
 74
0
 40
0
 40
0
 40
0
 40
0
 40
1
 40
1
 40
1
 40
1
 10
270.000000
 20
250.000000
 30
0.0
 10
270.000000
 20
250.000000
 30
0.0
 10
296.562910
 20
252.089583
 30
0.0
 10
310.000000
 20
252.089583
 30
0.0
  0
SPLINE
  5
261
100
AcDbEntity
  8
Draft
 62
7
100
AcDbSpline
 70
8
 71
3
 72
8
 73
4
 74
0
 40
0
 40
0
 40
0
 40
0
 40
1
 40
1
 40
1
 40
1
 10
310.000000
 20
252.089583
 30
0.0
 10
323.437100
 20
252.089583
 30
0.0
 10
350.000000
 20
250.000000
 30
0.0
 10
350.000000
 20
250.000000
 30
0.0
  0
LWPOLYLINE
  5
262
100
AcDbEntity
  8
Draft
 62
7
100
AcDbPolyline
 90
7
 70
0
 10
387.534750
 20
97.528510
 30
0.0
 10
387.091590
 20
96.591770
 30
0.0
 10
387.091590
 20
88.466850
 30
0.0
 10
387.091590
 20
80.341920
 30
0.0
 10
384.415620
 20
80.341920
 30
0.0
 10
381.739650
 20
80.341920
 30
0.0
 10
381.739630
 20
88.592500
 30
0.0
  0
SPLINE
  5
263
100
AcDbEntity
  8
Draft
 62
7
100
AcDbSpline
 70
8
 71
3
 72
8
 73
4
 74
0
 40
0
 40
0
 40
0
 40
0
 40
1
 40
1
 40
1
 40
1
 10
350.000000
 20
229.999998
 30
0.0
 10
350.000000
 20
229.999998
 30
0.0
 10
332.408250
 20
221.790510
 30
0.0
 10
325.000000
 20
224.999999
 30
0.0
  0
SPLINE
  5
264
100
AcDbEntity
  8
Draft
 62
7
100
AcDbSpline
 70
8
 71
3
 72
8
 73
4
 74
0
 40
0
 40
0
 40
0
 40
0
 40
1
 40
1
 40
1
 40
1
 10
325.000000
 20
224.999999
 30
0.0
 10
317.591750
 20
228.209489
 30
0.0
 10
316.009250
 20
235.502083
 30
0.0
 10
310.000000
 20
235.502083
 30
0.0
  0
SPLINE
  5
265
100
AcDbEntity
  8
Draft
 62
7
100
AcDbSpline
 70
8
 71
3
 72
8
 73
4
 74
0
 40
0
 40
0
 40
0
 40
0
 40
1
 40
1
 40
1
 40
1
 10
310.000000
 20
235.502083
 30
0.0
 10
303.990750
 20
235.502083
 30
0.0
 10
302.408250
 20
228.209489
 30
0.0
 10
295.000000
 20
224.999999
 30
0.0
  0
SPLINE
  5
266
100
AcDbEntity
  8
Draft
 62
7
100
AcDbSpline
 70
8
 71
3
 72
8
 73
4
 74
0
 40
0
 40
0
 40
0
 40
0
 40
1
 40
1
 40
1
 40
1
 10
295.000000
 20
224.999999
 30
0.0
 10
287.591750
 20
221.790510
 30
0.0
 10
270.000000
 20
229.999998
 30
0.0
 10
270.000000
 20
229.999998
 30
0.0
  0
LWPOLYLINE
  5
267
100
AcDbEntity
  8
Draft
 62
7
100
AcDbPolyline
 90
2
 70
0
 10
350.000000
 20
250.000000
 30
0.0
 10
350.000000
 20
229.999998
 30
0.0
  0
SPLINE
  5
268
100
AcDbEntity
  8
Draft
 62
7
100
AcDbSpline
 70
8
 71
3
 72
8
 73
4
 74
0
 40
0
 40
0
 40
0
 40
0
 40
1
 40
1
 40
1
 40
1
 10
265.000000
 20
287.933751
 30
0.0
 10
265.000000
 20
287.933751
 30
0.0
 10
294.883270
 20
290.496313
 30
0.0
 10
310.000000
 20
290.496313
 30
0.0
  0
SPLINE
  5
269
100
AcDbEntity
  8
Draft
 62
7
100
AcDbSpline
 70
8
 71
3
 72
8
 73
4
 74
0
 40
0
 40
0
 40
0
 40
0
 40
1
 40
1
 40
1
 40
1
 10
310.000000
 20
290.496313
 30
0.0
 10
325.116740
 20
290.496313
 30
0.0
 10
355.000000
 20
287.933751
 30
0.0
 10
355.000000
 20
287.933751
 30
0.0
  0
LWPOLYLINE
  5
26a
100
AcDbEntity
  8
Draft
 62
7
100
AcDbPolyline
 90
2
 70
0
 10
270.000000
 20
229.999998
 30
0.0
 10
270.000000
 20
250.000000
 30
0.0
  0
SPLINE
  5
26b
100
AcDbEntity
  8
Draft
 62
7
100
AcDbSpline
 70
8
 71
3
 72
8
 73
4
 74
0
 40
0
 40
0
 40
0
 40
0
 40
1
 40
1
 40
1
 40
1
 10
355.000000
 20
263.406729
 30
0.0
 10
355.000000
 20
263.406729
 30
0.0
 10
335.209280
 20
253.339016
 30
0.0
 10
326.875000
 20
257.274976
 30
0.0
  0
SPLINE
  5
26c
100
AcDbEntity
  8
Draft
 62
7
100
AcDbSpline
 70
8
 71
3
 72
8
 73
4
 74
0
 40
0
 40
0
 40
0
 40
0
 40
1
 40
1
 40
1
 40
1
 10
326.875000
 20
257.274976
 30
0.0
 10
318.540720
 20
261.210939
 30
0.0
 10
316.760410
 20
270.154217
 30
0.0
 10
310.000000
 20
270.154217
 30
0.0
  0
SPLINE
  5
26d
100
AcDbEntity
  8
Draft
 62
7
100
AcDbSpline
 70
8
 71
3
 72
8
 73
4
 74
0
 40
0
 40
0
 40
0
 40
0
 40
1
 40
1
 40
1
 40
1
 10
310.000000
 20
270.154217
 30
0.0
 10
303.239600
 20
270.154217
 30
0.0
 10
301.459280
 20
261.210939
 30
0.0
 10
293.125000
 20
257.274976
 30
0.0
  0
SPLINE
  5
26e
100
AcDbEntity
  8
Draft
 62
7
100
AcDbSpline
 70
8
 71
3
 72
8
 73
4
 74
0
 40
0
 40
0
 40
0
 40
0
 40
1
 40
1
 40
1
 40
1
 10
293.125000
 20
257.274976
 30
0.0
 10
284.790720
 20
253.339016
 30
0.0
 10
265.000000
 20
263.406729
 30
0.0
 10
265.000000
 20
263.406729
 30
0.0
  0
LWPOLYLINE
  5
26f
100
AcDbEntity
  8
Draft
 62
7
100
AcDbPolyline
 90
2
 70
0
 10
355.000000
 20
287.933751
 30
0.0
 10
355.000000
 20
263.406729
 30
0.0
  0
SPLINE
  5
270
100
AcDbEntity
  8
Draft
 62
7
100
AcDbSpline
 70
8
 71
3
 72
8
 73
4
 74
0
 40
0
 40
0
 40
0
 40
0
 40
1
 40
1
 40
1
 40
1
 10
265.000000
 20
287.933751
 30
0.0
 10
265.000000
 20
287.933751
 30
0.0
 10
294.976620
 20
290.447293
 30
0.0
 10
310.000000
 20
290.447293
 30
0.0
  0
SPLINE
  5
271
100
AcDbEntity
  8
Draft
 62
7
100
AcDbSpline
 70
8
 71
3
 72
8
 73
4
 74
0
 40
0
 40
0
 40
0
 40
0
 40
1
 40
1
 40
1
 40
1
 10
310.000000
 20
290.447293
 30
0.0
 10
325.023380
 20
290.447293
 30
0.0
 10
355.000000
 20
287.933751
 30
0.0
 10
355.000000
 20
287.933751
 30
0.0
  0
LWPOLYLINE
  5
272
100
AcDbEntity
  8
Draft
 62
7
100
AcDbPolyline
 90
2
 70
0
 10
265.000000
 20
263.406729
 30
0.0
 10
265.000000
 20
287.933751
 30
0.0
  0
LWPOLYLINE
  5
273
100
AcDbEntity
  8
Draft
 62
7
100
AcDbPolyline
 90
2
 70
0
 10
335.787609
 20
189.042369
 30
0.0
 10
336.169984
 20
188.224251
 30
0.0
  0
LWPOLYLINE
  5
274
100
AcDbEntity
  8
Draft
 62
7
100
AcDbPolyline
 90
2
 70
0
 10
332.346209
 20
196.405436
 30
0.0
 10
332.728584
 20
195.587319
 30
0.0
  0
LWPOLYLINE
  5
275
100
AcDbEntity
  8
Draft
 62
7
100
AcDbPolyline
 90
2
 70
0
 10
338.348689
 20
194.226732
 30
0.0
 10
337.530572
 20
193.844356
 30
0.0
  0
LWPOLYLINE
  5
276
100
AcDbEntity
  8
Draft
 62
7
100
AcDbPolyline
 90
2
 70
0
 10
330.985622
 20
190.785332
 30
0.0
 10
330.167504
 20
190.402957
 30
0.0
  0
LWPOLYLINE
  5
277
100
AcDbEntity
  8
Draft
 62
7
100
AcDbPolyline
 90
2
 70
0
 10
337.218872
 20
190.245567
 30
0.0
 10
337.959077
 20
189.728243
 30
0.0
  0
LWPOLYLINE
  5
278
100
AcDbEntity
  8
Draft
 62
7
100
AcDbPolyline
 90
2
 70
0
 10
330.556999
 20
194.901470
 30
0.0
 10
331.297204
 20
194.384148
 30
0.0
  0
LWPOLYLINE
  5
279
100
AcDbEntity
  8
Draft
 62
7
100
AcDbPolyline
 90
2
 70
0
 10
336.844651
 20
196.015897
 30
0.0
 10
336.327328
 20
195.275692
 30
0.0
  0
LWPOLYLINE
  5
27a
100
AcDbEntity
  8
Draft
 62
7
100
AcDbPolyline
 90
2
 70
0
 10
332.188748
 20
189.354023
 30
0.0
 10
331.671425
 20
188.613818
 30
0.0
  0
LWPOLYLINE
  5
27b
100
AcDbEntity
  8
Draft
 62
7
100
AcDbPolyline
 90
2
 70
0
 10
337.856890
 20
192.003196
 30
0.0
 10
338.756589
 20
191.925284
 30
0.0
  0
LWPOLYLINE
  5
27c
100
AcDbEntity
  8
Draft
 62
7
100
AcDbPolyline
 90
2
 70
0
 10
329.759587
 20
192.704390
 30
0.0
 10
330.659285
 20
192.626477
 30
0.0
  0
LWPOLYLINE
  5
27d
100
AcDbEntity
  8
Draft
 62
7
100
AcDbPolyline
 90
2
 70
0
 10
334.647640
 20
196.813338
 30
0.0
 10
334.569728
 20
195.913640
 30
0.0
  0
SPLINE
  5
27e
100
AcDbEntity
  8
Draft
 62
7
100
AcDbSpline
 70
8
 71
3
 72
8
 73
4
 74
0
 40
0
 40
0
 40
0
 40
0
 40
1
 40
1
 40
1
 40
1
 10
325.000011
 20
202.181372
 30
0.0
 10
322.565008
 20
199.902558
 30
0.0
 10
321.056228
 20
196.805571
 30
0.0
 10
320.762619
 20
193.483519
 30
0.0
  0
SPLINE
  5
27f
100
AcDbEntity
  8
Draft
 62
7
100
AcDbSpline
 70
8
 71
3
 72
8
 73
4
 74
0
 40
0
 40
0
 40
0
 40
0
 40
1
 40
1
 40
1
 40
1
 10
320.762619
 20
193.483519
 30
0.0
 10
320.480186
 20
190.160807
 30
0.0
 10
321.433298
 20
186.850670
 30
0.0
 10
323.439456
 20
184.186928
 30
0.0
  0
SPLINE
  5
280
100
AcDbEntity
  8
Draft
 62
7
100
AcDbSpline
 70
8
 71
3
 72
8
 73
4
 74
0
 40
0
 40
0
 40
0
 40
0
 40
1
 40
1
 40
1
 40
1
 10
323.439456
 20
184.186928
 30
0.0
 10
327.166492
 20
183.864182
 30
0.0
 10
331.972663
 20
183.447918
 30
0.0
 10
333.478524
 20
183.317516
 30
0.0
  0
SPLINE
  5
281
100
AcDbEntity
  8
Draft
 62
7
100
AcDbSpline
 70
8
 71
3
 72
8
 73
4
 74
0
 40
0
 40
0
 40
0
 40
0
 40
1
 40
1
 40
1
 40
1
 10
333.478524
 20
183.317516
 30
0.0
 10
335.088837
 20
183.178068
 30
0.0
 10
336.572359
 20
183.455584
 30
0.0
 10
337.873650
 20
184.029191
 30
0.0
  0
SPLINE
  5
282
100
AcDbEntity
  8
Draft
 62
7
100
AcDbSpline
 70
8
 71
3
 72
8
 73
4
 74
0
 40
0
 40
0
 40
0
 40
0
 40
1
 40
1
 40
1
 40
1
 10
337.873650
 20
184.029191
 30
0.0
 10
337.935515
 20
184.056510
 30
0.0
 10
337.998334
 20
184.081784
 30
0.0
 10
338.059377
 20
184.110415
 30
0.0
  0
LWPOLYLINE
  5
283
100
AcDbEntity
  8
Draft
 62
7
100
AcDbPolyline
 90
2
 70
0
 10
333.946446
 20
188.716035
 30
0.0
 10
333.868534
 20
187.816336
 30
0.0
  0
SPLINE
  5
284
100
AcDbEntity
  8
Draft
 62
7
100
AcDbSpline
 70
8
 71
3
 72
8
 73
4
 74
0
 40
0
 40
0
 40
0
 40
0
 40
1
 40
1
 40
1
 40
1
 10
338.059843
 20
184.110881
 30
0.0
 10
338.194319
 20
184.173925
 30
0.0
 10
338.326657
 20
184.239872
 30
0.0
 10
338.456982
 20
184.309218
 30
0.0
  0
SPLINE
  5
285
100
AcDbEntity
  8
Draft
 62
7
100
AcDbSpline
 70
8
 71
3
 72
8
 73
4
 74
0
 40
0
 40
0
 40
0
 40
0
 40
1
 40
1
 40
1
 40
1
 10
338.456982
 20
184.309218
 30
0.0
 10
338.847938
 20
184.517265
 30
0.0
 10
339.219793
 20
184.753378
 30
0.0
 10
339.570930
 20
185.013426
 30
0.0
  0
SPLINE
  5
286
100
AcDbEntity
  8
Draft
 62
7
100
AcDbSpline
 70
8
 71
3
 72
8
 73
4
 74
0
 40
0
 40
0
 40
0
 40
0
 40
1
 40
1
 40
1
 40
1
 10
339.570930
 20
185.013426
 30
0.0
 10
339.687806
 20
185.099981
 30
0.0
 10
339.803140
 20
185.189045
 30
0.0
 10
339.915336
 20
185.280832
 30
0.0
  0
SPLINE
  5
287
100
AcDbEntity
  8
Draft
 62
7
100
AcDbSpline
 70
8
 71
3
 72
8
 73
4
 74
0
 40
0
 40
0
 40
0
 40
0
 40
1
 40
1
 40
1
 40
1
 10
339.915336
 20
185.280832
 30
0.0
 10
340.027692
 20
185.372761
 30
0.0
 10
340.137737
 20
185.467188
 30
0.0
 10
340.245274
 20
185.564101
 30
0.0
  0
SPLINE
  5
288
100
AcDbEntity
  8
Draft
 62
7
100
AcDbSpline
 70
8
 71
3
 72
8
 73
4
 74
0
 40
0
 40
0
 40
0
 40
0
 40
1
 40
1
 40
1
 40
1
 10
340.245274
 20
185.564101
 30
0.0
 10
340.352711
 20
185.660937
 30
0.0
 10
340.457770
 20
185.760760
 30
0.0
 10
340.560276
 20
185.862305
 30
0.0
  0
LWPOLYLINE
  5
289
100
AcDbEntity
  8
Draft
 62
7
100
AcDbPolyline
 90
2
 70
0
 10
338.059377
 20
184.110415
 30
0.0
 10
338.059843
 20
184.110881
 30
0.0
  0
SPLINE
  5
28a
100
AcDbEntity
  8
Draft
 62
7
100
AcDbSpline
 70
8
 71
3
 72
8
 73
4
 74
0
 40
0
 40
0
 40
0
 40
0
 40
1
 40
1
 40
1
 40
1
 10
340.560276
 20
185.862772
 30
0.0
 10
340.662857
 20
185.964397
 30
0.0
 10
340.762870
 20
186.067960
 30
0.0
 10
340.860347
 20
186.174043
 30
0.0
  0
SPLINE
  5
28b
100
AcDbEntity
  8
Draft
 62
7
100
AcDbSpline
 70
8
 71
3
 72
8
 73
4
 74
0
 40
0
 40
0
 40
0
 40
0
 40
1
 40
1
 40
1
 40
1
 10
340.860347
 20
186.174043
 30
0.0
 10
341.055175
 20
186.386045
 30
0.0
 10
341.240127
 20
186.607121
 30
0.0
 10
341.413822
 20
186.835318
 30
0.0
  0
LWPOLYLINE
  5
28c
100
AcDbEntity
  8
Draft
 62
7
100
AcDbPolyline
 90
2
 70
0
 10
340.560276
 20
185.862305
 30
0.0
 10
340.560276
 20
185.862772
 30
0.0
  0
SPLINE
  5
28d
100
AcDbEntity
  8
Draft
 62
7
100
AcDbSpline
 70
8
 71
3
 72
8
 73
4
 74
0
 40
0
 40
0
 40
0
 40
0
 40
1
 40
1
 40
1
 40
1
 10
341.414288
 20
186.835317
 30
0.0
 10
341.674841
 20
187.177732
 30
0.0
 10
341.910868
 20
187.537624
 30
0.0
 10
342.120830
 20
187.910532
 30
0.0
  0
SPLINE
  5
28e
100
AcDbEntity
  8
Draft
 62
7
100
AcDbSpline
 70
8
 71
3
 72
8
 73
4
 74
0
 40
0
 40
0
 40
0
 40
0
 40
1
 40
1
 40
1
 40
1
 10
342.120830
 20
187.910532
 30
0.0
 10
342.260878
 20
188.159265
 30
0.0
 10
342.389629
 20
188.413895
 30
0.0
 10
342.505836
 20
188.673542
 30
0.0
  0
SPLINE
  5
28f
100
AcDbEntity
  8
Draft
 62
7
100
AcDbSpline
 70
8
 71
3
 72
8
 73
4
 74
0
 40
0
 40
0
 40
0
 40
0
 40
1
 40
1
 40
1
 40
1
 10
342.505836
 20
188.673542
 30
0.0
 10
342.789915
 20
189.308273
 30
0.0
 10
343.000100
 20
189.973162
 30
0.0
 10
343.130713
 20
190.651304
 30
0.0
  0
SPLINE
  5
290
100
AcDbEntity
  8
Draft
 62
7
100
AcDbSpline
 70
8
 71
3
 72
8
 73
4
 74
0
 40
0
 40
0
 40
0
 40
0
 40
1
 40
1
 40
1
 40
1
 10
343.130713
 20
190.651304
 30
0.0
 10
343.133785
 20
190.666506
 30
0.0
 10
343.137333
 20
190.681353
 30
0.0
 10
343.140050
 20
190.696568
 30
0.0
  0
LWPOLYLINE
  5
291
100
AcDbEntity
  8
Draft
 62
7
100
AcDbPolyline
 90
2
 70
0
 10
341.413822
 20
186.835318
 30
0.0
 10
341.414288
 20
186.835317
 30
0.0
  0
SPLINE
  5
292
100
AcDbEntity
  8
Draft
 62
7
100
AcDbSpline
 70
8
 71
3
 72
8
 73
4
 74
0
 40
0
 40
0
 40
0
 40
0
 40
1
 40
1
 40
1
 40
1
 10
343.140050
 20
190.697035
 30
0.0
 10
343.166601
 20
190.839090
 30
0.0
 10
343.189522
 20
190.981893
 30
0.0
 10
343.209117
 20
191.124975
 30
0.0
  0
SPLINE
  5
293
100
AcDbEntity
  8
Draft
 62
7
100
AcDbSpline
 70
8
 71
3
 72
8
 73
4
 74
0
 40
0
 40
0
 40
0
 40
0
 40
1
 40
1
 40
1
 40
1
 10
343.209117
 20
191.124975
 30
0.0
 10
343.227634
 20
191.261589
 30
0.0
 10
343.242932
 20
191.398331
 30
0.0
 10
343.254852
 20
191.535647
 30
0.0
  0
SPLINE
  5
294
100
AcDbEntity
  8
Draft
 62
7
100
AcDbSpline
 70
8
 71
3
 72
8
 73
4
 74
0
 40
0
 40
0
 40
0
 40
0
 40
1
 40
1
 40
1
 40
1
 10
343.254852
 20
191.535647
 30
0.0
 10
343.267041
 20
191.676225
 30
0.0
 10
343.276471
 20
191.816921
 30
0.0
 10
343.280984
 20
191.957986
 30
0.0
  0
SPLINE
  5
295
100
AcDbEntity
  8
Draft
 62
7
100
AcDbSpline
 70
8
 71
3
 72
8
 73
4
 74
0
 40
0
 40
0
 40
0
 40
0
 40
1
 40
1
 40
1
 40
1
 10
343.280984
 20
191.957986
 30
0.0
 10
343.286329
 20
192.099025
 30
0.0
 10
343.287926
 20
192.240499
 30
0.0
 10
343.286119
 20
192.381726
 30
0.0
  0
SPLINE
  5
296
100
AcDbEntity
  8
Draft
 62
7
100
AcDbSpline
 70
8
 71
3
 72
8
 73
4
 74
0
 40
0
 40
0
 40
0
 40
0
 40
1
 40
1
 40
1
 40
1
 10
343.286119
 20
192.381726
 30
0.0
 10
343.277559
 20
193.087714
 30
0.0
 10
343.183450
 20
193.794362
 30
0.0
 10
343.008915
 20
194.483621
 30
0.0
  0
LWPOLYLINE
  5
297
100
AcDbEntity
  8
Draft
 62
7
100
AcDbPolyline
 90
2
 70
0
 10
343.140050
 20
190.696568
 30
0.0
 10
343.140050
 20
190.697035
 30
0.0
  0
SPLINE
  5
298
100
AcDbEntity
  8
Draft
 62
7
100
AcDbSpline
 70
8
 71
3
 72
8
 73
4
 74
0
 40
0
 40
0
 40
0
 40
0
 40
1
 40
1
 40
1
 40
1
 10
343.008915
 20
194.484086
 30
0.0
 10
342.939081
 20
194.759845
 30
0.0
 10
342.856323
 20
195.032599
 30
0.0
 10
342.761111
 20
195.301698
 30
0.0
  0
SPLINE
  5
299
100
AcDbEntity
  8
Draft
 62
7
100
AcDbSpline
 70
8
 71
3
 72
8
 73
4
 74
0
 40
0
 40
0
 40
0
 40
0
 40
1
 40
1
 40
1
 40
1
 10
342.761111
 20
195.301698
 30
0.0
 10
342.665920
 20
195.570799
 30
0.0
 10
342.558048
 20
195.835806
 30
0.0
 10
342.438173
 20
196.095976
 30
0.0
  0
SPLINE
  5
29a
100
AcDbEntity
  8
Draft
 62
7
100
AcDbSpline
 70
8
 71
3
 72
8
 73
4
 74
0
 40
0
 40
0
 40
0
 40
0
 40
1
 40
1
 40
1
 40
1
 10
342.438173
 20
196.095976
 30
0.0
 10
342.258361
 20
196.486239
 30
0.0
 10
342.051366
 20
196.865282
 30
0.0
 10
341.817965
 20
197.229055
 30
0.0
  0
SPLINE
  5
29b
100
AcDbEntity
  8
Draft
 62
7
100
AcDbSpline
 70
8
 71
3
 72
8
 73
4
 74
0
 40
0
 40
0
 40
0
 40
0
 40
1
 40
1
 40
1
 40
1
 10
341.817965
 20
197.229055
 30
0.0
 10
341.662367
 20
197.471577
 30
0.0
 10
341.494840
 20
197.707226
 30
0.0
 10
341.316291
 20
197.935132
 30
0.0
  0
SPLINE
  5
29c
100
AcDbEntity
  8
Draft
 62
7
100
AcDbSpline
 70
8
 71
3
 72
8
 73
4
 74
0
 40
0
 40
0
 40
0
 40
0
 40
1
 40
1
 40
1
 40
1
 10
341.316291
 20
197.935132
 30
0.0
 10
341.226952
 20
198.049178
 30
0.0
 10
341.134990
 20
198.161180
 30
0.0
 10
341.040021
 20
198.271137
 30
0.0
  0
SPLINE
  5
29d
100
AcDbEntity
  8
Draft
 62
7
100
AcDbSpline
 70
8
 71
3
 72
8
 73
4
 74
0
 40
0
 40
0
 40
0
 40
0
 40
1
 40
1
 40
1
 40
1
 10
341.040021
 20
198.271137
 30
0.0
 10
340.565658
 20
198.820419
 30
0.0
 10
340.021764
 20
199.317447
 30
0.0
 10
339.413666
 20
199.743490
 30
0.0
  0
LWPOLYLINE
  5
29e
100
AcDbEntity
  8
Draft
 62
7
100
AcDbPolyline
 90
2
 70
0
 10
343.008915
 20
194.483621
 30
0.0
 10
343.008915
 20
194.484086
 30
0.0
  0
SPLINE
  5
29f
100
AcDbEntity
  8
Draft
 62
7
100
AcDbSpline
 70
8
 71
3
 72
8
 73
4
 74
0
 40
0
 40
0
 40
0
 40
0
 40
1
 40
1
 40
1
 40
1
 10
339.413198
 20
199.743490
 30
0.0
 10
338.561814
 20
200.339934
 30
0.0
 10
337.584716
 20
200.797918
 30
0.0
 10
336.496492
 20
201.069309
 30
0.0
  0
SPLINE
  5
2a0
100
AcDbEntity
  8
Draft
 62
7
100
AcDbSpline
 70
8
 71
3
 72
8
 73
4
 74
0
 40
0
 40
0
 40
0
 40
0
 40
1
 40
1
 40
1
 40
1
 10
336.496492
 20
201.069309
 30
0.0
 10
336.030049
 20
201.185633
 30
0.0
 10
335.543285
 20
201.268154
 30
0.0
 10
335.037206
 20
201.311980
 30
0.0
  0
LWPOLYLINE
  5
2a1
100
AcDbEntity
  8
Draft
 62
7
100
AcDbPolyline
 90
2
 70
0
 10
339.413666
 20
199.743490
 30
0.0
 10
339.413198
 20
199.743490
 30
0.0
  0
SPLINE
  5
2a2
100
AcDbEntity
  8
Draft
 62
7
100
AcDbSpline
 70
8
 71
3
 72
8
 73
4
 74
0
 40
0
 40
0
 40
0
 40
0
 40
1
 40
1
 40
1
 40
1
 10
334.328336
 20
196.829565
 30
0.0
 10
334.434892
 20
196.828044
 30
0.0
 10
334.541360
 20
196.822752
 30
0.0
 10
334.647541
 20
196.813698
 30
0.0
  0
SPLINE
  5
2a3
100
AcDbEntity
  8
Draft
 62
7
100
AcDbSpline
 70
8
 71
3
 72
8
 73
4
 74
0
 40
0
 40
0
 40
0
 40
0
 40
1
 40
1
 40
1
 40
1
 10
334.647541
 20
196.813698
 30
0.0
 10
335.840702
 20
196.710411
 30
0.0
 10
336.943955
 20
196.137342
 30
0.0
 10
337.714565
 20
195.220575
 30
0.0
  0
SPLINE
  5
2a4
100
AcDbEntity
  8
Draft
 62
7
100
AcDbSpline
 70
8
 71
3
 72
8
 73
4
 74
0
 40
0
 40
0
 40
0
 40
0
 40
1
 40
1
 40
1
 40
1
 10
337.714565
 20
195.220575
 30
0.0
 10
338.485175
 20
194.303807
 30
0.0
 10
338.860009
 20
193.118449
 30
0.0
 10
338.756598
 20
191.925299
 30
0.0
  0
SPLINE
  5
2a5
100
AcDbEntity
  8
Draft
 62
7
100
AcDbSpline
 70
8
 71
3
 72
8
 73
4
 74
0
 40
0
 40
0
 40
0
 40
0
 40
1
 40
1
 40
1
 40
1
 10
338.756598
 20
191.925299
 30
0.0
 10
338.541508
 20
189.440853
 30
0.0
 10
336.353112
 20
187.601171
 30
0.0
 10
333.868665
 20
187.816243
 30
0.0
  0
SPLINE
  5
2a6
100
AcDbEntity
  8
Draft
 62
7
100
AcDbSpline
 70
8
 71
3
 72
8
 73
4
 74
0
 40
0
 40
0
 40
0
 40
0
 40
1
 40
1
 40
1
 40
1
 10
333.868665
 20
187.816243
 30
0.0
 10
331.384219
 20
188.031332
 30
0.0
 10
329.544537
 20
190.219728
 30
0.0
 10
329.759608
 20
192.704175
 30
0.0
  0
SPLINE
  5
2a7
100
AcDbEntity
  8
Draft
 62
7
100
AcDbSpline
 70
8
 71
3
 72
8
 73
4
 74
0
 40
0
 40
0
 40
0
 40
0
 40
1
 40
1
 40
1
 40
1
 10
329.759608
 20
192.704175
 30
0.0
 10
329.963979
 20
195.065155
 30
0.0
 10
331.958814
 20
196.866416
 30
0.0
 10
334.328336
 20
196.829565
 30
0.0
  0
LWPOLYLINE
  5
2a8
100
AcDbEntity
  8
Draft
 62
7
100
AcDbPolyline
 90
2
 70
0
 10
335.037206
 20
201.311980
 30
0.0
 10
325.000011
 20
202.181372
 30
0.0
  0
LWPOLYLINE
  5
2a9
100
AcDbEntity
  8
Draft
 62
7
100
AcDbPolyline
 90
1
 70
1
 10
334.328336
 20
196.829565
 30
0.0
  0
LWPOLYLINE
  5
2aa
100
AcDbEntity
  8
Draft
 62
7
100
AcDbPolyline
 90
2
 70
0
 10
289.042419
 20
192.084572
 30
0.0
 10
289.424794
 20
191.266454
 30
0.0
  0
LWPOLYLINE
  5
2ab
100
AcDbEntity
  8
Draft
 62
7
100
AcDbPolyline
 90
2
 70
0
 10
285.601019
 20
199.447639
 30
0.0
 10
285.983394
 20
198.629522
 30
0.0
  0
LWPOLYLINE
  5
2ac
100
AcDbEntity
  8
Draft
 62
7
100
AcDbPolyline
 90
2
 70
0
 10
291.603499
 20
197.268935
 30
0.0
 10
290.785382
 20
196.886559
 30
0.0
  0
LWPOLYLINE
  5
2ad
100
AcDbEntity
  8
Draft
 62
7
100
AcDbPolyline
 90
2
 70
0
 10
284.240432
 20
193.827535
 30
0.0
 10
283.422314
 20
193.445160
 30
0.0
  0
LWPOLYLINE
  5
2ae
100
AcDbEntity
  8
Draft
 62
7
100
AcDbPolyline
 90
2
 70
0
 10
290.473753
 20
193.287765
 30
0.0
 10
291.213959
 20
192.770443
 30
0.0
  0
LWPOLYLINE
  5
2af
100
AcDbEntity
  8
Draft
 62
7
100
AcDbPolyline
 90
2
 70
0
 10
283.811880
 20
197.943669
 30
0.0
 10
284.552085
 20
197.426346
 30
0.0
  0
LWPOLYLINE
  5
2b0
100
AcDbEntity
  8
Draft
 62
7
100
AcDbPolyline
 90
2
 70
0
 10
290.099532
 20
199.058096
 30
0.0
 10
289.582209
 20
198.317890
 30
0.0
  0
LWPOLYLINE
  5
2b1
100
AcDbEntity
  8
Draft
 62
7
100
AcDbPolyline
 90
2
 70
0
 10
285.443628
 20
192.396222
 30
0.0
 10
284.926306
 20
191.656016
 30
0.0
  0
LWPOLYLINE
  5
2b2
100
AcDbEntity
  8
Draft
 62
7
100
AcDbPolyline
 90
2
 70
0
 10
291.111718
 20
195.045410
 30
0.0
 10
292.011416
 20
194.967497
 30
0.0
  0
LWPOLYLINE
  5
2b3
100
AcDbEntity
  8
Draft
 62
7
100
AcDbPolyline
 90
2
 70
0
 10
283.014414
 20
195.746603
 30
0.0
 10
283.914113
 20
195.668691
 30
0.0
  0
LWPOLYLINE
  5
2b4
100
AcDbEntity
  8
Draft
 62
7
100
AcDbPolyline
 90
2
 70
0
 10
287.902468
 20
199.855552
 30
0.0
 10
287.824555
 20
198.955854
 30
0.0
  0
SPLINE
  5
2b5
100
AcDbEntity
  8
Draft
 62
7
100
AcDbSpline
 70
8
 71
3
 72
8
 73
4
 74
0
 40
0
 40
0
 40
0
 40
0
 40
1
 40
1
 40
1
 40
1
 10
288.291805
 20
204.353953
 30
0.0
 10
283.322958
 20
204.784190
 30
0.0
 10
278.946114
 20
201.104969
 30
0.0
 10
278.515786
 20
196.136130
 30
0.0
  0
SPLINE
  5
2b6
100
AcDbEntity
  8
Draft
 62
7
100
AcDbSpline
 70
8
 71
3
 72
8
 73
4
 74
0
 40
0
 40
0
 40
0
 40
0
 40
1
 40
1
 40
1
 40
1
 10
278.515786
 20
196.136130
 30
0.0
 10
278.085551
 20
191.167283
 30
0.0
 10
281.764771
 20
186.790440
 30
0.0
 10
286.733610
 20
186.360113
 30
0.0
  0
SPLINE
  5
2b7
100
AcDbEntity
  8
Draft
 62
7
100
AcDbSpline
 70
8
 71
3
 72
8
 73
4
 74
0
 40
0
 40
0
 40
0
 40
0
 40
1
 40
1
 40
1
 40
1
 10
286.733610
 20
186.360113
 30
0.0
 10
289.119806
 20
186.153377
 30
0.0
 10
291.490392
 20
186.903042
 30
0.0
 10
293.323847
 20
188.444182
 30
0.0
  0
SPLINE
  5
2b8
100
AcDbEntity
  8
Draft
 62
7
100
AcDbSpline
 70
8
 71
3
 72
8
 73
4
 74
0
 40
0
 40
0
 40
0
 40
0
 40
1
 40
1
 40
1
 40
1
 10
293.323847
 20
188.444182
 30
0.0
 10
295.157301
 20
189.985323
 30
0.0
 10
296.303430
 20
192.191692
 30
0.0
 10
296.510088
 20
194.577895
 30
0.0
  0
SPLINE
  5
2b9
100
AcDbEntity
  8
Draft
 62
7
100
AcDbSpline
 70
8
 71
3
 72
8
 73
4
 74
0
 40
0
 40
0
 40
0
 40
0
 40
1
 40
1
 40
1
 40
1
 10
296.510088
 20
194.577895
 30
0.0
 10
296.716702
 20
196.964101
 30
0.0
 10
295.966916
 20
199.334650
 30
0.0
 10
294.425682
 20
201.168025
 30
0.0
  0
SPLINE
  5
2ba
100
AcDbEntity
  8
Draft
 62
7
100
AcDbSpline
 70
8
 71
3
 72
8
 73
4
 74
0
 40
0
 40
0
 40
0
 40
0
 40
1
 40
1
 40
1
 40
1
 10
294.425682
 20
201.168025
 30
0.0
 10
292.884447
 20
203.001401
 30
0.0
 10
290.678019
 20
204.147417
 30
0.0
 10
288.291805
 20
204.353953
 30
0.0
  0
LWPOLYLINE
  5
2bb
100
AcDbEntity
  8
Draft
 62
7
100
AcDbPolyline
 90
2
 70
0
 10
287.201273
 20
191.758249
 30
0.0
 10
287.123362
 20
190.858550
 30
0.0
  0
SPLINE
  5
2bc
100
AcDbEntity
  8
Draft
 62
7
100
AcDbSpline
 70
8
 71
3
 72
8
 73
4
 74
0
 40
0
 40
0
 40
0
 40
0
 40
1
 40
1
 40
1
 40
1
 10
287.902276
 20
199.855724
 30
0.0
 10
289.095423
 20
199.752453
 30
0.0
 10
290.198670
 20
199.179410
 30
0.0
 10
290.969290
 20
198.262672
 30
0.0
  0
SPLINE
  5
2bd
100
AcDbEntity
  8
Draft
 62
7
100
AcDbSpline
 70
8
 71
3
 72
8
 73
4
 74
0
 40
0
 40
0
 40
0
 40
0
 40
1
 40
1
 40
1
 40
1
 10
290.969290
 20
198.262672
 30
0.0
 10
291.739910
 20
197.345933
 30
0.0
 10
292.114770
 20
196.160602
 30
0.0
 10
292.011398
 20
194.967464
 30
0.0
  0
SPLINE
  5
2be
100
AcDbEntity
  8
Draft
 62
7
100
AcDbSpline
 70
8
 71
3
 72
8
 73
4
 74
0
 40
0
 40
0
 40
0
 40
0
 40
1
 40
1
 40
1
 40
1
 10
292.011398
 20
194.967464
 30
0.0
 10
291.908127
 20
193.774317
 30
0.0
 10
291.335084
 20
192.671071
 30
0.0
 10
290.418346
 20
191.900451
 30
0.0
  0
SPLINE
  5
2bf
100
AcDbEntity
  8
Draft
 62
7
100
AcDbSpline
 70
8
 71
3
 72
8
 73
4
 74
0
 40
0
 40
0
 40
0
 40
0
 40
1
 40
1
 40
1
 40
1
 10
290.418346
 20
191.900451
 30
0.0
 10
289.501608
 20
191.129832
 30
0.0
 10
288.316277
 20
190.754971
 30
0.0
 10
287.123139
 20
190.858342
 30
0.0
  0
SPLINE
  5
2c0
100
AcDbEntity
  8
Draft
 62
7
100
AcDbSpline
 70
8
 71
3
 72
8
 73
4
 74
0
 40
0
 40
0
 40
0
 40
0
 40
1
 40
1
 40
1
 40
1
 10
287.123139
 20
190.858342
 30
0.0
 10
284.638730
 20
191.073633
 30
0.0
 10
282.799232
 20
193.262148
 30
0.0
 10
283.014477
 20
195.746561
 30
0.0
  0
SPLINE
  5
2c1
100
AcDbEntity
  8
Draft
 62
7
100
AcDbSpline
 70
8
 71
3
 72
8
 73
4
 74
0
 40
0
 40
0
 40
0
 40
0
 40
1
 40
1
 40
1
 40
1
 10
283.014477
 20
195.746561
 30
0.0
 10
283.229513
 20
198.230992
 30
0.0
 10
285.417841
 20
200.070715
 30
0.0
 10
287.902276
 20
199.855724
 30
0.0
  0
LWPOLYLINE
  5
2c2
100
AcDbEntity
  8
Draft
 62
7
100
AcDbPolyline
 90
1
 70
1
 10
288.291805
 20
204.353953
 30
0.0
  0
SPLINE
  5
2c3
100
AcDbEntity
  8
Draft
 62
7
100
AcDbSpline
 70
8
 71
3
 72
8
 73
4
 74
0
 40
0
 40
0
 40
0
 40
0
 40
1
 40
1
 40
1
 40
1
 10
356.992560
 20
250.000000
 30
0.0
 10
356.992560
 20
250.000000
 30
0.0
 10
383.555470
 20
254.735416
 30
0.0
 10
396.992560
 20
254.735416
 30
0.0
  0
SPLINE
  5
2c4
100
AcDbEntity
  8
Draft
 62
7
100
AcDbSpline
 70
8
 71
3
 72
8
 73
4
 74
0
 40
0
 40
0
 40
0
 40
0
 40
1
 40
1
 40
1
 40
1
 10
396.992560
 20
254.735416
 30
0.0
 10
410.429660
 20
254.735416
 30
0.0
 10
436.992560
 20
250.000000
 30
0.0
 10
436.992560
 20
250.000000
 30
0.0
  0
LWPOLYLINE
  5
2c5
100
AcDbEntity
  8
Draft
 62
7
100
AcDbPolyline
 90
1
 70
1
 10
287.902276
 20
199.855724
 30
0.0
  0
SPLINE
  5
2c6
100
AcDbEntity
  8
Draft
 62
7
100
AcDbSpline
 70
8
 71
3
 72
8
 73
4
 74
0
 40
0
 40
0
 40
0
 40
0
 40
1
 40
1
 40
1
 40
1
 10
436.992560
 20
232.645831
 30
0.0
 10
436.992560
 20
232.645831
 30
0.0
 10
419.400810
 20
224.436343
 30
0.0
 10
411.992560
 20
227.645832
 30
0.0
  0
SPLINE
  5
2c7
100
AcDbEntity
  8
Draft
 62
7
100
AcDbSpline
 70
8
 71
3
 72
8
 73
4
 74
0
 40
0
 40
0
 40
0
 40
0
 40
1
 40
1
 40
1
 40
1
 10
411.992560
 20
227.645832
 30
0.0
 10
404.584310
 20
230.855322
 30
0.0
 10
403.001810
 20
238.147916
 30
0.0
 10
396.992560
 20
238.147916
 30
0.0
  0
SPLINE
  5
2c8
100
AcDbEntity
  8
Draft
 62
7
100
AcDbSpline
 70
8
 71
3
 72
8
 73
4
 74
0
 40
0
 40
0
 40
0
 40
0
 40
1
 40
1
 40
1
 40
1
 10
396.992560
 20
238.147916
 30
0.0
 10
390.983310
 20
238.147916
 30
0.0
 10
389.400810
 20
230.855322
 30
0.0
 10
381.992560
 20
227.645832
 30
0.0
  0
SPLINE
  5
2c9
100
AcDbEntity
  8
Draft
 62
7
100
AcDbSpline
 70
8
 71
3
 72
8
 73
4
 74
0
 40
0
 40
0
 40
0
 40
0
 40
1
 40
1
 40
1
 40
1
 10
381.992560
 20
227.645832
 30
0.0
 10
374.584310
 20
224.436343
 30
0.0
 10
356.992560
 20
232.645831
 30
0.0
 10
356.992560
 20
232.645831
 30
0.0
  0
LWPOLYLINE
  5
2ca
100
AcDbEntity
  8
Draft
 62
7
100
AcDbPolyline
 90
2
 70
0
 10
436.992560
 20
250.000000
 30
0.0
 10
436.992560
 20
232.645831
 30
0.0
  0
LWPOLYLINE
  5
2cb
100
AcDbEntity
  8
Draft
 62
7
100
AcDbPolyline
 90
2
 70
0
 10
356.992560
 20
232.645831
 30
0.0
 10
356.992560
 20
250.000000
 30
0.0
  0
LWPOLYLINE
  5
2cc
100
AcDbEntity
  8
Draft
 62
7
100
AcDbPolyline
 90
3
 70
0
 10
455.000000
 20
124.999990
 30
0.0
 10
465.000000
 20
135.000000
 30
0.0
 10
475.000000
 20
124.999990
 30
0.0
  0
SPLINE
  5
2cd
100
AcDbEntity
  8
Draft
 62
7
100
AcDbSpline
 70
8
 71
3
 72
8
 73
4
 74
0
 40
0
 40
0
 40
0
 40
0
 40
1
 40
1
 40
1
 40
1
 10
480.000000
 20
135.000000
 30
0.0
 10
480.000000
 20
131.021753
 30
0.0
 10
478.419647
 20
127.206444
 30
0.0
 10
475.606602
 20
124.393398
 30
0.0
  0
SPLINE
  5
2ce
100
AcDbEntity
  8
Draft
 62
7
100
AcDbSpline
 70
8
 71
3
 72
8
 73
4
 74
0
 40
0
 40
0
 40
0
 40
0
 40
1
 40
1
 40
1
 40
1
 10
475.606602
 20
124.393398
 30
0.0
 10
472.793556
 20
121.580353
 30
0.0
 10
468.978247
 20
120.000000
 30
0.0
 10
465.000000
 20
120.000000
 30
0.0
  0
SPLINE
  5
2cf
100
AcDbEntity
  8
Draft
 62
7
100
AcDbSpline
 70
8
 71
3
 72
8
 73
4
 74
0
 40
0
 40
0
 40
0
 40
0
 40
1
 40
1
 40
1
 40
1
 10
465.000000
 20
120.000000
 30
0.0
 10
461.021753
 20
120.000000
 30
0.0
 10
457.206444
 20
121.580353
 30
0.0
 10
454.393398
 20
124.393398
 30
0.0
  0
SPLINE
  5
2d0
100
AcDbEntity
  8
Draft
 62
7
100
AcDbSpline
 70
8
 71
3
 72
8
 73
4
 74
0
 40
0
 40
0
 40
0
 40
0
 40
1
 40
1
 40
1
 40
1
 10
454.393398
 20
124.393398
 30
0.0
 10
451.580353
 20
127.206444
 30
0.0
 10
450.000000
 20
131.021753
 30
0.0
 10
450.000000
 20
135.000000
 30
0.0
  0
SPLINE
  5
2d1
100
AcDbEntity
  8
Draft
 62
7
100
AcDbSpline
 70
8
 71
3
 72
8
 73
4
 74
0
 40
0
 40
0
 40
0
 40
0
 40
1
 40
1
 40
1
 40
1
 10
450.000000
 20
135.000000
 30
0.0
 10
450.000000
 20
138.978247
 30
0.0
 10
451.580353
 20
142.793556
 30
0.0
 10
454.393398
 20
145.606602
 30
0.0
  0
SPLINE
  5
2d2
100
AcDbEntity
  8
Draft
 62
7
100
AcDbSpline
 70
8
 71
3
 72
8
 73
4
 74
0
 40
0
 40
0
 40
0
 40
0
 40
1
 40
1
 40
1
 40
1
 10
454.393398
 20
145.606602
 30
0.0
 10
457.206444
 20
148.419647
 30
0.0
 10
461.021753
 20
150.000000
 30
0.0
 10
465.000000
 20
150.000000
 30
0.0
  0
SPLINE
  5
2d3
100
AcDbEntity
  8
Draft
 62
7
100
AcDbSpline
 70
8
 71
3
 72
8
 73
4
 74
0
 40
0
 40
0
 40
0
 40
0
 40
1
 40
1
 40
1
 40
1
 10
465.000000
 20
150.000000
 30
0.0
 10
468.978247
 20
150.000000
 30
0.0
 10
472.793556
 20
148.419647
 30
0.0
 10
475.606602
 20
145.606602
 30
0.0
  0
SPLINE
  5
2d4
100
AcDbEntity
  8
Draft
 62
7
100
AcDbSpline
 70
8
 71
3
 72
8
 73
4
 74
0
 40
0
 40
0
 40
0
 40
0
 40
1
 40
1
 40
1
 40
1
 10
475.606602
 20
145.606602
 30
0.0
 10
478.419647
 20
142.793556
 30
0.0
 10
480.000000
 20
138.978247
 30
0.0
 10
480.000000
 20
135.000000
 30
0.0
  0
LWPOLYLINE
  5
2d5
100
AcDbEntity
  8
Draft
 62
7
100
AcDbPolyline
 90
2
 70
0
 10
465.000000
 20
120.000000
 30
0.0
 10
465.000000
 20
150.000000
 30
0.0
  0
LWPOLYLINE
  5
2d6
100
AcDbEntity
  8
Draft
 62
7
100
AcDbPolyline
 90
1
 70
1
 10
480.000000
 20
135.000000
 30
0.0
  0
SPLINE
  5
2d7
100
AcDbEntity
  8
Draft
 62
7
100
AcDbSpline
 70
8
 71
3
 72
8
 73
4
 74
0
 40
0
 40
0
 40
0
 40
0
 40
1
 40
1
 40
1
 40
1
 10
535.158980
 20
162.892420
 30
0.0
 10
535.158980
 20
162.892420
 30
0.0
 10
516.599940
 20
155.011480
 30
0.0
 10
509.277350
 20
159.012040
 30
0.0
  0
SPLINE
  5
2d8
100
AcDbEntity
  8
Draft
 62
7
100
AcDbSpline
 70
8
 71
3
 72
8
 73
4
 74
0
 40
0
 40
0
 40
0
 40
0
 40
1
 40
1
 40
1
 40
1
 10
509.277350
 20
159.012040
 30
0.0
 10
501.954770
 20
163.012610
 30
0.0
 10
500.879220
 20
171.121140
 30
0.0
 10
494.746970
 20
171.507920
 30
0.0
  0
SPLINE
  5
2d9
100
AcDbEntity
  8
Draft
 62
7
100
AcDbSpline
 70
8
 71
3
 72
8
 73
4
 74
0
 40
0
 40
0
 40
0
 40
0
 40
1
 40
1
 40
1
 40
1
 10
494.746970
 20
171.507920
 30
0.0
 10
488.614730
 20
171.894700
 30
0.0
 10
486.460370
 20
163.990100
 30
0.0
 10
478.663200
 20
160.943190
 30
0.0
  0
SPLINE
  5
2da
100
AcDbEntity
  8
Draft
 62
7
100
AcDbSpline
 70
8
 71
3
 72
8
 73
4
 74
0
 40
0
 40
0
 40
0
 40
0
 40
1
 40
1
 40
1
 40
1
 10
478.663200
 20
160.943190
 30
0.0
 10
470.905770
 20
157.911810
 30
0.0
 10
453.727280
 20
167.922120
 30
0.0
 10
453.552070
 20
168.024410
 30
0.0
  0
LWPOLYLINE
  5
2db
100
AcDbEntity
  8
Draft
 62
7
100
AcDbPolyline
 90
2
 70
0
 10
536.496880
 20
182.766150
 30
0.0
 10
535.158980
 20
162.892420
 30
0.0
  0
SPLINE
  5
2dc
100
AcDbEntity
  8
Draft
 62
7
100
AcDbSpline
 70
8
 71
3
 72
8
 73
4
 74
0
 40
0
 40
0
 40
0
 40
0
 40
1
 40
1
 40
1
 40
1
 10
453.412550
 20
165.952190
 30
0.0
 10
453.412550
 20
165.952190
 30
0.0
 10
470.757510
 20
155.806490
 30
0.0
 10
478.554680
 20
158.853400
 30
0.0
  0
SPLINE
  5
2dd
100
AcDbEntity
  8
Draft
 62
7
100
AcDbSpline
 70
8
 71
3
 72
8
 73
4
 74
0
 40
0
 40
0
 40
0
 40
0
 40
1
 40
1
 40
1
 40
1
 10
478.554680
 20
158.853400
 30
0.0
 10
486.351850
 20
161.900310
 30
0.0
 10
488.505690
 20
169.805420
 30
0.0
 10
494.637940
 20
169.418640
 30
0.0
  0
SPLINE
  5
2de
100
AcDbEntity
  8
Draft
 62
7
100
AcDbSpline
 70
8
 71
3
 72
8
 73
4
 74
0
 40
0
 40
0
 40
0
 40
0
 40
1
 40
1
 40
1
 40
1
 10
494.637940
 20
169.418640
 30
0.0
 10
500.770180
 20
169.031860
 30
0.0
 10
501.845730
 20
160.923330
 30
0.0
 10
509.168320
 20
156.922770
 30
0.0
  0
SPLINE
  5
2df
100
AcDbEntity
  8
Draft
 62
7
100
AcDbSpline
 70
8
 71
3
 72
8
 73
4
 74
0
 40
0
 40
0
 40
0
 40
0
 40
1
 40
1
 40
1
 40
1
 10
509.168320
 20
156.922770
 30
0.0
 10
516.490910
 20
152.922200
 30
0.0
 10
535.049940
 20
160.803150
 30
0.0
 10
535.049940
 20
160.803150
 30
0.0
  0
LWPOLYLINE
  5
2e0
100
AcDbEntity
  8
Draft
 62
7
100
AcDbPolyline
 90
2
 70
0
 10
453.552070
 20
168.024410
 30
0.0
 10
453.412550
 20
165.952190
 30
0.0
  0
SPLINE
  5
2e1
100
AcDbEntity
  8
Draft
 62
7
100
AcDbSpline
 70
8
 71
3
 72
8
 73
4
 74
0
 40
0
 40
0
 40
0
 40
0
 40
1
 40
1
 40
1
 40
1
 10
536.528400
 20
182.761500
 30
0.0
 10
536.528400
 20
182.761500
 30
0.0
 10
536.497000
 20
182.766500
 30
0.0
 10
536.496900
 20
182.766500
 30
0.0
  0
LWPOLYLINE
  5
2e2
100
AcDbEntity
  8
Draft
 62
7
100
AcDbPolyline
 90
2
 70
0
 10
535.049940
 20
160.803150
 30
0.0
 10
536.528400
 20
182.761500
 30
0.0
  0
SPLINE
  5
2e3
100
AcDbEntity
  8
Draft
 62
7
100
AcDbSpline
 70
8
 71
3
 72
8
 73
4
 74
0
 40
0
 40
0
 40
0
 40
0
 40
1
 40
1
 40
1
 40
1
 10
454.999992
 20
189.999999
 30
0.0
 10
454.999992
 20
189.999999
 30
0.0
 10
482.261064
 20
190.584478
 30
0.0
 10
495.973183
 20
189.719611
 30
0.0
  0
SPLINE
  5
2e4
100
AcDbEntity
  8
Draft
 62
7
100
AcDbSpline
 70
8
 71
3
 72
8
 73
4
 74
0
 40
0
 40
0
 40
0
 40
0
 40
1
 40
1
 40
1
 40
1
 10
495.973183
 20
189.719611
 30
0.0
 10
509.685309
 20
188.854743
 30
0.0
 10
536.637391
 20
184.850865
 30
0.0
 10
536.637391
 20
184.850865
 30
0.0
  0
LWPOLYLINE
  5
2e5
100
AcDbEntity
  8
Draft
 62
7
100
AcDbPolyline
 90
2
 70
0
 10
536.496900
 20
182.766500
 30
0.0
 10
536.496880
 20
182.766150
 30
0.0
  0
SPLINE
  5
2e6
100
AcDbEntity
  8
Draft
 62
7
100
AcDbSpline
 70
8
 71
3
 72
8
 73
4
 74
0
 40
0
 40
0
 40
0
 40
0
 40
1
 40
1
 40
1
 40
1
 10
535.158709
 20
162.892616
 30
0.0
 10
535.158709
 20
162.892616
 30
0.0
 10
516.599939
 20
155.011596
 30
0.0
 10
509.277352
 20
159.012160
 30
0.0
  0
SPLINE
  5
2e7
100
AcDbEntity
  8
Draft
 62
7
100
AcDbSpline
 70
8
 71
3
 72
8
 73
4
 74
0
 40
0
 40
0
 40
0
 40
0
 40
1
 40
1
 40
1
 40
1
 10
509.277352
 20
159.012160
 30
0.0
 10
501.954766
 20
163.012724
 30
0.0
 10
500.879049
 20
171.121209
 30
0.0
 10
494.746801
 20
171.507990
 30
0.0
  0
SPLINE
  5
2e8
100
AcDbEntity
  8
Draft
 62
7
100
AcDbSpline
 70
8
 71
3
 72
8
 73
4
 74
0
 40
0
 40
0
 40
0
 40
0
 40
1
 40
1
 40
1
 40
1
 10
494.746801
 20
171.507990
 30
0.0
 10
488.614558
 20
171.894770
 30
0.0
 10
486.460498
 20
163.989997
 30
0.0
 10
478.663327
 20
160.943085
 30
0.0
  0
SPLINE
  5
2e9
100
AcDbEntity
  8
Draft
 62
7
100
AcDbSpline
 70
8
 71
3
 72
8
 73
4
 74
0
 40
0
 40
0
 40
0
 40
0
 40
1
 40
1
 40
1
 40
1
 10
478.663327
 20
160.943085
 30
0.0
 10
470.866159
 20
157.896173
 30
0.0
 10
453.521310
 20
168.041749
 30
0.0
 10
453.521310
 20
168.041749
 30
0.0
  0
LWPOLYLINE
  5
2ea
100
AcDbEntity
  8
Draft
 62
7
100
AcDbPolyline
 90
2
 70
0
 10
536.637391
 20
184.850865
 30
0.0
 10
535.158709
 20
162.892616
 30
0.0
  0
SPLINE
  5
2eb
100
AcDbEntity
  8
Draft
 62
7
100
AcDbSpline
 70
8
 71
3
 72
8
 73
4
 74
0
 40
0
 40
0
 40
0
 40
0
 40
1
 40
1
 40
1
 40
1
 10
454.999992
 20
189.999999
 30
0.0
 10
454.999992
 20
189.999999
 30
0.0
 10
482.342786
 20
190.535252
 30
0.0
 10
495.970227
 20
189.675725
 30
0.0
  0
SPLINE
  5
2ec
100
AcDbEntity
  8
Draft
 62
7
100
AcDbSpline
 70
8
 71
3
 72
8
 73
4
 74
0
 40
0
 40
0
 40
0
 40
0
 40
1
 40
1
 40
1
 40
1
 10
495.970227
 20
189.675725
 30
0.0
 10
509.597668
 20
188.816198
 30
0.0
 10
536.637391
 20
184.850865
 30
0.0
 10
536.637391
 20
184.850865
 30
0.0
  0
LWPOLYLINE
  5
2ed
100
AcDbEntity
  8
Draft
 62
7
100
AcDbPolyline
 90
2
 70
0
 10
453.521310
 20
168.041749
 30
0.0
 10
454.999992
 20
189.999999
 30
0.0
  0
LWPOLYLINE
  5
2ee
100
AcDbEntity
  8
Draft
 62
7
100
AcDbPolyline
 90
5
 70
1
 10
544.999950
 20
111.000170
 30
0.0
 10
544.999950
 20
108.999770
 30
0.0
 10
537.999860
 20
108.999770
 30
0.0
 10
537.999860
 20
107.999830
 30
0.0
 10
550.000170
 20
107.999830
 30
0.0
  0
LWPOLYLINE
  5
2ef
100
AcDbEntity
  8
Draft
 62
7
100
AcDbPolyline
 90
5
 70
1
 10
537.999860
 20
106.999900
 30
0.0
 10
543.000070
 20
104.000080
 30
0.0
 10
543.000070
 20
105.999960
 30
0.0
 10
550.000170
 20
105.999960
 30
0.0
 10
550.000170
 20
106.999900
 30
0.0
  0
LWPOLYLINE
  5
2f0
100
AcDbEntity
  8
Draft
 62
7
100
AcDbPolyline
 90
3
 70
1
 10
540.390600
 20
135.000000
 30
0.0
 10
542.390610
 20
138.000000
 30
0.0
 10
538.390610
 20
138.000000
 30
0.0
  0
LWPOLYLINE
  5
2f1
100
AcDbEntity
  8
Draft
 62
7
100
AcDbPolyline
 90
4
 70
1
 10
544.000000
 20
138.000000
 30
0.0
 10
547.000000
 20
138.000000
 30
0.0
 10
547.000000
 20
135.000000
 30
0.0
 10
544.000000
 20
135.000000
 30
0.0
  0
LWPOLYLINE
  5
2f2
100
AcDbEntity
  8
Draft
 62
7
100
AcDbPolyline
 90
4
 70
1
 10
539.000010
 20
130.944940
 30
0.0
 10
546.000010
 20
130.944940
 30
0.0
 10
546.000010
 20
123.944940
 30
0.0
 10
539.000010
 20
123.944940
 30
0.0
  0
LWPOLYLINE
  5
2f3
100
AcDbEntity
  8
Draft
 62
7
100
AcDbPolyline
 90
4
 70
1
 10
540.000010
 20
126.944940
 30
0.0
 10
545.000010
 20
126.944940
 30
0.0
 10
545.000010
 20
123.944940
 30
0.0
 10
540.000010
 20
123.944940
 30
0.0
  0
LWPOLYLINE
  5
2f4
100
AcDbEntity
  8
Draft
 62
7
100
AcDbPolyline
 90
8
 70
1
 10
540.000010
 20
130.944940
 30
0.0
 10
543.000010
 20
130.944940
 30
0.0
 10
543.000010
 20
127.944940
 30
0.0
 10
540.000010
 20
127.944940
 30
0.0
 10
540.000010
 20
130.944940
 30
0.0
 10
545.000010
 20
130.944940
 30
0.0
 10
545.000010
 20
127.944940
 30
0.0
 10
540.000010
 20
127.944940
 30
0.0
  0
LWPOLYLINE
  5
2f5
100
AcDbEntity
  8
Draft
 62
7
100
AcDbPolyline
 90
2
 70
0
 10
541.000009
 20
125.944940
 30
0.0
 10
544.000010
 20
125.944940
 30
0.0
  0
SPLINE
  5
2f6
100
AcDbEntity
  8
Draft
 62
7
100
AcDbSpline
 70
8
 71
3
 72
8
 73
4
 74
0
 40
0
 40
0
 40
0
 40
0
 40
1
 40
1
 40
1
 40
1
 10
538.000000
 20
117.999999
 30
0.0
 10
538.000000
 20
116.999998
 30
0.0
 10
538.798150
 20
116.000000
 30
0.0
 10
540.000000
 20
116.000000
 30
0.0
  0
SPLINE
  5
2f7
100
AcDbEntity
  8
Draft
 62
7
100
AcDbSpline
 70
8
 71
3
 72
8
 73
4
 74
0
 40
0
 40
0
 40
0
 40
0
 40
1
 40
1
 40
1
 40
1
 10
540.000000
 20
116.000000
 30
0.0
 10
541.201850
 20
116.000000
 30
0.0
 10
542.000000
 20
117.000000
 30
0.0
 10
541.999999
 20
118.000001
 30
0.0
  0
SPLINE
  5
2f8
100
AcDbEntity
  8
Draft
 62
7
100
AcDbSpline
 70
8
 71
3
 72
8
 73
4
 74
0
 40
0
 40
0
 40
0
 40
0
 40
1
 40
1
 40
1
 40
1
 10
541.999999
 20
118.000001
 30
0.0
 10
541.999998
 20
119.000002
 30
0.0
 10
538.000000
 20
119.000000
 30
0.0
 10
538.000000
 20
117.999999
 30
0.0
  0
LWPOLYLINE
  5
2f9
100
AcDbEntity
  8
Draft
 62
7
100
AcDbPolyline
 90
2
 70
0
 10
541.000009
 20
124.944940
 30
0.0
 10
544.000010
 20
124.944940
 30
0.0
  0
SPLINE
  5
2fa
100
AcDbEntity
  8
Draft
 62
7
100
AcDbSpline
 70
8
 71
3
 72
8
 73
4
 74
0
 40
0
 40
0
 40
0
 40
0
 40
1
 40
1
 40
1
 40
1
 10
542.000000
 20
118.000000
 30
0.0
 10
542.000000
 20
116.999999
 30
0.0
 10
542.798150
 20
116.000001
 30
0.0
 10
544.000000
 20
116.000001
 30
0.0
  0
SPLINE
  5
2fb
100
AcDbEntity
  8
Draft
 62
7
100
AcDbSpline
 70
8
 71
3
 72
8
 73
4
 74
0
 40
0
 40
0
 40
0
 40
0
 40
1
 40
1
 40
1
 40
1
 10
544.000000
 20
116.000001
 30
0.0
 10
545.201850
 20
116.000001
 30
0.0
 10
546.000000
 20
117.000001
 30
0.0
 10
545.999999
 20
118.000002
 30
0.0
  0
SPLINE
  5
2fc
100
AcDbEntity
  8
Draft
 62
7
100
AcDbSpline
 70
8
 71
3
 72
8
 73
4
 74
0
 40
0
 40
0
 40
0
 40
0
 40
1
 40
1
 40
1
 40
1
 10
545.999999
 20
118.000002
 30
0.0
 10
545.999998
 20
119.000003
 30
0.0
 10
542.000000
 20
119.000001
 30
0.0
 10
542.000000
 20
118.000000
 30
0.0
  0
LWPOLYLINE
  5
2fd
100
AcDbEntity
  8
Draft
 62
7
100
AcDbPolyline
 90
1
 70
1
 10
538.000000
 20
117.999999
 30
0.0
  0
LWPOLYLINE
  5
2fe
100
AcDbEntity
  8
Draft
 62
7
100
AcDbPolyline
 90
1
 70
1
 10
542.000000
 20
118.000000
 30
0.0
  0
SPLINE
  5
2ff
100
AcDbEntity
  8
Draft
 62
7
100
AcDbSpline
 70
8
 71
3
 72
8
 73
4
 74
0
 40
0
 40
0
 40
0
 40
0
 40
1
 40
1
 40
1
 40
1
 10
550.000000
 20
118.000000
 30
0.0
 10
551.000002
 20
117.999999
 30
0.0
 10
551.000001
 20
115.999999
 30
0.0
 10
551.000001
 20
115.999999
 30
0.0
  0
LWPOLYLINE
  5
300
100
AcDbEntity
  8
Draft
 62
7
100
AcDbPolyline
 90
2
 70
0
 10
546.000000
 20
118.000000
 30
0.0
 10
550.000000
 20
118.000000
 30
0.0
  0
SPLINE
  5
301
100
AcDbEntity
  8
Draft
 62
7
100
AcDbSpline
 70
8
 71
3
 72
8
 73
4
 74
0
 40
0
 40
0
 40
0
 40
0
 40
1
 40
1
 40
1
 40
1
 10
454.999992
 20
189.999996
 30
0.0
 10
454.999992
 20
189.999996
 30
0.0
 10
482.342786
 20
190.535249
 30
0.0
 10
495.970227
 20
189.675722
 30
0.0
  0
SPLINE
  5
302
100
AcDbEntity
  8
Draft
 62
7
100
AcDbSpline
 70
8
 71
3
 72
8
 73
4
 74
0
 40
0
 40
0
 40
0
 40
0
 40
1
 40
1
 40
1
 40
1
 10
495.970227
 20
189.675722
 30
0.0
 10
509.597668
 20
188.816195
 30
0.0
 10
536.637391
 20
184.850862
 30
0.0
 10
536.637391
 20
184.850862
 30
0.0
  0
LWPOLYLINE
  5
303
100
AcDbEntity
  8
Draft
 62
7
100
AcDbPolyline
 90
4
 70
1
 10
455.000000
 20
190.264580
 30
0.0
 10
454.470830
 20
181.749400
 30
0.0
 10
448.412500
 20
168.272020
 30
0.0
 10
445.000000
 20
165.264580
 30
0.0
  0
SPLINE
  5
304
100
AcDbEntity
  8
Draft
 62
7
100
AcDbSpline
 70
8
 71
3
 72
8
 73
4
 74
0
 40
0
 40
0
 40
0
 40
0
 40
1
 40
1
 40
1
 40
1
 10
365.000000
 20
290.000000
 30
0.0
 10
365.000000
 20
290.000000
 30
0.0
 10
394.883280
 20
295.484926
 30
0.0
 10
410.000000
 20
295.484926
 30
0.0
  0
SPLINE
  5
305
100
AcDbEntity
  8
Draft
 62
7
100
AcDbSpline
 70
8
 71
3
 72
8
 73
4
 74
0
 40
0
 40
0
 40
0
 40
0
 40
1
 40
1
 40
1
 40
1
 10
410.000000
 20
295.484926
 30
0.0
 10
425.116740
 20
295.484926
 30
0.0
 10
455.000000
 20
290.000000
 30
0.0
 10
455.000000
 20
290.000000
 30
0.0
  0
LWPOLYLINE
  5
306
100
AcDbEntity
  8
Draft
 62
7
100
AcDbPolyline
 90
4
 70
1
 10
536.461450
 20
185.157720
 30
0.0
 10
536.102880
 20
176.633650
 30
0.0
 10
540.727870
 20
162.599670
 30
0.0
 10
543.809370
 20
159.253890
 30
0.0
  0
SPLINE
  5
307
100
AcDbEntity
  8
Draft
 62
7
100
AcDbSpline
 70
8
 71
3
 72
8
 73
4
 74
0
 40
0
 40
0
 40
0
 40
0
 40
1
 40
1
 40
1
 40
1
 10
455.000000
 20
269.899057
 30
0.0
 10
455.000000
 20
269.899057
 30
0.0
 10
435.209280
 20
260.390191
 30
0.0
 10
426.875000
 20
264.107668
 30
0.0
  0
SPLINE
  5
308
100
AcDbEntity
  8
Draft
 62
7
100
AcDbSpline
 70
8
 71
3
 72
8
 73
4
 74
0
 40
0
 40
0
 40
0
 40
0
 40
1
 40
1
 40
1
 40
1
 10
426.875000
 20
264.107668
 30
0.0
 10
418.540720
 20
267.825149
 30
0.0
 10
416.760410
 20
276.271998
 30
0.0
 10
410.000000
 20
276.271998
 30
0.0
  0
SPLINE
  5
309
100
AcDbEntity
  8
Draft
 62
7
100
AcDbSpline
 70
8
 71
3
 72
8
 73
4
 74
0
 40
0
 40
0
 40
0
 40
0
 40
1
 40
1
 40
1
 40
1
 10
410.000000
 20
276.271998
 30
0.0
 10
403.239600
 20
276.271998
 30
0.0
 10
401.459290
 20
267.825149
 30
0.0
 10
393.125000
 20
264.107668
 30
0.0
  0
SPLINE
  5
30a
100
AcDbEntity
  8
Draft
 62
7
100
AcDbSpline
 70
8
 71
3
 72
8
 73
4
 74
0
 40
0
 40
0
 40
0
 40
0
 40
1
 40
1
 40
1
 40
1
 10
393.125000
 20
264.107668
 30
0.0
 10
384.790720
 20
260.390191
 30
0.0
 10
365.000000
 20
269.899057
 30
0.0
 10
365.000000
 20
269.899057
 30
0.0
  0
LWPOLYLINE
  5
30b
100
AcDbEntity
  8
Draft
 62
7
100
AcDbPolyline
 90
2
 70
0
 10
455.000000
 20
290.000000
 30
0.0
 10
455.000000
 20
269.899057
 30
0.0
  0
LWPOLYLINE
  5
30c
100
AcDbEntity
  8
Draft
 62
7
100
AcDbPolyline
 90
2
 70
0
 10
365.000000
 20
269.899057
 30
0.0
 10
365.000000
 20
290.000000
 30
0.0
  0
LWPOLYLINE
  5
30d
100
AcDbEntity
  8
Draft
 62
7
100
AcDbPolyline
 90
4
 70
1
 10
424.999990
 20
93.000000
 30
0.0
 10
434.999990
 20
93.000000
 30
0.0
 10
434.999990
 20
75.000000
 30
0.0
 10
424.999990
 20
75.000000
 30
0.0
  0
LWPOLYLINE
  5
30e
100
AcDbEntity
  8
Draft
 62
7
100
AcDbPolyline
 90
4
 70
1
 10
434.999990
 20
93.000000
 30
0.0
 10
444.999990
 20
93.000000
 30
0.0
 10
444.999990
 20
75.000000
 30
0.0
 10
434.999990
 20
75.000000
 30
0.0
  0
LWPOLYLINE
  5
30f
100
AcDbEntity
  8
Draft
 62
7
100
AcDbPolyline
 90
4
 70
1
 10
444.999990
 20
93.000000
 30
0.0
 10
454.999990
 20
93.000000
 30
0.0
 10
454.999990
 20
75.000000
 30
0.0
 10
444.999990
 20
75.000000
 30
0.0
  0
LWPOLYLINE
  5
310
100
AcDbEntity
  8
Draft
 62
7
100
AcDbPolyline
 90
4
 70
1
 10
454.999990
 20
93.000000
 30
0.0
 10
464.999990
 20
93.000000
 30
0.0
 10
464.999990
 20
75.000000
 30
0.0
 10
454.999990
 20
75.000000
 30
0.0
  0
LWPOLYLINE
  5
311
100
AcDbEntity
  8
Draft
 62
7
100
AcDbPolyline
 90
4
 70
1
 10
464.999990
 20
93.000000
 30
0.0
 10
474.999990
 20
93.000000
 30
0.0
 10
474.999990
 20
75.000000
 30
0.0
 10
464.999990
 20
75.000000
 30
0.0
  0
LWPOLYLINE
  5
312
100
AcDbEntity
  8
Draft
 62
7
100
AcDbPolyline
 90
4
 70
1
 10
474.999990
 20
93.000000
 30
0.0
 10
484.999990
 20
93.000000
 30
0.0
 10
484.999990
 20
75.000000
 30
0.0
 10
474.999990
 20
75.000000
 30
0.0
  0
LWPOLYLINE
  5
313
100
AcDbEntity
  8
Draft
 62
7
100
AcDbPolyline
 90
4
 70
1
 10
484.999990
 20
93.000000
 30
0.0
 10
494.999990
 20
93.000000
 30
0.0
 10
494.999990
 20
75.000000
 30
0.0
 10
484.999990
 20
75.000000
 30
0.0
  0
LWPOLYLINE
  5
314
100
AcDbEntity
  8
Draft
 62
7
100
AcDbPolyline
 90
4
 70
1
 10
431.999990
 20
93.000000
 30
0.0
 10
437.999990
 20
93.000000
 30
0.0
 10
437.999990
 20
83.000000
 30
0.0
 10
431.999990
 20
83.000000
 30
0.0
  0
LWPOLYLINE
  5
315
100
AcDbEntity
  8
Draft
 62
7
100
AcDbPolyline
 90
4
 70
1
 10
441.999990
 20
93.000000
 30
0.0
 10
447.999990
 20
93.000000
 30
0.0
 10
447.999990
 20
83.000000
 30
0.0
 10
441.999990
 20
83.000000
 30
0.0
  0
LWPOLYLINE
  5
316
100
AcDbEntity
  8
Draft
 62
7
100
AcDbPolyline
 90
4
 70
1
 10
461.999990
 20
93.000000
 30
0.0
 10
467.999990
 20
93.000000
 30
0.0
 10
467.999990
 20
83.000000
 30
0.0
 10
461.999990
 20
83.000000
 30
0.0
  0
LWPOLYLINE
  5
317
100
AcDbEntity
  8
Draft
 62
7
100
AcDbPolyline
 90
4
 70
1
 10
471.999990
 20
93.000000
 30
0.0
 10
477.999990
 20
93.000000
 30
0.0
 10
477.999990
 20
83.000000
 30
0.0
 10
471.999990
 20
83.000000
 30
0.0
  0
SPLINE
  5
318
100
AcDbEntity
  8
Outline
 62
2
100
AcDbSpline
 70
8
 71
3
 72
8
 73
4
 74
0
 40
0
 40
0
 40
0
 40
0
 40
1
 40
1
 40
1
 40
1
 10
47.734553
 20
280.718824
 30
0.0
 10
46.562679
 20
280.718824
 30
0.0
 10
45.624837
 20
280.500004
 30
0.0
 10
44.999835
 20
280.000004
 30
0.0
  0
SPLINE
  5
319
100
AcDbEntity
  8
Outline
 62
2
100
AcDbSpline
 70
8
 71
3
 72
8
 73
4
 74
0
 40
0
 40
0
 40
0
 40
0
 40
1
 40
1
 40
1
 40
1
 10
44.999835
 20
280.000004
 30
0.0
 10
39.999837
 20
276.000004
 30
0.0
 10
50.000048
 20
234.999955
 30
0.0
 10
50.000048
 20
229.999955
 30
0.0
  0
LWPOLYLINE
  5
31a
100
AcDbEntity
  8
Draft
 62
7
100
AcDbPolyline
 90
4
 70
1
 10
481.999990
 20
93.000000
 30
0.0
 10
487.999990
 20
93.000000
 30
0.0
 10
487.999990
 20
83.000000
 30
0.0
 10
481.999990
 20
83.000000
 30
0.0
  0
SPLINE
  5
31b
100
AcDbEntity
  8
Outline
 62
2
100
AcDbSpline
 70
8
 71
3
 72
8
 73
4
 74
0
 40
0
 40
0
 40
0
 40
0
 40
1
 40
1
 40
1
 40
1
 10
50.000048
 20
195.000025
 30
0.0
 10
49.999931
 20
192.238638
 30
0.0
 10
52.238356
 20
189.999980
 30
0.0
 10
54.999744
 20
189.999813
 30
0.0
  0
LWPOLYLINE
  5
31c
100
AcDbEntity
  8
Outline
 62
2
100
AcDbPolyline
 90
2
 70
0
 10
50.000048
 20
229.999955
 30
0.0
 10
50.000048
 20
195.000025
 30
0.0
  0
SPLINE
  5
31d
100
AcDbEntity
  8
Outline
 62
2
100
AcDbSpline
 70
8
 71
3
 72
8
 73
4
 74
0
 40
0
 40
0
 40
0
 40
0
 40
1
 40
1
 40
1
 40
1
 10
144.999933
 20
189.999813
 30
0.0
 10
147.761522
 20
189.999697
 30
0.0
 10
150.000262
 20
192.238437
 30
0.0
 10
150.000145
 20
195.000025
 30
0.0
  0
LWPOLYLINE
  5
31e
100
AcDbEntity
  8
Outline
 62
2
100
AcDbPolyline
 90
2
 70
0
 10
54.999744
 20
189.999813
 30
0.0
 10
144.999933
 20
189.999813
 30
0.0
  0
SPLINE
  5
31f
100
AcDbEntity
  8
Outline
 62
2
100
AcDbSpline
 70
8
 71
3
 72
8
 73
4
 74
0
 40
0
 40
0
 40
0
 40
0
 40
1
 40
1
 40
1
 40
1
 10
150.000145
 20
229.999955
 30
0.0
 10
150.000145
 20
234.999955
 30
0.0
 10
159.999839
 20
276.000004
 30
0.0
 10
154.999839
 20
280.000004
 30
0.0
  0
SPLINE
  5
320
100
AcDbEntity
  8
Outline
 62
2
100
AcDbSpline
 70
8
 71
3
 72
8
 73
4
 74
0
 40
0
 40
0
 40
0
 40
0
 40
1
 40
1
 40
1
 40
1
 10
154.999839
 20
280.000004
 30
0.0
 10
149.999838
 20
284.000004
 30
0.0
 10
124.999910
 20
270.000097
 30
0.0
 10
119.999909
 20
270.000097
 30
0.0
  0
SPLINE
  5
321
100
AcDbEntity
  8
Outline
 62
2
100
AcDbSpline
 70
8
 71
3
 72
8
 73
4
 74
0
 40
0
 40
0
 40
0
 40
0
 40
1
 40
1
 40
1
 40
1
 10
119.999909
 20
270.000097
 30
0.0
 10
114.999909
 20
270.000099
 30
0.0
 10
105.000096
 20
274.999793
 30
0.0
 10
100.000095
 20
274.999793
 30
0.0
  0
SPLINE
  5
322
100
AcDbEntity
  8
Outline
 62
2
100
AcDbSpline
 70
8
 71
3
 72
8
 73
4
 74
0
 40
0
 40
0
 40
0
 40
0
 40
1
 40
1
 40
1
 40
1
 10
100.000095
 20
274.999793
 30
0.0
 10
95.000097
 20
274.999793
 30
0.0
 10
84.999765
 20
270.000099
 30
0.0
 10
79.999768
 20
270.000097
 30
0.0
  0
SPLINE
  5
323
100
AcDbEntity
  8
Outline
 62
2
100
AcDbSpline
 70
8
 71
3
 72
8
 73
4
 74
0
 40
0
 40
0
 40
0
 40
0
 40
1
 40
1
 40
1
 40
1
 10
79.999768
 20
270.000097
 30
0.0
 10
75.624768
 20
270.000097
 30
0.0
 10
55.937678
 20
280.718824
 30
0.0
 10
47.734553
 20
280.718824
 30
0.0
  0
LWPOLYLINE
  5
324
100
AcDbEntity
  8
Outline
 62
2
100
AcDbPolyline
 90
2
 70
0
 10
150.000145
 20
195.000025
 30
0.0
 10
150.000145
 20
229.999955
 30
0.0
  0
LWPOLYLINE
  5
325
100
AcDbEntity
  8
Outline
 62
2
100
AcDbPolyline
 90
1
 70
1
 10
47.734553
 20
280.718824
 30
0.0
  0
ENDSEC
  0
SECTION
  2
OBJECTS
  0
DICTIONARY
  5
C
330
0
100
AcDbDictionary
  3
ACAD_GROUP
350
D
  3
ACAD_MLINESTYLE
350
17
  0
DICTIONARY
  5
D
330
C
100
AcDbDictionary
  0
DICTIONARY
  5
1A
330
C
100
AcDbDictionary
  0
DICTIONARY
  5
17
330
C
100
AcDbDictionary
  3
STANDARD
350
18
  0
DICTIONARY
  5
19
330
C
100
AcDbDictionary
  0
ENDSEC
  0
EOF
